<?xml version="1.0" encoding="UTF-8"?>
<svg xmlns="http://www.w3.org/2000/svg" id="Layer_2" width="494.4044" height="294.6788" viewBox="0 0 494.4044 294.6788">
  <defs>
    <style>.cls-1{fill:#fbf1f4;}.cls-2{fill:#e43d4c;}</style>
  </defs>
  <g id="Layer_1-2">
    <g>
      <path class="cls-1" d="M22.499,209.1491c.7802-3.3674,1.5325-6.6202,2.2876-9.8723,2.0994-9.0426,4.1782-18.0901,6.3361-27.1188,.2004-.8383-.1957-1.1222-.6581-1.4724-4.7442-3.594-9.4987-7.1743-14.2512-10.7575-5.2072-3.926-10.4162-7.8495-15.6214-11.7781-.6557-.4949-.9129-.8414,.0008-1.5203,7.2637-5.3973,14.4768-10.8627,21.7034-16.31,2.7343-2.061,5.4531-4.1429,8.2013-6.1851,.7477-.5556,.6802-1.2722,.5137-1.9888-1.5482-6.664-3.1239-13.3217-4.6825-19.9833-1.2615-5.3915-2.5055-10.7871-3.7705-16.1777-.1817-.7744-.0153-1.0991,.8666-1.1399,4.4795-.207,8.9615-.4044,13.432-.7453,3.9428-.3007,7.8903-.4837,11.8344-.7359,4.1082-.2627,8.2103-.6068,12.3273-.7296,.8937-.0267,1.3894-.4281,1.5974-1.4653,1.5277-7.6188,3.1484-15.219,4.7402-22.825,.95-4.5396,1.91-9.0771,2.8427-13.6203,.1739-.8472,.4027-1.2375,1.4384-.9524,7.9803,2.1963,15.9794,4.3238,23.9719,6.4757,4.2912,1.1554,8.589,2.2879,12.8646,3.4989,.9116,.2582,.9598-.3815,1.1868-.839,3.0928-6.2356,6.1713-12.4783,9.2493-18.7213,2.4441-4.9571,4.9098-9.9039,7.3016-14.8862,.499-1.0394,.9476-1.1591,1.958-.6386,8.2623,4.2567,16.5759,8.4142,24.8208,12.7038,2.8333,1.474,5.7179,2.8471,8.5198,4.3764,.9091,.4962,1.35,.2467,1.8994-.4955,7.4942-10.1249,15.0139-20.2309,22.5174-30.349,.3082-.4156,.4432-.8352,1.1009-.3406,3.9101,2.9401,7.8521,5.8378,11.7878,8.7437,6.1336,4.5287,12.2734,9.0491,18.4044,13.5813,1.4931,1.1038,1.4822,1.1189,2.7837-.1821,4.4929-4.491,8.9085-9.0628,13.5006-13.4501,4.413-4.2161,8.7132-8.5422,13.0331-12.8501,.4887-.4873,.8312-.5749,1.249,.0033,.0474,.0656,.1143,.1171,.1725,.1748,8.8771,8.7922,17.7646,17.5739,26.6128,26.3949,.7648,.7625,1.2599,.8437,2.136,.1891,5.1603-3.8554,10.3623-7.6551,15.5522-11.471,4.9605-3.6471,9.9318-7.2796,14.8769-10.9474,.8444-.6263,1.1743-.0116,1.5553,.4971,2.4926,3.3283,4.9728,6.6659,7.4525,10.0038,5.0321,6.7734,10.0703,13.5423,15.0786,20.3333,.5295,.718,.9771,.4638,1.5565,.1681,8.6436-4.4112,17.2962-8.8047,25.9379-13.2196,2.6243-1.3408,5.3334-2.5184,7.8608-4.0462,.9606-.5807,1.1957,.155,1.5093,.7896,3.5193,7.1214,7.0455,14.2394,10.5602,21.3631,2.0286,4.1116,4.045,8.2292,6.0531,12.3508,.2909,.597,.4951,.9481,1.3564,.7072,5.9683-1.669,11.9622-3.2463,17.9456-4.8612,6.1015-1.6468,12.1994-3.3067,18.3012-4.9523,1.493-.4026,1.5412-.3966,1.8726,1.1691,1.3986,6.6065,2.7718,13.2184,4.1483,19.8296,1.161,5.5762,2.3151,11.1539,3.4685,16.7316,.1696,.8202,.8319,.9919,1.4819,1.0213,1.5076,.0682,3.0122,.1318,4.5201,.2361,4.8405,.3348,9.6956,.4604,14.5359,.7977,3.9028,.272,7.8013,.576,11.7124,.7244,2.3594,.0895,4.7125,.3335,7.0706,.4706,.9522,.0554,.7693,.6185,.6348,1.2004-.807,3.4914-1.611,6.9835-2.4212,10.4742-1.9976,8.6061-3.996,17.2119-6.0001,25.8165-.1985,.8523,.0301,1.3979,.7863,1.9608,7.6843,5.7204,15.3337,11.4878,22.9833,17.2547,2.2461,1.6933,4.4227,3.4817,6.7103,5.1157,.9311,.6651,.6576,.9745-.0391,1.4923-3.4683,2.5775-6.9264,5.1687-10.3777,7.769-6.4788,4.8812-12.9489,9.7739-19.4273,14.6556-.6801,.5124-.8257,1.1455-.6348,1.9476,1.1881,4.9912,2.3667,9.9846,3.5323,14.9811,1.6374,7.0187,3.2529,14.0425,4.8985,21.0593,.236,1.0061-.0199,1.4074-1.1129,1.4535-4.8074,.2028-9.6164,.4107-14.416,.7442-3.9437,.274-7.8864,.5328-11.8351,.7255-3.8655,.1886-7.7249,.5039-11.5899,.7072-.9108,.0479-.9057,.6775-1.0255,1.2449-.9159,4.3388-1.8141,8.6814-2.7184,13.0227-1.6426,7.886-3.2964,15.7697-4.9138,23.6609-.1865,.9098-.4985,1.1856-1.4528,.9234-10.6943-2.9382-21.3983-5.8414-32.1013-8.7477-1.4949-.4059-3.0101-.7411-4.4936-1.1838-.6324-.1887-.9873-.0906-1.278,.5084-3.0566,6.2991-6.3085,12.5007-9.3137,18.8269-2.4776,5.2157-5.1566,10.3357-7.7064,15.5177-.4125,.8382-.8394,.4882-1.3482,.228-7.1809-3.6722-14.3622-7.3438-21.5449-11.0126-3.9744-2.03-7.9706-4.0188-11.9143-6.1067-.9914-.5248-1.5141-.3131-2.1231,.5136-6.8908,9.3541-13.7953,18.6982-20.726,28.0228-.6766,.9102-1.1464,2.2605-2.1723,2.5677-1.1389,.3412-1.9273-.9934-2.814-1.6366-5.7098-4.1414-11.3685-8.3532-17.0487-12.5354-3.8416-2.8284-7.6984-5.6365-11.5303-8.478-.6717-.4981-1.2183-.6222-1.748,.1337-.0232,.033-.0572,.0585-.0863,.0873-8.8191,8.7342-17.6501,17.4565-26.4386,26.2214-.8601,.8578-1.3529,.9576-2.2456,.0359-3.25-3.3558-6.573-6.6415-9.8947-9.927-5.5321-5.4718-11.0982-10.9093-16.6106-16.4007-.6896-.687-1.1672-.6309-1.8642-.1145-6.3556,4.7089-12.7242,9.4005-19.0903,14.0953-3.7738,2.7831-7.556,5.5548-11.3201,8.351-.7463,.5544-1.1841,.1859-1.6092-.3937-2.6037-3.5501-5.1926-7.1111-7.8134-10.6485-4.7835-6.4562-9.5968-12.8904-14.3677-19.3559-.6521-.8837-1.219-1.02-2.2255-.4976-5.4155,2.8104-10.877,5.5322-16.3109,8.3073-5.687,2.9044-11.3712,5.8148-17.0291,8.7752-.8491,.4443-1.1435,.2651-1.5368-.5318-5.3099-10.7598-10.6562-21.5016-15.9847-32.2521-1.2462-2.5142-1.2255-2.4996-3.9554-1.7694-10.2799,2.7498-20.5648,5.4811-30.8456,8.2277-1.379,.3684-2.7593,.7425-4.1118,1.1953-.7892,.2642-1.1094-.012-1.2584-.7371-.745-3.6267-1.4943-7.2525-2.246-10.8778-1.4043-6.7725-2.8104-13.5446-4.2176-20.3166-.3972-1.9116-.8388-3.8151-1.1853-5.7358-.1724-.9559-.6326-1.1823-1.5749-1.2203-4.5622-.1841-9.1248-.4077-13.6781-.7426-2.4794-.1823-4.9585-.3278-7.4396-.4734-4.5526-.2672-9.0989-.6391-13.6495-.9432-.9388-.0628-1.8847-.028-2.8273-.024-.6756,.0029-.9881-.3005-.9167-.8691ZM254.8479,66.397c-6.0704,.0247-11.8973,.4568-17.5429,2.2498-7.5422,2.3953-12.7333,7.121-14.5256,15.0317-1.4536,6.4155-1.0217,12.8644,.0793,19.28,.4299,2.5053,.9033,4.9759,.6837,7.5487-.2998,3.5124-1.7328,6.6232-3.1977,9.7353-1.4753,3.1342-2.5467,6.35-2.6826,9.8718-.2463,6.3864,3.0872,11.307,9.1593,13.2662,2.079,.6708,4.2249,.9753,6.3946,1.1194,4.1285,.2741,8.2077,.0529,12.0505-1.6541,3.9952-1.7748,6.2925-4.8335,6.6961-9.2485,.4029-4.4057-1.8138-7.1973-5.5172-9.1182-.8701-.4513-1.7285-.943-2.4515-1.6248-1.5604-1.4716-1.3517-3.6405,.4635-4.7956,.8071-.5135,1.7101-.7972,2.6374-.9654,4.2675-.7744,8.5635-.6637,12.8621-.3549,1.1865,.0853,2.3613,.2751,3.4956,.6404,1.4709,.4738,2.7133,1.1941,2.9197,2.9386,.1959,1.6558-.8433,2.5608-2.0476,3.3474-1.1649,.7609-2.3929,1.4305-3.5226,2.2388-1.8515,1.3247-2.991,3.1146-3.2088,5.426-.5259,5.5802,2.0614,9.9326,7.3679,11.8015,6.3732,2.2446,12.827,2.0384,19.1264-.3199,4.254-1.5926,6.6308-4.9024,7.473-9.3349,.5069-2.6679,.2611-5.2942-.4014-7.9045-.7917-3.1197-2.3772-5.9135-3.6181-8.8479-1.4882-3.5189-2.1165-7.1618-1.4113-10.9248,1.0901-5.8168,1.6778-11.6388,1.3006-17.5747-.6134-9.6498-5.5499-16.2882-14.7177-19.3971-5.8568-1.9861-11.9321-2.3992-17.8646-2.4303Zm-4.2493,163.3685c4.0998,.039,8.1958-.0371,12.2661-.5797,5.0976-.6795,10.0848-1.762,14.588-4.4004,5.813-3.4058,8.5866-8.3997,8.0677-15.2159-.2792-3.6672-1.2239-7.1705-2.2102-10.669-2.3807-8.444-2.3674-16.6269,2.2339-24.4423,.8425-1.431,1.364-3.0595,1.9618-4.6243,2.3933-6.264-.7188-15.4482-9.4975-17.2675-4.1843-.8672-8.3802-1.0007-12.5541-.0551-3.4235,.7756-6.3628,2.4133-8.2647,5.4944-2.7328,4.427-1.8151,10.4887,2.1579,14.6967,.6741,.714,1.3797,1.41,1.9676,2.1918,3.5796,4.7595,2.2761,8.6466-3.4386,10.2919-3.6311,1.0454-7.3534,1.1613-11.0859,.914-1.511-.1001-2.9784-.5364-4.2849-1.3793-2.074-1.338-2.8717-3.489-2.1848-5.8616,.5736-1.9813,1.8773-3.4185,3.4333-4.673,1.9749-1.5924,3.5651-3.5007,4.6481-5.798,1.1827-2.5088,1.7245-5.119,.9447-7.8648-1.1339-3.9926-4.0756-6.1339-7.8101-7.2906-5.2503-1.6262-10.5736-1.5165-15.8934-.2837-8.3866,1.9436-12.4833,9.9824-8.5942,17.8499,.9062,1.8332,1.8743,3.6358,2.7967,5.4612,1.0861,2.1495,1.7462,4.3944,1.6334,6.8438-.0756,1.6402,.0815,3.2834,.4944,4.8732,1.0413,4.0101,2.7603,7.4825,7.2306,8.642,1.2714,.3298,2.5552,.5562,3.8702,.6258,4.872,.2577,9.6367-.4113,14.3501-1.5911,2.8956-.7248,5.7796-1.5485,8.8185-1.378,2.4799,.1392,4.1647,1.3961,4.4561,3.603,.4116,3.1175-.725,6.1841-4.4252,7.2077-1.0679,.2954-2.1561,.4602-3.2684,.5075-3.723,.1581-7.3311-.5726-10.9334-1.3642-4.7607-1.0462-9.5183-2.0763-14.4467-1.881-6.8785,.2726-10.9029,3.8423-11.4384,10.6506-.4721,6.0019,1.5428,10.2202,7.1205,12.9153,1.9622,.9481,4.0332,1.5882,6.1563,2.0526,6.9653,1.5236,14.0419,1.7641,21.1348,1.7982ZM113.8212,144.6107c3.1147-.0518,6.2268-.1891,9.3261-.4972,5.067-.5038,10.0649-1.3506,14.7694-3.4188,5.1245-2.2529,8.9302-5.7253,10.3726-11.3523,.6276-2.4482,.7458-4.9387,.5648-7.4398-.4872-6.7323-3.1018-10.2182-9.0543-12.1371-.6998-.2256-1.4167-.4018-2.1315-.5772-1.9108-.4688-3.8524-.756-5.8039-.9963-.8914-.1097-1.7022-.4307-1.8851-1.4633-.1903-1.0743,.1129-1.9658,1.1539-2.4593,.5881-.2788,1.2046-.5089,1.8261-.7042,2.1886-.6878,4.3487-1.4418,6.3921-2.5012,3.625-1.8795,5.9673-4.7518,6.9324-8.7517,.69-2.86,.7977-5.7569,.6577-8.6666-.2784-5.7859-2.8747-10.1391-8.0976-12.8205-4.5292-2.3252-9.4434-3.1577-14.429-3.6567-6.9486-.6954-13.9141-.6941-20.8752-.2347-4.4178,.2915-8.8057,.8366-12.9844,2.4359-5.7568,2.2032-8.6658,6.4275-8.8351,12.5852-.1079,3.9257,.8597,7.6202,2.1025,11.2774,1.0138,2.9833,1.9951,5.9701,2.3744,9.1228,.5504,4.5744-.358,8.9607-1.6187,13.3089-1.0811,3.7287-2.2971,7.4138-2.7325,11.3109-.6553,5.8652,1.9891,11.1401,7.1718,13.9521,1.9572,1.0619,4.0594,1.7325,6.2228,2.2202,6.1228,1.3806,12.3479,1.4648,18.5808,1.4634Zm265.8653,7.6523c-2.7446,0-5.4962-.1263-8.2321,.0284-4.5819,.2589-9.1381,.7845-13.4904,2.3931-4.4447,1.6426-7.6641,4.4731-8.9757,9.185-.5658,2.0326-.7144,4.1016-.7106,6.197,.0076,4.301,1.2744,8.3247,2.8507,12.24,2.0845,5.1776,2.1871,10.2928,.3469,15.5675-1.5073,4.3209-2.9039,8.7043-3.2198,13.3213-.4181,6.1107,1.3101,11.261,6.8057,14.623,2.7262,1.6678,5.7516,2.5433,8.8627,3.1364,7.2133,1.3753,14.5058,1.3823,21.7997,1.1233,4.7478-.1686,9.4887-.5402,14.0884-1.874,5.0556-1.466,9.0056-4.1041,10.1903-9.6643,.431-2.0226,.5295-4.0672,.3498-6.1109-.3447-3.9211-3.0499-6.6754-6.9415-7.0974-3.9544-.4289-7.8392,.2128-11.7159,.8796-4.2531,.7316-8.5186,1.2098-12.8321,.6139-2.136-.295-4.2054-.8232-5.7779-2.4256-1.8963-1.9323-2.1462-4.2785-1.3312-6.7264,.7658-2.3001,2.6864-3.0354,4.9133-3.202,1.9008-.1422,3.7586,.0916,5.5855,.6222,3.3189,.9639,6.3456,2.6244,9.5031,3.9729,2.4654,1.0529,4.9694,1.8734,7.7197,1.6692,3.2441-.2408,5.5219-1.979,6.4838-5.1009,.7411-2.4054,.6621-4.8535,.2431-7.296-.6137-3.5769-2.6683-5.4916-6.2677-5.8196-1.3857-.1263-2.7776-.0683-4.1711,.0834-3.6653,.3992-7.0277,1.8493-10.5006,2.9219-3.0645,.9465-6.167,1.6964-9.4144,1.1495-1.9935-.3357-3.5936-1.2763-4.1553-3.3301-.5767-2.1089-.1866-4.0632,1.4366-5.6536,1.0286-1.0078,2.3114-1.5478,3.6855-1.8491,4.4821-.9828,8.9634-.6327,13.4232,.1491,3.7969,.6656,7.5893,1.361,11.465,1.0812,3.2328-.2334,5.5547-1.8265,6.7334-4.8987,1.0072-2.6252,1.0418-5.3438,.7397-8.108-.4523-4.1393-2.5053-7.1023-6.2742-8.8713-1.4121-.6628-2.8889-1.1405-4.4058-1.5017-6.1893-1.474-12.5057-1.4905-18.8098-1.4285Zm-194.3253-7.5163c3.2214-.1186,6.7509-.0485,10.2629-.4,3.9564-.396,7.8913-.9056,11.6187-2.4093,3.5484-1.4314,6.2538-3.7068,7.4437-7.4787,.6848-2.1707,.9514-4.4127,.8103-6.6707-.317-5.0759-3.4635-7.9714-8.5574-8.026-3.2091-.0344-6.375,.3355-9.527,.8922-4.1634,.7353-8.3401,1.2881-12.584,.852-2.0132-.2069-3.9761-.5921-5.7025-1.7222-2.2615-1.4804-3.2293-4.1526-2.5408-6.911,.5721-2.2921,2.1823-3.5702,4.9496-3.8562,1.0175-.1052,2.0409-.0676,3.0646,.0732,3.5065,.4823,6.6392,2.0038,9.7988,3.4593,2.4915,1.1477,4.9862,2.2736,7.7333,2.7133,4.7025,.7527,8.2726-1.6165,9.1728-6.196,.4645-2.3628,.3508-4.7371-.2503-7.0645-.7213-2.7928-2.5713-4.3915-5.4132-4.8305-1.88-.2904-3.7567-.1615-5.6301,.1069-3.2259,.4621-6.2331,1.6764-9.2989,2.6888-2.9784,.9836-6.0073,1.6142-9.1688,1.3756-2.523-.1904-4.332-1.5264-4.8742-3.6084-.6303-2.4205,.3159-4.8822,2.4034-6.2,1.0147-.6406,2.132-1.0332,3.307-1.2621,4.5457-.8857,9.0552-.4188,13.5497,.3932,3.3088,.5978,6.6227,1.1288,9.9997,1.0597,4.4268-.0905,7.3816-2.6551,8.1653-7.0177,.2998-1.6688,.3114-3.3443,.2305-5.0215-.238-4.9357-2.5366-8.443-7.2041-10.2984-3.3058-1.3141-6.7721-1.8897-10.2827-2.2213-7.1141-.672-14.242-.7166-21.3678-.239-4.5856,.3074-9.1284,.9124-13.4192,2.7096-4.4758,1.8746-7.2997,5.1198-8.2882,9.9248-.6286,3.0557-.5664,6.1-.0532,9.1547,.6008,3.5762,2.0399,6.896,3.177,10.3062,1.2565,3.7682,1.4184,7.5275,.2028,11.3321-.5973,1.8695-1.1435,3.7553-1.7159,5.6328-1.3059,4.2839-2.4241,8.6053-2.0549,13.1415,.353,4.336,2.1042,7.9519,5.7115,10.5447,1.9526,1.4035,4.1355,2.3136,6.4274,2.9841,6.4082,1.8746,13.0037,2.0108,19.9038,2.089Zm140.9108-.139c1.545-.0764,3.2259-.1207,4.9003-.2495,5.0404-.3878,10.0054-1.149,14.6934-3.1726,5.7584-2.4857,9.7076-6.584,11.2583-12.7663,1.0724-4.2756,1.1568-8.5968,.2877-12.9131-1.118-5.5523-4.3629-9.413-9.5344-11.6759-2.5262-1.1054-5.1815-1.7546-7.8832-2.2687-4.1542-.7904-8.4037-.7363-12.5612-1.466-2.3073-.4049-4.5716-.9686-6.5474-2.3153-1.6971-1.1568-2.401-2.7625-1.9986-4.7841,.3771-1.8951,1.661-2.9471,3.4502-3.4432,1.529-.4239,3.089-.3483,4.6384-.1526,3.221,.407,6.1105,1.7823,8.993,3.1592,2.7442,1.3109,5.5463,2.3856,8.5994,2.7844,5.8135,.7593,10.3322-2.2835,11.7387-7.9894,.4767-1.9339,.5681-3.895,.3876-5.859-.4391-4.7781-2.8322-8.2738-7.0637-10.5273-1.707-.9091-3.5063-1.5771-5.3669-2.0835-4.7348-1.2885-9.5868-1.6856-14.4647-1.8502-6.6586-.2246-13.2747,.0254-19.6898,2.0786-6.3082,2.019-11.1052,5.7216-13.2752,12.2262-1.3206,3.9585-1.461,8.0464-1.0209,12.1504,.7733,7.2108,4.6823,11.9276,11.5229,14.2984,5.2366,1.8148,10.6787,2.4239,16.149,2.9039,2.6932,.2363,5.4027,.4077,7.892,1.6117,2.2774,1.1015,3.1863,2.9506,2.7406,5.4568-.3403,1.9138-2.0328,3.2922-4.3508,3.5036-.6918,.0631-1.3918,.0657-2.0873,.0536-3.4389-.0598-6.5622-1.2752-9.6292-2.6733-3.6215-1.6509-7.262-3.1503-11.3224-3.4385-4.9435-.3509-9.2495,1.7261-11.2631,5.6691-2.447,4.7914-1.6442,12.0159,1.8087,16.1174,2.3878,2.8364,5.5754,4.3725,9.0334,5.4201,6.4714,1.9604,13.143,2.1527,19.9653,2.1952ZM119.4688,229.9799c1.4038,.0429,4.0245-.0765,6.6371-.3104,4.2936-.3844,8.5211-1.1079,12.5613-2.6862,6.0329-2.3567,10.3624-6.3563,12.1089-12.7562,1.1385-4.1719,1.2144-8.4285,.5057-12.6693-1.0144-6.07-4.4787-10.2267-10.1775-12.5417-1.7113-.6951-3.4764-1.1996-5.2692-1.6289-4.4832-1.0737-9.0982-1.0896-13.6352-1.7237-2.6024-.3637-5.1644-.9146-7.4182-2.3832-1.6979-1.1063-2.5555-2.6314-2.2058-4.6907,.3265-1.9223,1.7177-3.265,3.7923-3.7067,1.2109-.2578,2.4269-.2677,3.6649-.1528,3.0335,.2817,5.79,1.4021,8.499,2.6826,2.9249,1.3826,5.8511,2.7172,9.0944,3.2479,6.1724,1.0098,10.9333-1.9536,12.4288-7.8239,.3365-1.321,.4373-2.6714,.4519-4.0181,.0564-5.1793-1.876-9.3145-6.4516-12.0256-1.7731-1.0506-3.6662-1.8145-5.6463-2.3564-7.8483-2.1476-15.8627-2.2317-23.9038-1.8312-3.5661,.1776-7.0806,.7691-10.4899,1.864-6.9105,2.2192-11.9654,6.3604-13.8235,13.6633-1.0433,4.1006-1.0945,8.2586-.3466,12.4272,.9477,5.2821,3.7727,9.1509,8.612,11.5245,1.4369,.7048,2.9258,1.2688,4.4608,1.7156,5.1419,1.4967,10.4379,1.9985,15.7432,2.4491,2.3317,.1981,4.6476,.5097,6.7534,1.6307,1.9405,1.033,2.8312,2.7906,2.5367,4.8856-.2836,2.0176-1.6183,3.3377-3.7926,3.8166-1.8058,.3977-3.5892,.1704-5.3679-.1363-3.5148-.606-6.6441-2.2681-9.868-3.6629-3.4294-1.4837-6.9643-2.342-10.7366-2.1213-4.5264,.2648-8.2074,2.8245-9.5564,7.0537-1.9129,5.9974-.9546,14.4332,7.2841,18.4675,1.252,.6131,2.535,1.1436,3.867,1.5543,6.0209,1.8563,12.2241,2.2007,19.6877,2.2431ZM389.2653,67.1909c-2.3756,0-4.7577-.1118-7.1253,.0254-3.844,.2228-7.6591,.7057-11.3479,1.9153-5.5945,1.8345-9.1586,5.5025-10.4418,11.3217-.443,2.0089-.6774,4.0353-.7882,6.0774-.2095,3.8609-.1209,7.7076,1.1341,11.4181,1.4184,4.1938,4.0595,5.7145,8.431,4.9879,1.655-.2751,3.3178-.5562,5.0003-.5538,2.9929,.0043,4.8111,1.4663,5.4308,4.3175,.7165,3.2971,.0522,6.2616-2.21,8.8095-1.0063,1.1334-2.0401,2.2431-3.0847,3.3414-2.6523,2.7888-4.3595,6.0064-4.6201,9.912-.4118,6.1692,1.8342,11.3529,8.1641,13.6092,7.4859,2.6683,15.1236,2.56,22.6606,.1084,3.6301-1.1808,6.4243-3.5496,7.6065-7.2973,1.6523-5.238,1.0387-10.2161-2.4332-14.6216-1.3155-1.6692-2.8179-3.1936-4.2648-4.7566-2.2448-2.4248-3.0195-5.267-2.5553-8.5061,.4628-3.2291,2.3966-4.9487,5.6707-4.9181,1.6819,.0157,3.3408,.3056,4.9964,.5839,3.9571,.6651,6.4504-.6923,8.0135-4.4072,.3001-.7132,.5442-1.4585,.7296-2.2099,.8836-3.5814,.8735-7.2214,.6307-10.8692-.1333-2.0037-.4218-3.9858-.9436-5.9313-1.6438-6.1285-5.9609-9.3497-11.827-10.89-5.5195-1.4493-11.1736-1.5546-16.8263-1.4668Zm-176.4733,106.5963c-.12-1.5159-.188-3.5685-.4642-5.5927-.4418-3.2377-1.3725-6.3173-3.5264-8.8922-2.7532-3.2914-6.5137-4.7228-10.5397-5.572-7.0331-1.4835-14.166-1.4207-21.2955-1.135-3.8064,.1525-7.5899,.5867-11.2799,1.6212-5.9356,1.664-10.0444,5.1618-11.5046,11.3581-1.0072,4.274-1.0526,8.6055-.7398,12.9469,.1411,1.9589,.5533,3.8839,1.3449,5.7081,1.4795,3.4094,3.7254,4.6747,7.4045,4.2277,1.9879-.2416,3.9561-.6649,5.9809-.5972,2.7588,.0923,4.4513,1.4003,5.0782,4.0877,.797,3.4167,.152,6.495-2.251,9.1358-1.4609,1.6054-2.9867,3.1596-4.3505,4.8443-6.5725,8.119-3.4112,19.4945,6.3514,22.3974,6.7798,2.016,13.681,1.9054,20.4719-.129,3.7685-1.129,6.8703-3.3136,8.1989-7.1688,1.8475-5.3612,1.3096-10.5087-2.3081-15.0723-1.3204-1.6657-2.8329-3.1793-4.2594-4.7607-1.9645-2.1779-2.8997-4.6932-2.6358-7.6539,.354-3.9711,2.2575-5.7302,6.2071-5.6742,1.276,.0181,2.5283,.2063,3.7779,.4276,5.1851,.9182,7.9892-.8619,9.411-5.9496,.7351-2.6307,.8289-5.3269,.9282-8.5573Zm107.1374,56.1088c3.8756-.1608,7.2633-.3887,10.5835-1.1965,6.2098-1.5108,10.9749-4.7567,12.8632-11.1656,1.6282-5.526,1.6625-11.1566,.3118-16.7464-.8547-3.5368-2.8433-6.1514-6.6656-6.8974-1.2141-.2369-2.447-.178-3.6758-.1516-2.1288,.0458-4.2423,.3965-6.3801,.2854-3.6866-.1917-5.7144-2.1481-5.9758-5.8194-.1582-2.2214,.6095-4.1794,1.7697-6.0144,1.2516-1.9796,2.8198-3.7174,4.2725-5.5429,2.4007-3.0169,4.4282-6.2144,4.7538-10.1866,.5702-6.9558-2.0679-11.9144-9.1576-13.5319-5.6-1.2776-11.2247-1.2195-16.7958,.1316-3.5951,.8718-6.7261,2.6025-8.7756,5.8409-2.3332,3.6866-2.5807,7.781-2.1716,11.9673,.4055,4.1494,1.8308,8.0383,3.1727,11.9445,.7838,2.2817,1.5746,4.5609,1.8741,6.9732,.4117,3.3156-.4922,6.4093-1.5912,9.4697-1.2846,3.5771-2.7477,7.1088-3.2173,10.9172-1.0431,8.4581,2.0773,14.968,10.6116,17.8767,4.7645,1.6239,9.7031,1.8445,14.1935,1.8462Z"></path>
      <path class="cls-2" d="M254.8479,66.397c5.9325,.031,12.0078,.4442,17.8646,2.4303,9.1678,3.1089,14.1043,9.7473,14.7177,19.3971,.3773,5.9359-.2105,11.758-1.3006,17.5747-.7052,3.763-.0769,7.4059,1.4113,10.9248,1.2409,2.9344,2.8264,5.7282,3.6181,8.8479,.6624,2.6103,.9083,5.2366,.4014,7.9045-.8422,4.4325-3.219,7.7423-7.473,9.3349-6.2994,2.3583-12.7532,2.5645-19.1264,.3199-5.3065-1.8689-7.8937-6.2213-7.3679-11.8015,.2178-2.3113,1.3573-4.1013,3.2088-5.426,1.1297-.8083,2.3577-1.4779,3.5226-2.2388,1.2043-.7866,2.2435-1.6915,2.0476-3.3474-.2064-1.7445-1.4488-2.4648-2.9197-2.9386-1.1343-.3654-2.3091-.5552-3.4956-.6404-4.2987-.3088-8.5946-.4195-12.8621,.3549-.9273,.1682-1.8303,.4519-2.6374,.9654-1.8152,1.155-2.0239,3.324-.4635,4.7956,.723,.6818,1.5814,1.1735,2.4515,1.6248,3.7034,1.9209,5.9201,4.7125,5.5172,9.1182-.4037,4.415-2.7009,7.4737-6.6961,9.2485-3.8428,1.7071-7.922,1.9282-12.0505,1.6541-2.1696-.144-4.3156-.4486-6.3946-1.1194-6.0721-1.9592-9.4056-6.8797-9.1593-13.2662,.1358-3.5218,1.2073-6.7376,2.6826-9.8718,1.4649-3.1121,2.8979-6.2229,3.1977-9.7353,.2196-2.5728-.2538-5.0435-.6837-7.5487-1.101-6.4156-1.5329-12.8645-.0793-19.28,1.7923-7.9107,6.9834-12.6364,14.5256-15.0317,5.6456-1.7929,11.4725-2.2251,17.5429-2.2498Zm-.1268,40.8081c1.3114,0,2.6272,.069,3.9332-.0152,2.2852-.1474,4.5831-.2875,6.7488-1.1514,2.551-1.0176,3.6254-2.9622,3.2003-5.6626-.4451-2.8263-2.3545-4.1782-4.8804-4.8998-3.1515-.9003-6.4007-.9061-9.6333-.8789-2.9855,.0251-5.9887,.0804-8.8604,1.0905-2.9641,1.0425-4.437,3.1163-4.2787,5.9982,.1432,2.6064,1.56,4.0638,4.7321,4.8224,2.9728,.7109,6.0035,.765,9.0385,.6968Z"></path>
      <path class="cls-2" d="M250.5987,229.767c-7.093-.0355-14.1696-.2761-21.1349-1.7997-2.1232-.4644-4.1942-1.1045-6.1563-2.0526-5.5777-2.695-7.5926-6.9134-7.1205-12.9153,.5355-6.8083,4.56-10.3781,11.4384-10.6506,4.9284-.1953,9.686,.8348,14.4467,1.881,3.6023,.7916,7.2104,1.5224,10.9334,1.3642,1.1123-.0473,2.2005-.2121,3.2684-.5075,3.7003-1.0235,4.8368-4.0902,4.4252-7.2077-.2914-2.2069-1.9762-3.4638-4.4561-3.603-3.0389-.1705-5.9229,.6532-8.8185,1.378-4.7135,1.1798-9.4781,1.8488-14.3501,1.5911-1.315-.0696-2.5989-.296-3.8702-.6258-4.4702-1.1595-6.1892-4.6319-7.2306-8.642-.4128-1.5898-.57-3.233-.4944-4.8732,.1129-2.4494-.5473-4.6943-1.6334-6.8438-.9224-1.8254-1.8905-3.6279-2.7967-5.4612-3.889-7.8675,.2076-15.9063,8.5942-17.8499,5.3199-1.2329,10.6431-1.3425,15.8934,.2837,3.7345,1.1567,6.6763,3.2981,7.8101,7.2906,.7798,2.7458,.238,5.356-.9447,7.8648-1.083,2.2973-2.6732,4.2056-4.6481,5.798-1.556,1.2545-2.8597,2.6918-3.4333,4.673-.6869,2.3726,.1107,4.5236,2.1848,5.8616,1.3065,.8429,2.7739,1.2791,4.2849,1.3793,3.7324,.2473,7.4547,.1315,11.0859-.914,5.7147-1.6453,7.0182-5.5325,3.4386-10.2919-.588-.7818-1.2935-1.4778-1.9676-2.1918-3.973-4.2081-4.8907-10.2697-2.1579-14.6967,1.9019-3.0811,4.8412-4.7188,8.2647-5.4944,4.1739-.9456,8.3698-.8121,12.5541,.0551,8.7787,1.8193,11.8908,11.0035,9.4975,17.2675-.5979,1.5648-1.1193,3.1933-1.9618,4.6243-4.6013,7.8154-4.6146,15.9982-2.2339,24.4423,.9864,3.4986,1.931,7.0018,2.2102,10.669,.5189,6.8162-2.2547,11.8102-8.0677,15.2159-4.5032,2.6384-9.4904,3.7209-14.588,4.4004-4.0702,.5425-8.1662,.6187-12.2659,.5811Z"></path>
      <path class="cls-2" d="M113.8206,144.6091c-6.2322,.003-12.4573-.0812-18.5802-1.4618-2.1634-.4878-4.2655-1.1583-6.2228-2.2202-5.1827-2.812-7.8271-8.0869-7.1718-13.9521,.4354-3.8971,1.6514-7.5822,2.7325-11.3109,1.2607-4.3483,2.1691-8.7345,1.6187-13.3089-.3793-3.1527-1.3606-6.1395-2.3744-9.1228-1.2428-3.6572-2.2104-7.3517-2.1025-11.2774,.1693-6.1577,3.0783-10.382,8.8351-12.5852,4.1787-1.5992,8.5666-2.1444,12.9844-2.4359,6.9611-.4593,13.9266-.4607,20.8752,.2347,4.9856,.499,9.8997,1.3314,14.429,3.6567,5.2229,2.6814,7.8192,7.0346,8.0976,12.8205,.14,2.9097,.0323,5.8066-.6577,8.6666-.965,3.9999-3.3074,6.8722-6.9324,8.7517-2.0433,1.0594-4.2034,1.8133-6.3921,2.5012-.6215,.1953-1.238,.4254-1.8261,.7042-1.041,.4935-1.3442,1.385-1.1539,2.4593,.1829,1.0326,.9937,1.3536,1.8851,1.4633,1.9515,.2402,3.8931,.5274,5.8039,.9963,.7148,.1754,1.4316,.3516,2.1315,.5772,5.9525,1.9189,8.5671,5.4047,9.0543,12.1371,.181,2.5011,.0627,4.9915-.5648,7.4398-1.4423,5.6269-5.2481,9.0994-10.3726,11.3523-4.7045,2.0682-9.7024,2.915-14.7694,3.4188-3.0993,.3081-6.2114,.4454-9.3267,.4956Zm-.8763-33.9085c-1.1863,0-2.3773-.0679-3.5577,.0153-1.9604,.1381-3.9061,.4288-5.7241,1.2342-1.5565,.6895-2.7627,1.7223-3.2232,3.4587-.9101,3.4319,.6933,6.0556,4.4315,7.0487,3.8497,1.0228,7.7822,.909,11.7066,.6231,1.8799-.137,3.729-.4983,5.4303-1.3799,1.3208-.6844,2.3294-1.6611,2.7775-3.1179,.8894-2.8922-.2359-5.37-3.0594-6.6493-2.7953-1.2664-5.7888-1.3182-8.7815-1.2328Zm-1.8428-8.9126c.7363,0,1.4761,.0461,2.2084-.0081,2.941-.2175,5.8722-.5084,8.551-1.9015,1.5844-.8239,2.8334-1.9543,3.1914-3.8018,.5775-2.98-.8851-5.1343-4.1791-6.0254-3.7254-1.0079-7.5326-.911-11.3335-.6186-1.9215,.1478-3.8096,.5131-5.4987,1.5348-2.0545,1.2428-3.084,3.5795-2.7068,6.1268,.3442,2.3248,1.5502,3.5664,4.1657,4.2,1.8375,.4452,3.7128,.5806,5.6015,.4937Z"></path>
      <path class="cls-2" d="M379.6865,152.263c6.3041-.062,12.6205-.0455,18.8098,1.4285,1.5169,.3612,2.9937,.8389,4.4058,1.5017,3.769,1.769,5.822,4.732,6.2742,8.8713,.3021,2.7643,.2675,5.4828-.7397,8.108-1.1787,3.0721-3.5006,4.6653-6.7334,4.8987-3.8758,.2798-7.6681-.4156-11.465-1.0812-4.4597-.7818-8.9411-1.1319-13.4232-.1491-1.374,.3013-2.6569,.8413-3.6855,1.8491-1.6232,1.5904-2.0133,3.5448-1.4366,5.6536,.5617,2.0538,2.1618,2.9944,4.1553,3.3301,3.2474,.5469,6.3499-.203,9.4144-1.1495,3.4729-1.0726,6.8354-2.5228,10.5006-2.9219,1.3935-.1518,2.7854-.2097,4.1711-.0834,3.5995,.328,5.6541,2.2427,6.2677,5.8196,.419,2.4424,.4981,4.8905-.2431,7.296-.9619,3.1219-3.2396,4.86-6.4838,5.1009-2.7504,.2042-5.2543-.6163-7.7197-1.6692-3.1575-1.3485-6.1842-3.009-9.5031-3.9729-1.8269-.5306-3.6847-.7644-5.5855-.6222-2.2269,.1666-4.1475,.9019-4.9133,3.202-.815,2.4479-.5651,4.7941,1.3312,6.7264,1.5725,1.6024,3.642,2.1306,5.7779,2.4256,4.3135,.5958,8.579,.1176,12.8321-.6139,3.8767-.6668,7.7615-1.3084,11.7159-.8796,3.8915,.422,6.5967,3.1763,6.9415,7.0974,.1797,2.0437,.0812,4.0883-.3498,6.1109-1.1846,5.5601-5.1346,8.1982-10.1903,9.6643-4.5997,1.3338-9.3406,1.7054-14.0884,1.874-7.2939,.259-14.5865,.2519-21.7997-1.1233-3.111-.5931-6.1365-1.4686-8.8627-3.1364-5.4956-3.3621-7.2239-8.5123-6.8057-14.623,.3159-4.617,1.7125-9.0004,3.2198-13.3213,1.8401-5.2747,1.7376-10.3899-.3469-15.5675-1.5763-3.9153-2.843-7.9391-2.8507-12.24-.0037-2.0954,.1448-4.1643,.7106-6.197,1.3116-4.7118,4.531-7.5423,8.9757-9.185,4.3523-1.6085,8.9084-2.1341,13.4904-2.3931,2.7358-.1546,5.4875-.0284,8.2321-.0284Z"></path>
      <path class="cls-2" d="M185.3612,144.7467c-6.9001-.0782-13.4956-.2144-19.9038-2.089-2.2919-.6705-4.4748-1.5807-6.4274-2.9841-3.6073-2.5928-5.3585-6.2087-5.7115-10.5447-.3693-4.5361,.7489-8.8575,2.0549-13.1415,.5724-1.8775,1.1186-3.7633,1.7159-5.6328,1.2155-3.8047,1.0536-7.5639-.2028-11.3321-1.1371-3.4102-2.5762-6.73-3.177-10.3062-.5132-3.0548-.5753-6.099,.0532-9.1547,.9884-4.8051,3.8123-8.0502,8.2882-9.9248,4.2908-1.7971,8.8336-2.4022,13.4192-2.7096,7.1258-.4776,14.2537-.433,21.3678,.239,3.5106,.3316,6.9769,.9072,10.2827,2.2213,4.6675,1.8554,6.9662,5.3627,7.2041,10.2984,.0809,1.6772,.0693,3.3526-.2305,5.0215-.7837,4.3626-3.7385,6.9272-8.1653,7.0177-3.377,.069-6.6909-.462-9.9997-1.0597-4.4945-.812-9.0039-1.2789-13.5497-.3932-1.1749,.2289-2.2923,.6216-3.307,1.2621-2.0875,1.3178-3.0337,3.7796-2.4034,6.2,.5422,2.082,2.3512,3.418,4.8742,3.6084,3.1615,.2386,6.1904-.392,9.1688-1.3756,3.0657-1.0124,6.0729-2.2267,9.2989-2.6888,1.8733-.2683,3.75-.3973,5.6301-.1069,2.8419,.439,4.6919,2.0377,5.4132,4.8305,.6011,2.3273,.7147,4.7016,.2503,7.0645-.9002,4.5795-4.4703,6.9487-9.1728,6.196-2.7471-.4397-5.2418-1.5656-7.7333-2.7133-3.1596-1.4555-6.2922-2.977-9.7988-3.4593-1.0237-.1408-2.0472-.1783-3.0646-.0732-2.7673,.286-4.3775,1.5642-4.9496,3.8562-.6885,2.7584,.2792,5.4306,2.5408,6.911,1.7264,1.1301,3.6893,1.5153,5.7025,1.7222,4.244,.4361,8.4207-.1167,12.584-.852,3.152-.5567,6.3179-.9266,9.527-.8922,5.0939,.0546,8.2404,2.9501,8.5574,8.026,.141,2.258-.1255,4.5-.8103,6.6707-1.1899,3.772-3.8953,6.0473-7.4437,7.4787-3.7274,1.5036-7.6622,2.0133-11.6187,2.4093-3.512,.3515-7.0415,.2814-10.2629,.4Z"></path>
      <path class="cls-2" d="M326.2721,144.6077c-6.8223-.0425-13.4938-.2348-19.9653-2.1952-3.458-1.0476-6.6456-2.5837-9.0334-5.4201-3.4529-4.1015-4.2557-11.326-1.8087-16.1174,2.0137-3.943,6.3196-6.02,11.2631-5.6691,4.0605,.2882,7.701,1.7876,11.3224,3.4385,3.0669,1.3981,6.1903,2.6135,9.6292,2.6733,.6955,.0121,1.3955,.0095,2.0873-.0536,2.318-.2114,4.0105-1.5898,4.3508-3.5036,.4457-2.5062-.4632-4.3553-2.7406-5.4568-2.4893-1.204-5.1988-1.3754-7.892-1.6117-5.4703-.48-10.9125-1.089-16.149-2.9039-6.8406-2.3708-10.7496-7.0875-11.5229-14.2984-.4401-4.1039-.2997-8.1918,1.0209-12.1504,2.17-6.5046,6.967-10.2072,13.2752-12.2262,6.4152-2.0532,13.0313-2.3033,19.6898-2.0786,4.8779,.1645,9.73,.5617,14.4647,1.8502,1.8606,.5063,3.6598,1.1744,5.3669,2.0835,4.2315,2.2535,6.6246,5.7492,7.0637,10.5273,.1805,1.9639,.0891,3.925-.3876,5.859-1.4066,5.7058-5.9252,8.7487-11.7387,7.9894-3.0531-.3988-5.8552-1.4735-8.5994-2.7844-2.8825-1.3769-5.772-2.7522-8.993-3.1592-1.5494-.1958-3.1094-.2714-4.6384,.1526-1.7893,.4961-3.0731,1.5482-3.4502,3.4432-.4023,2.0216,.3015,3.6273,1.9986,4.7841,1.9758,1.3467,4.2401,1.9104,6.5474,2.3153,4.1575,.7297,8.4069,.6755,12.5612,1.466,2.7017,.5141,5.357,1.1633,7.8832,2.2687,5.1715,2.2629,8.4164,6.1236,9.5344,11.6759,.8691,4.3163,.7847,8.6375-.2877,12.9131-1.5507,6.1822-5.4999,10.2805-11.2583,12.7663-4.6879,2.0237-9.6529,2.7849-14.6934,3.1726-1.6744,.1288-3.3554,.1731-4.9003,.2495Z"></path>
      <path class="cls-2" d="M119.4688,229.9799c-7.4636-.0424-13.6669-.3867-19.6877-2.2431-1.332-.4107-2.6149-.9412-3.867-1.5543-8.2386-4.0343-9.197-12.4701-7.2841-18.4675,1.349-4.2292,5.0299-6.7889,9.5564-7.0537,3.7723-.2207,7.3073,.6376,10.7366,2.1213,3.2238,1.3948,6.3531,3.0569,9.868,3.6629,1.7788,.3067,3.5621,.534,5.3679,.1363,2.1743-.4788,3.509-1.7989,3.7926-3.8166,.2945-2.095-.5961-3.8527-2.5367-4.8856-2.1059-1.121-4.4218-1.4326-6.7534-1.6307-5.3054-.4506-10.6014-.9524-15.7432-2.4491-1.5349-.4468-3.0239-1.0108-4.4608-1.7156-4.8393-2.3736-7.6643-6.2424-8.612-11.5245-.7479-4.1686-.6968-8.3266,.3466-12.4272,1.8581-7.3029,6.913-11.4442,13.8235-13.6633,3.4093-1.0948,6.9238-1.6863,10.4899-1.864,8.041-.4005,16.0555-.3165,23.9038,1.8312,1.9801,.5419,3.8732,1.3058,5.6463,2.3564,4.5756,2.7111,6.5079,6.8463,6.4516,12.0256-.0147,1.3467-.1154,2.6971-.4519,4.0181-1.4955,5.8703-6.2564,8.8337-12.4288,7.8239-3.2433-.5306-6.1694-1.8653-9.0944-3.2479-2.709-1.2805-5.4655-2.4009-8.499-2.6826-1.2379-.1149-2.454-.1051-3.6649,.1528-2.0745,.4417-3.4658,1.7844-3.7923,3.7067-.3497,2.0594,.5079,3.5844,2.2058,4.6907,2.2538,1.4686,4.8158,2.0195,7.4182,2.3832,4.537,.6341,9.152,.65,13.6352,1.7237,1.7928,.4294,3.5579,.9338,5.2692,1.6289,5.6989,2.315,9.1631,6.4717,10.1775,12.5417,.7087,4.2408,.6329,8.4974-.5057,12.6693-1.7465,6.3998-6.076,10.3995-12.1089,12.7562-4.0402,1.5782-8.2677,2.3017-12.5613,2.6862-2.6126,.2339-5.2333,.3534-6.6371,.3104Z"></path>
      <path class="cls-2" d="M389.2653,67.1909c5.6527-.0878,11.3068,.0175,16.8263,1.4668,5.8661,1.5403,10.1832,4.7616,11.827,10.89,.5218,1.9456,.8103,3.9276,.9436,5.9313,.2428,3.6478,.2529,7.2878-.6307,10.8692-.1854,.7514-.4295,1.4967-.7296,2.2099-1.5631,3.715-4.0564,5.0724-8.0135,4.4072-1.6556-.2783-3.3145-.5682-4.9964-.5839-3.2741-.0306-5.2079,1.689-5.6707,4.9181-.4642,3.2391,.3105,6.0814,2.5553,8.5061,1.4469,1.5629,2.9493,3.0873,4.2648,4.7566,3.4719,4.4055,4.0855,9.3836,2.4332,14.6216-1.1822,3.7477-3.9764,6.1165-7.6065,7.2973-7.537,2.4516-15.1746,2.5598-22.6606-.1084-6.3299-2.2563-8.5759-7.4399-8.1641-13.6092,.2606-3.9056,1.9678-7.1232,4.6201-9.912,1.0446-1.0984,2.0785-2.2081,3.0847-3.3414,2.2622-2.548,2.9265-5.5125,2.21-8.8095-.6196-2.8512-2.4379-4.3132-5.4308-4.3175-1.6824-.0024-3.3453,.2787-5.0003,.5538-4.3714,.7265-7.0125-.7942-8.431-4.9879-1.2549-3.7104-1.3435-7.5572-1.1341-11.4181,.1108-2.0421,.3452-4.0686,.7882-6.0774,1.2832-5.8192,4.8473-9.4872,10.4418-11.3217,3.6888-1.2096,7.5039-1.6926,11.3479-1.9153,2.3676-.1372,4.7497-.0254,7.1253-.0254Z"></path>
      <path class="cls-2" d="M212.792,173.7872c-.0992,3.2303-.193,5.9266-.9282,8.5573-1.4218,5.0877-4.2259,6.8678-9.411,5.9496-1.2496-.2213-2.5019-.4095-3.7779-.4276-3.9496-.0559-5.8531,1.7031-6.2071,5.6742-.2639,2.9606,.6713,5.4759,2.6358,7.6539,1.4265,1.5815,2.939,3.0951,4.2594,4.7607,3.6177,4.5636,4.1556,9.7111,2.3081,15.0723-1.3285,3.8552-4.4304,6.0399-8.1989,7.1688-6.7909,2.0344-13.692,2.145-20.4719,.129-9.7626-2.9029-12.9239-14.2784-6.3514-22.3974,1.3638-1.6847,2.8896-3.2389,4.3505-4.8443,2.403-2.6408,3.048-5.7191,2.251-9.1358-.6269-2.6875-2.3194-3.9955-5.0782-4.0877-2.0248-.0677-3.9929,.3557-5.9809,.5972-3.6792,.4471-5.925-.8183-7.4045-4.2277-.7916-1.8242-1.2038-3.7492-1.3449-5.7081-.3127-4.3414-.2673-8.6729,.7398-12.9469,1.4602-6.1963,5.569-9.6941,11.5046-11.3581,3.69-1.0345,7.4735-1.4687,11.2799-1.6212,7.1295-.2857,14.2625-.3485,21.2955,1.135,4.026,.8492,7.7864,2.2806,10.5397,5.572,2.154,2.575,3.0847,5.6546,3.5264,8.8922,.2762,2.0242,.3443,4.0768,.4642,5.5927Z"></path>
      <path class="cls-2" d="M319.9294,229.896c-4.4904-.0017-9.429-.2223-14.1935-1.8462-8.5344-2.9087-11.6547-9.4187-10.6116-17.8767,.4697-3.8083,1.9327-7.3401,3.2173-10.9172,1.099-3.0605,2.0029-6.1541,1.5912-9.4697-.2995-2.4123-1.0903-4.6915-1.8741-6.9732-1.3419-3.9063-2.7672-7.7952-3.1727-11.9445-.4091-4.1862-.1616-8.2806,2.1716-11.9673,2.0495-3.2384,5.1805-4.9691,8.7756-5.8409,5.5711-1.351,11.1958-1.4092,16.7958-.1316,7.0896,1.6175,9.7278,6.5761,9.1576,13.5319-.3256,3.9721-2.3531,7.1697-4.7538,10.1866-1.4527,1.8255-3.0209,3.5632-4.2725,5.5429-1.1602,1.8351-1.9279,3.793-1.7697,6.0144,.2614,3.6713,2.2892,5.6277,5.9758,5.8194,2.1377,.1112,4.2513-.2396,6.3801-.2854,1.2289-.0264,2.4617-.0854,3.6758,.1516,3.8223,.7459,5.8109,3.3605,6.6656,6.8974,1.3507,5.5898,1.3164,11.2205-.3118,16.7464-1.8883,6.4089-6.6534,9.6548-12.8632,11.1656-3.3202,.8078-6.7079,1.0357-10.5835,1.1965Z"></path>
      <path class="cls-1" d="M254.721,107.2051c-3.035,.0682-6.0657,.0141-9.0385-.6968-3.1721-.7586-4.5889-2.216-4.7321-4.8224-.1584-2.882,1.3146-4.9557,4.2787-5.9982,2.8718-1.0101,5.8749-1.0654,8.8604-1.0905,3.2327-.0272,6.4819-.0214,9.6333,.8789,2.5259,.7216,4.4353,2.0735,4.8804,4.8998,.4252,2.7004-.6493,4.645-3.2003,5.6626-2.1657,.8639-4.4636,1.004-6.7488,1.1514-1.3059,.0842-2.6218,.0152-3.9332,.0152Z"></path>
      <path class="cls-1" d="M112.9442,110.7006c2.9927-.0854,5.9862-.0336,8.7815,1.2328,2.8235,1.2792,3.9488,3.7571,3.0594,6.6493-.448,1.4568-1.4566,2.4335-2.7775,3.1179-1.7014,.8816-3.5504,1.243-5.4303,1.3799-3.9244,.2859-7.8568,.3997-11.7066-.6231-3.7382-.9932-5.3417-3.6169-4.4315-7.0487,.4605-1.7363,1.6667-2.7692,3.2232-3.4587,1.818-.8053,3.7637-1.0961,5.7241-1.2342,1.1804-.0832,2.3715-.0153,3.5577-.0153Z"></path>
      <path class="cls-1" d="M111.1014,101.7879c-1.8888,.0869-3.7641-.0486-5.6015-.4937-2.6155-.6337-3.8215-1.8753-4.1657-4.2-.3772-2.5473,.6523-4.884,2.7068-6.1268,1.689-1.0217,3.5772-1.387,5.4987-1.5348,3.8008-.2924,7.6081-.3893,11.3335,.6186,3.294,.8912,4.7567,3.0454,4.1791,6.0254-.358,1.8475-1.6071,2.9778-3.1914,3.8018-2.6788,1.3931-5.61,1.6841-8.551,1.9015-.7323,.0541-1.4721,.0081-2.2084,.0081Z"></path>
    </g>
  </g>
</svg>
