<?xml version="1.0" encoding="UTF-8"?>
<svg xmlns="http://www.w3.org/2000/svg" id="Layer_2" width="483.1469" height="305.7956" viewBox="0 0 483.1469 305.7956">
  <defs>
    <style>.cls-1{fill:#fbf0f3;}.cls-2{fill:#e43d4c;}</style>
  </defs>
  <g id="Layer_1-2">
    <g>
      <path class="cls-2" d="M71.0594,219.1789c.586,1.8284,1.2018,3.6479,1.7523,5.4869,1.5472,5.1678,2.1291,10.4045,.1516,15.5549-3.3278,8.6673-10.1795,12.8252-19.0082,14.0583-7.9699,1.1132-15.3479-3.0955-18.5953-10.3438-1.4718-3.285-1.8825-6.7607-1.7615-10.3161,.0231-.6788-.0045-1.0412-.8635-1.034-12.5188,.1043-23.2468-7.1337-28.2449-20.3531-2.087-5.52-3.136-11.2637-3.6724-17.1065-1.066-11.6112-.9492-23.2476-.4434-34.8761,.3874-8.9065,1.6207-17.6869,5.0236-26.0275,5.7204-14.0207,16.1855-22.8123,30.3698-27.4834,5.3944-1.7764,10.9128-2.882,16.6137-2.9774,3.6334-.0608,7.1902,.4134,10.6553,1.4957,.6733,.2103,.9748,.0931,1.3431-.517,2.0594-3.4116,5.0308-5.6808,8.8823-6.7168,6.7542-1.8167,13.5213-3.5853,20.2846-5.3681,1.9273-.508,3.8748-.6001,5.8449-.26,.4659,.0804,.9397,.2319,1.3938-.1679,2.216-1.9508,4.9086-2.8522,7.7158-3.5714,5.9033-1.5125,11.7882-3.0975,17.6721-4.6843,4.1227-1.1118,8.0408-.6472,11.7251,1.4884,.7104,.4118,.9081,.2288,1.2668-.3768,2.1013-3.5477,5.1584-5.8676,9.1513-6.9313,9.0902-2.4216,18.1794-4.8468,27.2737-7.2528,3.9884-1.0552,7.8032-.5558,11.3834,1.484,.6935,.3951,.9639,.3337,1.3737-.3589,2.0997-3.5485,5.1723-5.8577,9.1627-6.9182,6.6409-1.7649,13.2808-3.5341,19.9306-5.2648,2.7144-.7065,5.4457-.6399,8.1205,.2166,.6547,.2097,1.0239,.1125,1.4754-.384,1.952-2.1465,4.3718-3.557,7.1667-4.3025,6.5599-1.7497,13.0918-3.6257,19.7055-5.1433,2.8965-.6646,5.7139-1.5203,8.5673-2.3007,9.6644-2.6431,19.3472-5.2295,29.0748-7.6272,6.7201-1.6564,13.5302-1.9248,20.2979-.0628,.5915,.1627,.7911-.071,1.0247-.5218,2.1422-4.1336,5.5186-6.694,10.0062-7.8652,6.4902-1.6939,12.9621-3.4583,19.4605-5.1199,4.6374-1.1857,8.9438-.3537,12.793,2.5193,.7206,.5378,.9468,.5102,1.3186-.3371,1.9258-4.3889,5.2121-7.2975,9.8501-8.5407,12.523-3.3567,25.0611-6.657,37.5918-9.9849,10.427-2.7692,20.8494-5.5557,31.2793-8.3138,3.648-.9647,7.3556-1.6071,11.1258-1.8617,.316-.0213,.6653,.0604,.9282-.2112,2.1317,0,4.2634,0,6.395,0,1.8734,.3593,3.7787,.6004,5.6148,1.0975,10.8036,2.925,17.178,10.1888,19.9221,20.7936,1.97,7.6132,1.9405,15.4178,1.6249,23.2046-.2698,6.6588-1.437,13.1751-3.7667,19.4454-.5973,1.6076-1.3007,3.178-2.011,4.7401-.2566,.5643-.3289,1.0073-.0171,1.5971,4.2881,8.1098,6.2512,16.912,7.6574,25.8775,.452,2.8816,.85,5.7603,.007,8.6431-1.5114,5.1685-4.7477,8.8405-9.9051,10.3714-6.9767,2.0709-14.0472,3.8297-21.0941,5.6583-2.2906,.5944-4.6427,.5436-6.9372-.0477-.6935-.1787-1.0258-.0031-1.4412,.4913-.7098,.8444-1.4323,1.7083-2.2872,2.3919-.8139,.6508-1.0198,1.3591-.9158,2.3363,.4582,4.3044,1.7272,8.4068,3.0855,12.4826,1.6407,4.9229,3.7021,9.7096,4.6886,14.8413,1.6404,8.5334,1.5441,16.9264-2.6763,24.7656-4.5681,8.4851-11.6365,13.4047-21.4769,13.293-8.5293-.0968-15.0272-4.0207-19.1815-11.5884-.1333-.2429-.2607-.4891-.5493-1.0316-.0327,.7174-.0599,1.1316-.0692,1.5461-.0869,3.8485,.1792,7.7017-.1553,11.5467-.1694,1.9474-.7744,3.7655-1.7308,5.4568-.3243,.5735-.3621,.96,.0898,1.514,2.2849,2.8007,3.3663,6.0288,3.3499,9.6513-.0271,5.9829,.0038,11.9661-.0099,17.9491-.0167,7.2834-4.3751,13.0205-11.3909,14.8986-12.3276,3.3-24.6668,6.5569-37.0027,9.8259-14.4207,3.8215-28.8542,7.5951-43.2586,11.4769-5.0737,1.3674-9.7104,.7272-14.1146-2.4494-.1304,.9181,.1905,1.6308,.3287,2.348,.9164,4.7569,1.1344,9.5083-.0553,14.2517-1.5822,6.3089-4.992,11.4302-10.4831,14.9045-8.3079,5.2566-17.3918,6.9048-26.9593,4.4957-9.159-2.3061-15.5691-10.0623-16.7281-19.4615-.9285-7.5296,.4513-14.7659,2.6179-21.899,.953-3.1376,1.4229-6.2908,1.2776-9.5575-.0398-.8936-.2779-1.4627-1.1796-1.8797-3.2374-1.497-5.9759-3.7002-8.4576-6.3677-.2858,.4527-.1693,.9025-.1697,1.3159-.0081,10.4908-.0039,20.9816-.0072,31.4725-.0025,8.0531-4.2524,13.5532-12.0655,15.6247-6.1682,1.6354-12.3434,3.2451-18.5036,4.9103-5.5538,1.5013-10.4489,.3354-14.6926-3.5221-.5102-.4637-.7531-.5075-1.2381,.0315-9.141,10.1579-20.8254,15.4766-34.0748,17.7146-6.3907,1.0795-12.7448,.8852-18.8991-1.3867-9.0399-3.3371-14.8805-9.8569-18.3139-18.691-2.2182-5.7073-3.1357-11.6848-3.425-17.763-.1339-2.8138-.4459-5.642,.1548-8.452,.8445-3.951,2.9232-7.0834,6.2459-9.3585,.7065-.4838,.7879-.773,.2889-1.4922-5.7139-8.2349-7.6327-17.4208-6.7808-27.2977,.3361-3.8967,1.2256-7.6643,2.536-11.4066-.7268-.2057-1.3168,.1611-1.9233,.3004-2.4688,.5669-4.8589,1.473-7.4053,1.706-.2446,.0224-.5059,.1224-.7303,.0675-2.748-.6727-4.9262,.452-7.1936,1.8815-2.401,1.5137-5.3296,1.7888-8.0447,2.538-4.6917,1.2947-9.4205,2.4557-14.1092,3.7611-3.5734,.9948-7.0395,.7372-10.4751-.5365-.0573-.0448-.1464-.1395-.1664-.1267-.1433,.0919-.0803,.1885,.0202,.2744ZM453.1603,71.4316c1.2004-.6848,2.3893-1.3089,3.4292-2.1833,3.3515-2.8182,5.2287-6.5613,6.612-10.5946,2.6364-7.6873,2.9633-15.6379,2.6031-23.6591-.1397-3.1102-.3699-6.2089-1.1216-9.2466-1.5873-6.4143-5.1911-9.6857-11.6568-10.5568-3.6258-.4885-7.2266-.0838-10.7381,.7027-9.3405,2.092-18.5201,4.8253-27.7916,7.1956-.6919,.1769-.7908,.538-.7936,1.1335-.0095,2.0072-.0727,4.0141-.0858,6.0213-.1137,17.4129-.2223,34.8257-.3293,52.2386-.0297,4.8348,.0377,9.6721-.1002,14.5036-.1157,4.0557-.2437,8.1003,.0876,12.1529,.3242,3.9656,1.2307,7.5632,4.8373,9.9736,1.6656,1.1132,2.4458,2.9254,2.8011,4.888,.4347,2.4019,.3329,4.8147,.1181,7.2251-.466,5.2297-1.7476,10.3188-2.6936,15.4659-1.1699,6.3648-2.2605,12.7419-2.0821,19.2502,.0664,2.4228,.3667,4.8156,1.3973,7.0559,1.2237,2.6598,3.3593,3.9822,6.2262,4.02,3.6107,.0476,6.0875-1.8978,7.8295-4.8743,1.7742-3.0316,2.2246-6.3854,2.1073-9.8301-.1477-4.3403-1.243-8.4774-2.742-12.5322-2.5689-6.9486-5.0236-13.9346-5.8741-21.3555-.6556-5.7203,.3491-10.8904,5.1446-14.6907,1.6106-1.2764,2.4353-2.9393,2.8037-4.8843,.3748-1.9789,.4767-3.9853,.4049-5.9924-.221-6.1792-.6623-12.3533-.143-18.5413,.2046-2.4385,.1333-2.4444,2.5357-3.0868,2.8878-.7721,4.3673-.2284,6.0797,2.2717,1.237,1.806,2.0502,3.8166,2.7285,5.8817,1.7564,5.3481,2.6524,10.8788,3.415,16.4333,.0967,.7043,.187,1.0247,1.0251,.7977,6.0394-1.6355,12.0883-3.2362,18.1416-4.8199,.6426-.1681,.8721-.4373,.773-1.1013-1.0034-6.7289-2.29-13.3889-4.9015-19.7139-1.0982-2.6598-2.421-5.2005-4.525-7.2406-1.5318-1.4853-3.2895-2.4269-5.5222-2.3078Zm-231.9986,48.1031c.0705-.0005,.141-.0009,.2114-.0013,.1316,.3361,.2649,.6714,.3944,1.0083,5.2413,13.6279,10.4933,27.2518,15.7005,40.8928,.3749,.9822,.748,1.171,1.7701,.8887,5.8346-1.6116,11.6887-3.1537,17.5504-4.6647,.8352-.2153,1.0759-.5424,1.0752-1.3979-.0243-30.1596-.0252-60.3192,.0013-90.4788,.0009-.9879-.2106-1.1288-1.1384-.8762-5.841,1.5899-11.6909,3.1488-17.5549,4.6511-.974,.2495-1.2595,.6263-1.2569,1.6388,.0386,14.9567,.0266,29.9136,.0266,44.8704v1.2706c-.3946-.3979-.5842-.8306-.7536-1.271-5.1814-13.4759-10.3727-26.9481-15.5169-40.4382-.3944-1.0343-.8081-1.217-1.8651-.9266-5.7187,1.571-11.4551,3.0797-17.2038,4.537-1.0701,.2713-1.3725,.7009-1.3711,1.8109,.0369,29.9546,.0295,59.9092,.0295,89.8638v1.4189c.5364-.1273,.9712-.2203,1.4006-.3339,5.7336-1.5174,11.4602-3.0622,17.2054-4.5341,1.0026-.2569,1.3251-.6544,1.3223-1.7133-.0398-14.9567-.027-29.9136-.027-44.8704,0-.4482,0-.8965,0-1.3447Zm44.5959-10.7019c0,15.035,.0077,30.07-.017,45.105-.0017,1.0121,.1103,1.3622,1.2698,1.0338,4.0911-1.1589,8.23-2.1487,12.3259-3.2915,6.063-1.6915,12.2582-2.9273,18.1765-5.1173,8.6874-3.2148,15.3145-8.6797,18.8709-17.465,2.4951-6.1634,3.3458-12.6492,3.6134-19.2046,.4579-11.2163,.5697-22.4416-.2089-33.6517-.301-4.3342-.9717-8.6177-2.6414-12.6807-1.9654-4.7827-5.2785-8.0429-10.4602-9.0939-4.1318-.838-8.2695-.4775-12.2994,.5422-9.2756,2.3469-18.5079,4.8644-27.7687,7.2706-.9036,.2348-.8676,.7671-.8673,1.4481,.0082,15.035,.0063,30.07,.0063,45.105Zm-135.3383-10.3993c-.4356,.0883-.7575,.1362-1.0699,.2195-5.848,1.5604-11.687,3.1554-17.5492,4.6605-1.0412,.2673-1.3126,.7014-1.3097,1.7352,.0362,12.8237,.0136,25.6475,.0432,38.4712,.0023,.9959-.1871,1.508-1.2766,1.7667-3.5802,.8502-7.1282,1.8363-10.6891,2.768q-1.3924,.3643-1.3963-1.059c-.0008-12.8648-.0109-25.7295,.0204-38.5942,.0024-.971-.192-1.1676-1.1472-.9079-5.8801,1.5987-11.7697,3.1635-17.6713,4.6811-.8926,.2295-1.1277,.6106-1.1241,1.4953,.0336,8.3579,.02,16.7159,.02,25.0739,0,21.6325,0,43.2649,.0001,64.8974,0,1.5765,.0028,1.5838,1.4729,1.1964,5.734-1.5113,11.46-3.0534,17.206-4.5173,.9906-.2524,1.2511-.6704,1.2472-1.6643-.0399-10.1196-.0052-20.2395-.0525-30.359-.005-1.0757,.3371-1.4634,1.3438-1.7113,3.6128-.8898,7.2134-1.8362,10.7912-2.8572,1.0986-.3135,1.2618-.0489,1.258,1.0033-.0369,10.1196-.0073,20.2395-.0434,30.359-.0039,1.096,.2495,1.2747,1.3012,.9871,5.7196-1.5642,11.4519-3.0842,17.1988-4.5445,1.0983-.2791,1.4602-.6897,1.4586-1.8726-.0408-29.9494-.0321-59.8989-.0321-89.8484v-1.3789Zm3.2988,91.7284c.2134,0,.3315,.0242,.4359-.0035,6.2472-1.6517,12.4904-3.3187,18.7439-4.9456,.6073-.158,.7657-.5029,.8622-1.0149,.6591-3.4961,1.3498-6.9866,1.9724-10.4892,.1405-.7905,.4401-1.1753,1.2491-1.3841,5.9001-1.5229,11.7916-3.0803,17.6705-4.6829,.8548-.233,1.1253-.0776,1.2954,.7793,.597,3.0078,1.3295,5.9895,1.8844,9.0043,.1804,.9801,.505,1.059,1.3495,.8311,5.8833-1.5877,11.7712-3.16,17.674-4.6732,.9771-.2505,1.085-.695,.8953-1.5445-.6508-2.9133-1.2636-5.8352-1.8756-8.7571-5.3568-25.5753-10.7145-51.1504-16.0485-76.7304-.2016-.9667-.5092-1.1916-1.5062-.9178-8.2814,2.2742-16.5731,4.5125-24.8807,6.689-1.0952,.2869-1.5617,.7566-1.6484,1.8583-.0798,1.0134-.3554,2.0114-.5451,3.0162-2.5107,13.3014-5.0213,26.6028-7.5323,39.9042-2.5945,13.7438-5.1908,27.4872-7.7831,41.2313-.7406,3.9269-1.47,7.8559-2.2129,11.8293Zm-118.6399-15.5352c-.04,6.6381,.04,13.273,.7445,19.8814,.5002,4.6915,1.3009,9.3236,3.2193,13.681,2.3044,5.234,6.0071,8.7759,11.9272,9.3414,4.0172,.3837,7.9048-.4442,11.6886-1.7733,1.1597-.4073,2.3133-.8228,3.5621-.8652,2.1776-.074,3.3521,.8662,3.7862,3.0139,.2543,1.2579,.3144,2.5289,.1568,3.791-.3191,2.5569-.7382,5.1013-1.0545,7.6584-.3056,2.4701-.8496,4.9333-.3471,7.4462,.3405,1.703,1.2303,2.5955,2.7226,2.6779,5.0134,.2771,8.4617-3.677,7.4589-8.5305-.6732-3.2582-2.0686-6.2892-2.9415-9.4849-1.9457-7.123-.2346-11.5625,5.9984-15.4711,.2428-.1523,.4856-.3047,.7266-.46,2.2518-1.451,3.995-3.3694,5.2743-5.7185,1.7755-3.2604,2.5258-6.8076,2.9028-10.4518,.5281-5.104,.4186-10.2264,.4301-15.3466,.0026-1.139-.2524-1.3953-1.3804-1.0865-5.5221,1.5119-11.0636,2.9528-16.5986,4.4179-1.8369,.4862-1.843,.4843-2.0038,2.4311-.0573,.6936-.0637,1.3914-.1212,2.0849-.2886,3.4843-.8588,6.9049-2.4516,10.0686-.9999,1.986-2.3665,3.6367-4.4662,4.5505-3.0092,1.3096-5.3922,.4635-6.8765-2.4504-1.2305-2.4158-1.7164-5.0503-1.9072-7.6978-.8284-11.4948-.9679-22.9953,.2086-34.4782,.3095-3.021,.9899-5.9764,2.4502-8.6877,1.1315-2.1009,2.7238-3.6654,5.1081-4.2941,2.2138-.5838,4.0533,.0508,5.3909,1.9089,.7501,1.0419,1.2116,2.2173,1.5813,3.4397,.8024,2.6529,1.0063,5.3871,1.0811,8.1305,.0257,.9411,.1976,1.167,1.1914,.8917,5.2024-1.4411,10.4282-2.7976,15.6464-4.1814q3.1026-.8228,3.01-4.0378c-.1402-5.22-.6821-10.3771-2.528-15.3098-2.7124-7.2481-8.0526-10.9393-15.7916-10.9358-3.9666,.0018-7.804,.8058-11.5768,1.9667-9.0082,2.772-16.3239,7.6963-20.7137,16.3215-2.847,5.5941-4.0972,11.6254-4.7582,17.8002-.7029,6.5665-.7968,13.1609-.7495,19.758Zm172.7352,45.9778c-.0324,0-.0647,0-.097,0,0-1.5159,.0679-3.0354-.0128-4.547-.2385-4.4678-.7471-8.8972-2.4502-13.0894-2.2645-5.574-6.2656-8.9687-12.3406-9.7458-4.4739-.5723-8.8197,.1296-13.111,1.3011-7.5686,2.0661-14.3835,5.4347-19.6236,11.4904-7.2217,8.3458-8.9608,21.3982-4.0781,30.8538,2.7678,5.36,7.2156,9.0359,12.255,12.1047,4.3443,2.6456,9.0283,4.6343,13.5251,6.985,2,1.0455,3.9728,2.1417,5.5817,3.7609,1.2334,1.2413,2.0207,2.6981,1.7879,4.5154-.3734,2.9143-3.4582,5.7205-7.0047,6.4195-2.5507,.5026-4.891-.7876-6.5084-3.6056-1.6556-2.8844-2.1614-6.0672-2.3241-9.3188-.0437-.8737-.1921-1.0957-1.1259-.8413-5.9593,1.6233-11.9342,3.1902-17.9144,4.7355-.7647,.1976-.9523,.5609-.9012,1.2886,.1665,2.369,.192,4.7509,.4359,7.1109,.4611,4.4621,1.3844,8.8163,3.6474,12.7694,2.7807,4.8575,7.0187,7.5645,12.5675,7.8229,10.1409,.4723,19.2259-2.7535,27.2751-8.7488,6.7766-5.0474,10.8839-11.8116,11.6707-20.3623,.5824-6.3296-1.3561-11.7043-6.2688-15.884-2.6438-2.2493-5.6641-3.8865-8.7812-5.3612-3.9941-1.8896-8.1491-3.432-12.0384-5.5464-2.7567-1.4987-5.3456-3.214-7.0715-5.9396-3.8757-6.1208-.9058-14.2356,5.8288-15.9458,3.0818-.7826,5.0944,.2774,6.1762,3.2713,.5898,1.6322,.7889,3.3392,.9054,5.0577,.222,3.2737,.2139,6.5522,.137,9.8293-.0207,.8829,.2884,1.0492,1.0755,.8378,5.9647-1.6025,11.9307-3.2002,17.9066-4.7602,.6953-.1815,.9089-.4777,.891-1.1721-.0452-1.7609-.015-3.5237-.015-5.2857Zm113.1561-44.6826c0-6.1063-.0271-11.1472,.0212-16.1873,.0106-1.1061-.2754-1.294-1.3274-1.0073-5.6832,1.5491-11.3763,3.0646-17.0876,4.5062-1.11,.2802-1.4519,.6885-1.4573,1.8612-.0485,10.5689,.352,21.1457-.4115,31.7036-.2515,3.4781-.7583,6.9224-2.2162,10.1414-1.0145,2.24-2.5172,4.0147-4.9101,4.8871-3.1157,1.1359-5.4947,.1581-6.8615-2.8566-.8709-1.9209-1.2565-3.9709-1.5169-6.0476-.6542-5.2168-.6258-10.464-.6558-15.7061-.0342-5.983-.0254-11.9663,.0098-17.9493,.0056-.9581-.1668-1.1721-1.163-.8998-5.9182,1.6181-11.8534,3.1748-17.7936,4.7109-.7337,.1897-.9809,.4827-.975,1.2447,.0868,11.1436-.229,22.2937,.4522,33.4273,.2803,4.5818,.8926,9.1254,2.4535,13.4826,2.1062,5.8796,5.8992,9.8089,12.3326,10.7882,1.0443,.159,2.4377-.4658,3.0698,.5377,.5477,.8695,.515,2.1206,.6807,3.2118,1.2445,8.1977,1.6994,16.3267-.9871,24.4108-1.5359,4.622-2.4827,9.4181-2.0922,14.3733,.3706,4.7024,3.2364,7.8128,7.7784,8.1774,3.8183,.3066,7.5202-.2965,11.0203-1.8953,3.0781-1.406,5.1853-3.6907,6.0025-7.0265,.5034-2.0552,.4469-4.1474,.1548-6.228-.5618-4.0012-1.9258-7.7765-3.3962-11.5064-1.1288-2.8631-1.634-5.8078-1.6892-8.8671-.1167-6.4693,.8498-12.8081,2.1615-19.1153,.176-.8465,.5525-1.3388,1.2954-1.7581,5.87-3.3135,10.1511-8.0732,12.8039-14.2758,2.6137-6.1107,3.4998-12.5831,3.957-19.1402,.4195-6.0148,.2959-12.041,.347-16.9977Zm52.0158,15.0193c0,15.0361,.0041,30.0723-.0108,45.1084-.0009,.8534-.0322,1.3248,1.1426,1.0084,11.7672-3.1689,23.5498-6.2806,35.3354-9.3803,.7775-.2045,1.0033-.5429,.9978-1.3374-.0378-5.4078-.0384-10.8162-.0025-16.224,.0064-.966-.1343-1.2717-1.2061-.9758-5.0455,1.393-10.1211,2.677-15.1707,4.0559-.964,.2632-1.2483,.1408-1.2386-.9236,.0489-5.3667,.0443-10.7342,.0012-16.101-.0073-.9058,.2649-1.2611,1.1523-1.4871,4.5968-1.171,9.1704-2.4328,13.7603-3.6317,.797-.2082,1.2022-.4722,1.1913-1.4431-.0607-5.4074-.0526-10.816-.0081-16.2238,.0082-.9995-.2608-1.1685-1.185-.9166-4.5375,1.2366-9.0969,2.394-13.6292,3.6488-.9866,.2731-1.2585,.1391-1.2496-.9243,.0455-5.4077,.0457-10.8162-.0035-16.2239-.0081-.8945,.3239-1.1725,1.1147-1.3777,5.1459-1.3356,10.2727-2.7453,15.4235-4.0612,.8607-.2199,1.0801-.5692,1.0743-1.4107-.0371-5.3259-.0185-10.6522-.0191-15.9783-.0002-1.4851-.0032-1.4922-1.4335-1.1123-11.6206,3.0866-23.2365,6.1914-34.868,9.2362-.9593,.2511-1.1906,.6331-1.1888,1.5666,.0288,15.0361,.0203,30.0722,.0203,45.1083Zm17.2397-109.8156c0,15.0358,.0006,30.0716-.002,45.1073-.0001,.7023-.1697,1.398,1.0378,1.0739,11.849-3.1796,23.7057-6.3306,35.5728-9.442,.8372-.2195,.8725-.6477,.8711-1.3045-.0111-5.4489-.0283-10.898,.0141-16.3466,.0076-.97-.1936-1.1591-1.1519-.8959-5.0475,1.3866-10.1217,2.6759-15.1664,4.0722-1.0853,.3004-1.3088,.0596-1.2997-1.012,.0451-5.3256,.049-10.6522-.0056-15.9776-.0098-.9585,.2827-1.3384,1.1903-1.5695,4.6365-1.1807,9.2522-2.4428,13.8885-3.6243,.7286-.1857,.9905-.4438,.9857-1.219-.0345-5.5307-.0361-11.0617-.0005-16.5924,.0058-.8982-.2308-.9847-1.044-.7624-4.576,1.2508-9.1716,2.4293-13.751,3.6681-.9094,.246-1.2778,.1687-1.2667-.9336,.0534-5.3255,.0537-10.6521-.0025-15.9776-.0105-.9979,.2633-1.4127,1.2434-1.6613,5.0734-1.2864,10.122-2.6706,15.1936-3.9644,.9194-.2345,1.1992-.6287,1.1903-1.576-.0498-5.2846-.023-10.5699-.0247-15.8549q-.0005-1.436-1.4107-1.0624c-11.5845,3.0618-23.1659,6.1354-34.7596,9.162-.9974,.2604-1.3327,.6432-1.3298,1.7085,.0403,14.9947,.0274,29.9895,.0274,44.9844ZM204.9343,239.472c0,11.9244,.0116,23.8489-.0201,35.7733-.0028,1.0568,.1862,1.3197,1.2845,1.0179,5.6792-1.5607,11.3697-3.0842,17.0823-4.5167,1.2151-.3047,1.591-.7474,1.5886-2.0226-.0447-23.7259-.0231-47.4519-.0628-71.1778-.0019-1.1302,.355-1.535,1.4012-1.7984,4.323-1.0884,8.6195-2.2812,12.9368-3.393,.6632-.1708,.9518-.3992,.9481-1.1313-.0281-5.5728-.0337-11.1459,.0035-16.7186,.0059-.8812-.2681-.8927-.9901-.7009-16.129,4.2842-32.2626,8.5509-48.4005,12.8012-.6604,.1739-.9393,.4261-.9355,1.1513,.0286,5.5318,.0298,11.0638,.0009,16.5956-.0045,.8635,.1977,1.0383,1.056,.8026,4.1806-1.1477,8.3815-2.2211,12.5706-3.3381,1.8597-.4959,1.5324-.3203,1.5331,1.128,.0058,11.8425,.0033,23.685,.0033,35.5275Zm121.2795-146.7728c0,15.0783,.0039,30.1566-.0104,45.2349-.0008,.8357-.056,1.3296,1.1266,1.0109,11.9649-3.2249,23.9445-6.3958,35.9296-9.5453,.7836-.2059,1.0491-.5026,1.0442-1.3119-.0331-5.4493-.0361-10.899,.0005-16.3483,.0064-.9532-.1586-1.1804-1.1615-.9054-5.3642,1.4704-10.7538,2.848-16.1255,4.2917-.6798,.1827-1.0036,.1531-.9044-.6457,.0351-.2825,.0054-.5729,.0054-.8598,0-23.6828-.0068-47.3656,.0214-71.0483,.0013-1.1073-.1544-1.3826-1.3324-1.0553-5.7924,1.6092-11.6045,3.1502-17.431,4.6314-.97,.2466-1.184,.6362-1.1823,1.5621,.0278,14.9963,.0197,29.9926,.0197,44.989Zm-17.2586,109.7881c0,15.0777,.0065,30.1555-.0157,45.2332-.0014,.9421,.1205,1.2982,1.1985,1.0097,11.9309-3.1933,23.8715-6.3507,35.8171-9.4888,.7819-.2054,1.0187-.547,1.0137-1.3425-.0344-5.4081-.0471-10.8168,.0052-16.2246,.0112-1.1635-.3557-1.2385-1.3464-.968-5.0499,1.379-10.1162,2.6983-15.1782,4.0332-1.5905,.4195-1.5937,.412-1.5937-1.1981-.0002-23.6819,0-47.3637-.0007-71.0456q0-1.4619-1.3886-1.0979c-5.7346,1.5104-11.4627,3.0468-17.2098,4.5081-1.0101,.2568-1.3308,.6577-1.328,1.7169,.0389,14.9547,.0264,29.9096,.0265,44.8644Z"></path>
      <path class="cls-1" d="M453.1603,71.4316c2.2327-.1191,3.9903,.8224,5.5222,2.3078,2.104,2.0401,3.4268,4.5808,4.525,7.2406,2.6116,6.325,3.8981,12.985,4.9015,19.7139,.0991,.664-.1304,.9331-.773,1.1013-6.0533,1.5837-12.1022,3.1844-18.1416,4.8199-.8381,.227-.9284-.0934-1.0251-.7977-.7626-5.5545-1.6586-11.0852-3.415-16.4333-.6783-2.0651-1.4915-4.0757-2.7285-5.8817-1.7124-2.5001-3.1919-3.0439-6.0797-2.2717-2.4023,.6424-2.3311,.6483-2.5357,3.0868-.5192,6.1879-.0779,12.362,.143,18.5413,.0718,2.0072-.0301,4.0135-.4049,5.9924-.3684,1.945-1.1931,3.6079-2.8037,4.8843-4.7955,3.8003-5.8002,8.9704-5.1446,14.6907,.8505,7.4209,3.3052,14.4069,5.8741,21.3555,1.499,4.0548,2.5943,8.1919,2.742,12.5322,.1172,3.4447-.3332,6.7985-2.1073,9.8301-1.7419,2.9765-4.2188,4.9219-7.8295,4.8743-2.8669-.0378-5.0026-1.3602-6.2262-4.02-1.0307-2.2404-1.3309-4.6332-1.3973-7.0559-.1784-6.5083,.9122-12.8854,2.0821-19.2502,.946-5.1471,2.2276-10.2362,2.6936-15.4659,.2148-2.4104,.3166-4.8232-.1181-7.2251-.3553-1.9626-1.1355-3.7748-2.8011-4.888-3.6066-2.4104-4.5131-6.008-4.8373-9.9736-.3313-4.0526-.2033-8.0972-.0876-12.1529,.1379-4.8316,.0705-9.6689,.1002-14.5036,.107-17.4129,.2156-34.8258,.3293-52.2386,.0131-2.0072,.0762-4.0141,.0858-6.0213,.0029-.5955,.1018-.9567,.7936-1.1335,9.2716-2.3703,18.4511-5.1036,27.7916-7.1956,3.5114-.7865,7.1123-1.1912,10.7381-.7027,6.4657,.8711,10.0695,4.1425,11.6568,10.5568,.7517,3.0377,.9819,6.1364,1.1216,9.2466,.3602,8.0212,.0333,15.9718-2.6031,23.6591-1.3833,4.0333-3.2604,7.7764-6.612,10.5946-1.0399,.8745-2.2288,1.4985-3.4292,2.1833Zm-19.6259-21.6015c0,4.1389,.0172,8.2779-.0142,12.4166-.0064,.8425,.19,1.1041,1.0517,.8258,1.4391-.4647,2.924-.7885,4.3599-1.2617,3.7342-1.2308,5.8921-3.8556,6.5765-7.6937,.7246-4.0637,.5633-8.1598,.3483-12.2526-.0645-1.2277-.2495-2.4444-.6713-3.6087-.8403-2.3195-2.4503-3.3237-4.9255-3.1898-1.8229,.0986-3.5145,.7596-5.2787,1.0936-1.1111,.2104-1.511,.6668-1.4821,1.8693,.0945,3.9317,.0354,7.8672,.0355,11.8012Z"></path>
      <path class="cls-1" d="M221.1617,119.5346c0,.4482,0,.8965,0,1.3447,0,14.9568-.0128,29.9137,.027,44.8704,.0028,1.0589-.3197,1.4564-1.3223,1.7133-5.7453,1.4719-11.4718,3.0167-17.2054,4.5341-.4294,.1136-.8642,.2066-1.4006,.3339v-1.4189c0-29.9546,.0075-59.9092-.0295-89.8638-.0014-1.1101,.301-1.5396,1.3711-1.8109,5.7488-1.4573,11.4852-2.966,17.2038-4.537,1.057-.2904,1.4707-.1077,1.8651,.9266,5.1442,13.4901,10.3355,26.9623,15.5169,40.4382,.1694,.4405,.359,.8731,.7536,1.271v-1.2706c0-14.9568,.0121-29.9137-.0266-44.8704-.0026-1.0125,.2829-1.3893,1.2569-1.6388,5.8641-1.5023,11.7139-3.0611,17.5549-4.6511,.9278-.2525,1.1392-.1116,1.1384,.8762-.0265,30.1596-.0256,60.3192-.0013,90.4788,.0007,.8555-.24,1.1826-1.0752,1.3979-5.8616,1.5111-11.7158,3.0531-17.5504,4.6647-1.0221,.2823-1.3951,.0935-1.7701-.8887-5.2072-13.641-10.4592-27.2648-15.7005-40.8928-.1296-.3368-.2629-.6722-.3944-1.0083-.0705,.0005-.141,.0009-.2114,.0013Z"></path>
      <path class="cls-1" d="M265.7576,108.8327c0-15.035,.0019-30.07-.0063-45.105-.0004-.681-.0364-1.2133,.8673-1.4481,9.2609-2.4062,18.4931-4.9237,27.7687-7.2706,4.0299-1.0196,8.1676-1.3802,12.2994-.5422,5.1817,1.051,8.4948,4.3112,10.4602,9.0939,1.6696,4.063,2.3404,8.3465,2.6414,12.6807,.7785,11.2101,.6668,22.4355,.2089,33.6517-.2676,6.5554-1.1184,13.0412-3.6134,19.2046-3.5564,8.7853-10.1835,14.2502-18.8709,17.465-5.9183,2.1901-12.1135,3.4258-18.1765,5.1173-4.0959,1.1427-8.2348,2.1325-12.3259,3.2915-1.1595,.3285-1.2714-.0217-1.2698-1.0338,.0247-15.035,.017-30.07,.017-45.105Zm19.8956-5.312v3.1964c0,7.8271,.0022,15.6542-.0037,23.4813-.0005,.6867-.1378,1.3345,.9946,.9501,1.3908-.4721,2.826-.8508,4.2698-1.1221,3.4136-.6414,5.3008-2.8251,6.3625-5.9617,1.048-3.096,1.4573-6.3047,1.6092-9.5335,.4526-9.6228,.4632-19.2516,.0008-28.8743-.1472-3.0634-.4543-6.1399-1.7383-8.9913-1.0988-2.4402-2.6937-3.1606-5.2746-2.4965-1.7034,.4383-3.3956,.9251-5.1104,1.3119-.8643,.1949-1.1374,.5776-1.1334,1.4852,.0391,8.8514,.0235,17.703,.0235,26.5546Z"></path>
      <path class="cls-1" d="M130.4193,98.4334v1.3789c0,29.9495-.0087,59.899,.0321,89.8484,.0016,1.1828-.3603,1.5935-1.4586,1.8726-5.7469,1.4604-11.4792,2.9803-17.1988,4.5445-1.0516,.2876-1.3051,.109-1.3012-.9871,.0361-10.1196,.0065-20.2395,.0434-30.359,.0038-1.0521-.1593-1.3168-1.258-1.0033-3.5778,1.021-7.1784,1.9674-10.7912,2.8572-1.0067,.2479-1.3489,.6356-1.3438,1.7113,.0473,10.1195,.0126,20.2394,.0525,30.359,.0039,.9938-.2566,1.4119-1.2472,1.6643-5.746,1.464-11.472,3.0061-17.206,4.5173-1.4701,.3875-1.4729,.3802-1.4729-1.1964-.0002-21.6325-.0001-43.2649-.0001-64.8974,0-8.358,.0136-16.716-.02-25.0739-.0036-.8848,.2315-1.2658,1.1241-1.4953,5.9015-1.5175,11.7911-3.0824,17.6713-4.6811,.9552-.2597,1.1496-.0631,1.1472,.9079-.0313,12.8647-.0212,25.7295-.0204,38.5942q0,1.4207,1.3963,1.059c3.5609-.9317,7.1088-1.9178,10.6891-2.768,1.0895-.2587,1.2789-.7708,1.2766-1.7667-.0297-12.8237-.0071-25.6476-.0432-38.4712-.0029-1.0338,.2685-1.4679,1.3097-1.7352,5.8622-1.5051,11.7012-3.1001,17.5492-4.6605,.3124-.0834,.6342-.1312,1.0699-.2195Z"></path>
      <path class="cls-1" d="M133.7181,190.1619c.743-3.9733,1.4723-7.9024,2.2129-11.8293,2.5923-13.7442,5.1886-27.4876,7.7831-41.2313,2.511-13.3014,5.0216-26.6028,7.5323-39.9042,.1897-1.0047,.4654-2.0028,.5451-3.0162,.0867-1.1017,.5531-1.5714,1.6484-1.8583,8.3076-2.1766,16.5992-4.4148,24.8807-6.689,.9969-.2738,1.3046-.0489,1.5062,.9178,5.3341,25.58,10.6917,51.1551,16.0485,76.7304,.612,2.9218,1.2248,5.8438,1.8756,8.7571,.1898,.8495,.0819,1.294-.8953,1.5445-5.9028,1.5133-11.7907,3.0855-17.674,4.6732-.8445,.2279-1.1691,.149-1.3495-.8311-.5549-3.0148-1.2874-5.9965-1.8844-9.0043-.1701-.8569-.4406-1.0123-1.2954-.7793-5.8789,1.6026-11.7704,3.1599-17.6705,4.6829-.809,.2088-1.1086,.5935-1.2491,1.3841-.6226,3.5026-1.3133,6.993-1.9724,10.4892-.0965,.512-.2548,.8568-.8622,1.0149-6.2536,1.6269-12.4967,3.2939-18.7439,4.9456-.1044,.0276-.2225,.0035-.4359,.0035Zm32.0997-76.2802c-.0481,.0045-.0962,.009-.1444,.0135-1.3369,8.5115-2.6722,17.0233-4.0116,25.5344-.642,4.0797-1.2996,8.1571-1.9339,12.238-.2106,1.3549-.1844,1.3705,1.0809,1.0387,3.401-.892,6.7942-1.8145,10.2023-2.6787,.7329-.1859,.9596-.3954,.813-1.2321-1.4751-8.4173-2.8847-16.846-4.3221-25.2699-.5489-3.2168-1.1221-6.4294-1.6842-9.644Z"></path>
      <path class="cls-1" d="M15.0796,174.627c-.0488-6.5974,.0451-13.1918,.7481-19.7583,.661-6.1747,1.9112-12.2061,4.7582-17.8002,4.3898-8.6253,11.7055-13.5496,20.7137-16.3215,3.7728-1.161,7.6102-1.965,11.5768-1.9667,7.739-.0034,13.0792,3.6877,15.7916,10.9358,1.8459,4.9327,2.3878,10.0899,2.528,15.3098q.0864,3.217-3.01,4.0378c-5.2182,1.3838-10.4441,2.7403-15.6464,4.1814-.9938,.2753-1.1657,.0494-1.1914-.8917-.0748-2.7433-.2787-5.4776-1.0811-8.1305-.3697-1.2224-.8313-2.3978-1.5813-3.4397-1.3376-1.8581-3.1771-2.4927-5.3909-1.9089-2.3844,.6288-3.9766,2.1933-5.1081,4.2941-1.4603,2.7113-2.1407,5.6667-2.4502,8.6877-1.1766,11.483-1.0371,22.9834-.2086,34.4782,.1908,2.6474,.6767,5.282,1.9072,7.6978,1.4843,2.914,3.8673,3.7601,6.8765,2.4504,2.0997-.9138,3.4663-2.5645,4.4662-4.5505,1.5929-3.1637,2.1631-6.5843,2.4516-10.0686,.0574-.6936,.0639-1.3914,.1212-2.0849,.1608-1.9468,.1669-1.9449,2.0038-2.4311,5.5349-1.465,11.0765-2.906,16.5986-4.4179,1.128-.3088,1.383-.0525,1.3804,1.0865-.0115,5.1202,.098,10.2426-.4301,15.3466-.377,3.6442-1.1273,7.1914-2.9028,10.4518-1.2792,2.3491-3.0225,4.2675-5.2743,5.7185-.2409,.1553-.4837,.3077-.7266,.46-6.233,3.9085-7.9441,8.3481-5.9984,15.4711,.8729,3.1957,2.2682,6.2267,2.9415,9.4849,1.0029,4.8536-2.4454,8.8076-7.4589,8.5305-1.4923-.0825-2.382-.9749-2.7226-2.6779-.5025-2.5128,.0416-4.976,.3471-7.4462,.3163-2.5571,.7354-5.1016,1.0545-7.6584,.1575-1.2622,.0974-2.5332-.1568-3.791-.4341-2.1476-1.6086-3.0879-3.7862-3.0139-1.2488,.0425-2.4024,.4579-3.5621,.8652-3.7839,1.3291-7.6715,2.157-11.6886,1.7733-5.9202-.5655-9.6228-4.1074-11.9272-9.3414-1.9184-4.3574-2.7192-8.9895-3.2193-13.681-.7045-6.6085-.7845-13.2434-.743-19.8811Z"></path>
      <path class="cls-1" d="M187.8134,220.6045c0,1.7621-.0302,3.5249,.015,5.2857,.0178,.6944-.1958,.9906-.891,1.1721-5.9759,1.56-11.9419,3.1577-17.9066,4.7602-.7871,.2114-1.0962,.0452-1.0755-.8378,.0769-3.277,.085-6.5555-.137-9.8293-.1166-1.7185-.3156-3.4255-.9054-5.0577-1.0818-2.9939-3.0944-4.0539-6.1762-3.2713-6.7346,1.7102-9.7045,9.825-5.8288,15.9458,1.7259,2.7256,4.3148,4.4409,7.0715,5.9396,3.8894,2.1145,8.0444,3.6568,12.0384,5.5464,3.117,1.4747,6.1374,3.1119,8.7812,5.3612,4.9127,4.1797,6.8512,9.5544,6.2688,15.884-.7868,8.5506-4.8941,15.3148-11.6707,20.3623-8.0492,5.9953-17.1342,9.2211-27.2751,8.7488-5.5488-.2584-9.7868-2.9654-12.5675-7.8229-2.263-3.9531-3.1862-8.3073-3.6474-12.7694-.2439-2.36-.2694-4.7419-.4359-7.1109-.0511-.7277,.1364-1.091,.9012-1.2886,5.9802-1.5453,11.955-3.1122,17.9144-4.7355,.9338-.2544,1.0821-.0324,1.1259,.8413,.1627,3.2516,.6685,6.4344,2.3241,9.3188,1.6174,2.818,3.9577,4.1082,6.5084,3.6056,3.5464-.6989,6.6313-3.5052,7.0047-6.4195,.2328-1.8173-.5545-3.2741-1.7879-4.5154-1.6089-1.6192-3.5816-2.7154-5.5817-3.7609-4.4968-2.3507-9.1808-4.3394-13.5251-6.985-5.0394-3.0689-9.4872-6.7447-12.255-12.1047-4.8827-9.4557-3.1436-22.508,4.0781-30.8538,5.24-6.0557,12.055-9.4242,19.6236-11.4904,4.2913-1.1715,8.637-1.8734,13.111-1.3011,6.075,.7771,10.0761,4.1718,12.3406,9.7458,1.7031,4.1923,2.2117,8.6216,2.4502,13.0894,.0807,1.5116,.0128,3.0311,.0128,4.547,.0324,0,.0647,0,.097,0Z"></path>
      <path class="cls-1" d="M300.9695,175.922c-.0511,4.9567,.0725,10.9828-.347,16.9977-.4573,6.557-1.3434,13.0294-3.957,19.1402-2.6529,6.2026-6.9339,10.9623-12.8039,14.2758-.7429,.4193-1.1193,.9116-1.2954,1.7581-1.3117,6.3071-2.2782,12.6459-2.1615,19.1153,.0552,3.0593,.5604,6.004,1.6892,8.8671,1.4705,3.7299,2.8344,7.5052,3.3962,11.5064,.2921,2.0806,.3486,4.1728-.1548,6.228-.8172,3.3358-2.9244,5.6205-6.0025,7.0265-3.5001,1.5988-7.202,2.2018-11.0203,1.8953-4.542-.3646-7.4078-3.475-7.7784-8.1774-.3906-4.9552,.5562-9.7513,2.0922-14.3733,2.6864-8.0841,2.2315-16.2131,.9871-24.4108-.1656-1.0912-.133-2.3423-.6807-3.2118-.6321-1.0034-2.0255-.3787-3.0698-.5377-6.4334-.9793-10.2263-4.9086-12.3326-10.7882-1.5609-4.3572-2.1732-8.9009-2.4535-13.4826-.6812-11.1337-.3654-22.2837-.4522-33.4273-.0059-.762,.2413-1.055,.975-1.2447,5.9402-1.5361,11.8754-3.0927,17.7936-4.7109,.9962-.2724,1.1687-.0584,1.163,.8998-.0352,5.9829-.0439,11.9663-.0098,17.9493,.03,5.242,.0016,10.4892,.6558,15.7061,.2604,2.0767,.646,4.1267,1.5169,6.0476,1.3668,3.0147,3.7458,3.9925,6.8615,2.8566,2.3928-.8724,3.8956-2.6471,4.9101-4.8871,1.4579-3.219,1.9647-6.6633,2.2162-10.1414,.7635-10.5579,.363-21.1347,.4115-31.7036,.0054-1.1727,.3473-1.581,1.4573-1.8612,5.7113-1.4416,11.4044-2.9571,17.0876-4.5062,1.052-.2867,1.338-.0988,1.3274,1.0073-.0483,5.0401-.0212,10.081-.0212,16.1873Z"></path>
      <path class="cls-1" d="M352.9853,190.9413c0-15.0361,.0085-30.0723-.0203-45.1083-.0018-.9335,.2295-1.3154,1.1888-1.5666,11.6315-3.0448,23.2474-6.1496,34.868-9.2362,1.4303-.3799,1.4333-.3728,1.4335,1.1123,.0006,5.3261-.018,10.6524,.0191,15.9783,.0059,.8415-.2135,1.1907-1.0743,1.4107-5.1508,1.3159-10.2776,2.7256-15.4235,4.0612-.7907,.2052-1.1228,.4832-1.1147,1.3777,.0491,5.4076,.049,10.8162,.0035,16.2239-.0089,1.0634,.263,1.1974,1.2496,.9243,4.5324-1.2548,9.0917-2.4122,13.6292-3.6488,.9243-.2519,1.1933-.0829,1.185,.9166-.0445,5.4077-.0527,10.8163,.0081,16.2238,.0109,.9709-.3943,1.235-1.1913,1.4431-4.5899,1.1989-9.1635,2.4606-13.7603,3.6317-.8874,.226-1.1595,.5813-1.1523,1.4871,.0431,5.3668,.0477,10.7343-.0012,16.101-.0097,1.0644,.2746,1.1868,1.2386,.9236,5.0496-1.3789,10.1252-2.6629,15.1707-4.0559,1.0718-.2959,1.2125,.0097,1.2061,.9758-.0359,5.4079-.0353,10.8162,.0025,16.224,.0055,.7945-.2203,1.1329-.9978,1.3374-11.7856,3.0998-23.5682,6.2115-35.3354,9.3803-1.1748,.3164-1.1435-.155-1.1426-1.0084,.015-15.0361,.0108-30.0722,.0108-45.1084Z"></path>
      <path class="cls-1" d="M370.225,81.1257c0-14.9948,.0129-29.9897-.0274-44.9844-.0029-1.0653,.3324-1.4481,1.3298-1.7085,11.5937-3.0266,23.1751-6.1001,34.7596-9.162q1.407-.3719,1.4107,1.0624c.0017,5.2851-.0252,10.5704,.0247,15.8549,.0089,.9473-.2709,1.3415-1.1903,1.576-5.0716,1.2938-10.1202,2.678-15.1936,3.9644-.9801,.2485-1.254,.6633-1.2434,1.6613,.0562,5.3254,.0559,10.6521,.0025,15.9776-.011,1.1023,.3574,1.1797,1.2667,.9336,4.5793-1.2388,9.175-2.4173,13.751-3.6681,.8132-.2223,1.0498-.1358,1.044,.7624-.0356,5.5306-.034,11.0617,.0005,16.5924,.0048,.7752-.257,1.0334-.9857,1.219-4.6363,1.1815-9.252,2.4435-13.8885,3.6243-.9076,.2311-1.2002,.611-1.1903,1.5695,.0547,5.3255,.0508,10.652,.0056,15.9776-.0091,1.0716,.2144,1.3124,1.2997,1.012,5.0447-1.3964,10.1189-2.6856,15.1664-4.0722,.9583-.2632,1.1594-.0741,1.1519,.8959-.0424,5.4486-.0253,10.8977-.0141,16.3466,.0014,.6568-.0339,1.085-.8711,1.3045-11.867,3.1114-23.7238,6.2624-35.5728,9.442-1.2074,.324-1.0379-.3716-1.0378-1.0739,.0026-15.0358,.002-30.0716,.002-45.1073Z"></path>
      <path class="cls-1" d="M204.9343,239.472c0-11.8425,.0025-23.685-.0033-35.5275-.0007-1.4483,.3266-1.6239-1.5331-1.128-4.1891,1.117-8.39,2.1905-12.5706,3.3381-.8584,.2357-1.0606,.0609-1.056-.8026,.0289-5.5318,.0277-11.0638-.0009-16.5956-.0038-.7252,.2752-.9774,.9355-1.1513,16.1379-4.2504,32.2716-8.517,48.4005-12.8012,.722-.1918,.996-.1803,.9901,.7009-.0371,5.5727-.0316,11.1458-.0035,16.7186,.0037,.7321-.2848,.9605-.9481,1.1313-4.3173,1.1118-8.6138,2.3046-12.9368,3.393-1.0462,.2634-1.4031,.6682-1.4012,1.7984,.0396,23.7259,.018,47.4519,.0628,71.1778,.0024,1.2752-.3735,1.7179-1.5886,2.0226-5.7126,1.4325-11.4031,2.956-17.0823,4.5167-1.0983,.3018-1.2873,.0389-1.2845-1.0179,.0317-11.9244,.0201-23.8488,.02-35.7733Z"></path>
      <path class="cls-1" d="M326.2138,92.6992c0-14.9963,.0081-29.9927-.0197-44.989-.0017-.9259,.2123-1.3155,1.1823-1.5621,5.8265-1.4812,11.6386-3.0222,17.431-4.6314,1.178-.3272,1.3337-.052,1.3324,1.0553-.0283,23.6828-.0214,47.3656-.0214,71.0483,0,.2868,.0296,.5773-.0054,.8598-.0992,.7988,.2246,.8284,.9044,.6457,5.3717-1.4438,10.7612-2.8213,16.1255-4.2917,1.0029-.2749,1.1679-.0478,1.1615,.9054-.0366,5.4493-.0337,10.899-.0005,16.3483,.005,.8093-.2606,1.106-1.0442,1.3119-11.9851,3.1494-23.9646,6.3203-35.9296,9.5453-1.1826,.3187-1.1274-.1752-1.1266-1.0109,.0143-15.0783,.0104-30.1566,.0104-45.2349Z"></path>
      <path class="cls-1" d="M308.9552,202.4873c0-14.9548,.0124-29.9097-.0264-44.8644-.0028-1.0593,.3179-1.4601,1.328-1.7169,5.7471-1.4613,11.4751-2.9977,17.2098-4.5081q1.3849-.3648,1.3886,1.0979c.0007,23.6819,.0005,47.3637,.0007,71.0456,0,1.6101,.0031,1.6176,1.5937,1.1981,5.062-1.3349,10.1282-2.6542,15.1782-4.0332,.9907-.2705,1.3576-.1955,1.3464,.968-.0523,5.4078-.0396,10.8165-.0052,16.2246,.005,.7955-.2318,1.1371-1.0137,1.3425-11.9456,3.1381-23.8862,6.2955-35.8171,9.4888-1.0779,.2885-1.1999-.0677-1.1985-1.0097,.0222-15.0777,.0157-30.1554,.0157-45.2332Z"></path>
      <path class="cls-2" d="M433.5343,49.8301c0-3.934,.059-7.8694-.0355-11.8012-.0289-1.2025,.371-1.6589,1.4821-1.8693,1.7642-.334,3.4558-.9951,5.2787-1.0936,2.4753-.1339,4.0852,.8703,4.9255,3.1898,.4218,1.1643,.6068,2.381,.6713,3.6087,.215,4.0927,.3763,8.1889-.3483,12.2526-.6844,3.8381-2.8423,6.4629-6.5765,7.6937-1.4359,.4733-2.9208,.797-4.3599,1.2617-.8617,.2783-1.0581,.0167-1.0517-.8258,.0314-4.1387,.0142-8.2777,.0142-12.4166Z"></path>
      <path class="cls-2" d="M285.6532,103.5207c0-8.8516,.0156-17.7032-.0235-26.5546-.004-.9076,.2691-1.2903,1.1334-1.4852,1.7149-.3868,3.407-.8736,5.1104-1.3119,2.5809-.664,4.1758,.0564,5.2746,2.4965,1.284,2.8513,1.5911,5.9279,1.7383,8.9913,.4624,9.6227,.4518,19.2515-.0008,28.8743-.1519,3.2289-.5612,6.4375-1.6092,9.5335-1.0618,3.1366-2.9489,5.3204-6.3625,5.9617-1.4438,.2713-2.879,.6499-4.2698,1.1221-1.1324,.3844-.9952-.2633-.9946-.9501,.0059-7.8271,.0037-15.6542,.0037-23.4813v-3.1964Z"></path>
      <path class="cls-2" d="M165.8178,113.8817c.5621,3.2145,1.1353,6.4272,1.6842,9.644,1.4374,8.4239,2.847,16.8526,4.3221,25.2699,.1466,.8367-.0801,1.0462-.813,1.2321-3.408,.8642-6.8012,1.7867-10.2023,2.6787-1.2653,.3318-1.2915,.3162-1.0809-1.0387,.6343-4.0809,1.2919-8.1583,1.9339-12.238,1.3394-8.5111,2.6747-17.0229,4.0116-25.5344,.0481-.0045,.0962-.009,.1444-.0135Z"></path>
    </g>
  </g>
</svg>
