<?xml version="1.0" encoding="UTF-8"?>
<svg xmlns="http://www.w3.org/2000/svg" id="Layer_2" width="324.3688" height="269.7783" viewBox="0 0 324.3688 269.7783">
  <defs>
    <style>.cls-1{fill:#fbf0f4;}.cls-2{fill:#e43d4c;}</style>
  </defs>
  <g id="Layer_1-2">
    <g>
      <path class="cls-2" d="M0,86.0582v-18.1939c.3666-.2182,.2201-.5842,.2329-.8868,.2644-6.2284,.9119-12.4091,2.2159-18.514C6.8582,27.8184,18.4518,12.9857,38.0715,4.8019c12.1904-5.0849,24.471-5.5263,36.6672,.1404,.5465,.2539,.8587,.1708,1.2806-.2128C80.1849,.9415,85.1256-.3577,90.6637,.0819c6.1676,.4896,12.3119,1.1336,18.4222,2.1187,3.6564,.5895,7.2745,1.2391,10.3661,3.4772,.3862,.2796,.7598,.1944,1.1682,.1255,2.079-.3508,4.169-.4,6.2296,.0599,7.03,1.5689,13.913,3.6967,20.876,5.5157,3.4668,.9057,6.4102,3.307,10.1631,3.3292,.8734,.0052,1.7577,.364,2.6144,.6323,6.7517,2.1146,13.4831,4.295,20.2494,6.3614,8.5792,2.6201,17.1327,5.2837,24.8193,10.086,.4439,.2773,.7541,.1194,1.1195-.0941,3.6015-2.1033,7.5012-2.6332,11.6064-2.3367,7.0277,.5076,14.0454,1.1068,21.0493,1.8769,3.8737,.4259,7.6548,1.2091,10.7615,3.7012,1.2643,1.0142,2.0808,.8434,3.3865,.1436,11.7151-6.2783,24.2046-9.4305,37.4937-8.0035,14.7134,1.5799,24.5846,9.6974,29.6899,23.5562,2.7586,7.4886,3.2241,15.3334,3.4036,23.2193,.1533,6.7352-2.1759,12.2406-7.7215,16.2329-.4918,.3541-.4895,.5893-.1345,1.0553,4.9043,6.439,7.4989,13.7207,8.0096,21.7899,.556,8.7844-.5655,17.2656-4.648,25.156-1.0835,2.0941-1.6147,4.0724-1.5314,6.4659,.2051,5.8931,.0463,11.7983,.0745,17.6984,.0197,4.1382-1.023,7.9336-3.4807,11.2935-.329,.4497-.4105,.7947-.1408,1.3175,1.4013,2.7158,1.9056,5.6363,1.901,8.669-.0091,5.9412,.0022,11.8825-.0053,17.8237-.0031,2.4782-.3495,4.9041-1.3596,7.1855-.2876,.6495-.1993,1.1039,.1751,1.675,1.6463,2.5118,2.6717,5.2726,2.7698,8.2817,.2284,7.0031,.2548,14.0148,.0225,21.0135-.2311,6.9595-3.6913,12.089-9.8117,15.3683-9.8244,5.2637-20.1951,9.0615-31.0218,11.7254-7.7054,1.8959-15.5677,2.383-23.4043,3.1759-2.2162,0-4.4324,0-6.6487,0-1.7154-.1261-3.4356-.2063-5.1455-.3856-11.9852-1.2566-23.7895-3.5412-35.5178-6.2624-5.0916-1.1813-9.0171-3.9557-11.6994-8.4417-.376-.6289-.5952-.6453-1.1651-.2152-5.0378,3.8025-10.6095,4.6982-16.6111,2.8583-6.8806-2.1093-13.7492-4.2587-20.6101-6.4316-7.8723-2.4931-12.7626-9.1755-12.7857-17.4241-.0156-5.5714-.1211-11.1466,.0517-16.7127,.0739-2.3814-.3895-4.177-2.3493-5.7016-1.4787-1.1503-2.6299-2.7215-4.0816-4.2704,0,.6225,.0002,1.0206,0,1.4188-.0021,4.6702,.05,9.3412-.0171,14.0104-.1596,11.1053-10.6066,19.4268-21.4537,17.0983-6.3647-1.3664-12.75-2.5966-19.2215-3.3426-4.0234-.4638-7.6087-1.9433-10.5323-4.7847-.7612-.7398-1.1117-.7586-1.8808,.0141-9.2299,9.2736-20.5925,13.9849-33.4794,14.8248-12.6265,.8229-23.5942-3.592-32.8423-12.0805-9.4103-8.6375-14.7872-19.4428-16.3596-32.1238-.9766-7.8759,1.8103-14.0376,8.5077-18.3447,.8249-.5305,.6515-.8384,.1874-1.4732-4.438-6.0701-7.0143-12.8732-7.3594-20.3747-.5998-13.0376,2.5567-24.9952,10.8665-35.3205,.5261-.6536,.354-.9965-.1253-1.523-2.3538-2.586-4.3214-5.4459-5.9556-8.5396C3.2273,108.0723,1.36,99.2366,.4663,90.1288c-.1332-1.3574,.0111-2.7517-.4663-4.0706Zm144.7995-9.4598c0-15.366-.0086-30.7321,.0213-46.098,.0018-.9295-.2332-1.3401-1.1683-1.6104-6.1316-1.7722-12.2678-3.5241-18.4658-5.0526q-1.6092-.3968-1.6104,1.3249c0,12.9894,.0005,25.9788-.001,38.9682-.0002,1.4263-.001,1.4041-1.4231,1.0976-3.7997-.8189-7.5915-1.685-11.4136-2.3836-1.2153-.2221-1.4576-.6947-1.4542-1.8296,.039-13.1122,.0223-26.2246,.0317-39.3369,.0005-.7289,.0309-1.2962-.963-1.462-6.3067-1.0525-12.644-1.8144-19.0223-2.2648-1.0437-.0737-1.2853,.241-1.2844,1.2585,.0269,30.773,.0273,61.546-.0009,92.319-.001,1.0456,.3488,1.2802,1.3199,1.331,6.1405,.3213,12.2376,1.0495,18.2919,2.126,1.652,.2938,1.6518,.3043,1.6519-1.4288,.0006-10.244,.0127-20.4881-.0178-30.732-.0032-1.0655,.244-1.2946,1.3292-1.0762,3.8917,.7833,7.7727,1.6093,11.6491,2.4645,1.0756,.2373,1.3322,.6753,1.3286,1.7091-.0361,10.3668-.0111,20.7338-.0402,31.1007-.0026,.9325,.2305,1.3286,1.2073,1.5637,6.2453,1.5031,12.4308,3.2339,18.5843,5.0782,1.4445,.4329,1.4495,.4236,1.4495-1.0915,.0006-15.3251,.0003-30.6501,.0003-45.9751Zm52.3387,28.453c5.0799,.1953,7.9409-2.7466,9.9613-6.8847,1.4146-2.8973,2.1962-5.9912,2.6429-9.162,.9894-7.0232,.8168-14.0634-.0383-21.0763-.9497-7.788-4.3608-14.2523-10.758-18.9983-3.8822-2.8802-8.1341-5.099-12.6992-6.5984-10.1808-3.3438-20.4202-6.5088-30.6264-9.7757-1.1852-.3794-.9486,.3793-.9487,.9977-.0019,30.8121,.0029,61.6242-.0239,92.4363-.0008,.915,.3063,1.2462,1.144,1.5045,6.2929,1.9406,12.5768,3.9113,18.8425,5.9378,1.0998,.3557,1.2476,.0895,1.2432-.9593-.0377-8.8911-.0216-17.7824-.0213-26.6737,0-.3278,.0076-.6556,.003-.9833-.0054-.3908,.1596-.4778,.5356-.3862,2.9208,.7116,5.608,1.721,7.2993,4.5012,1.6104,2.6472,2.7786,5.465,3.6882,8.4036,1.967,6.3545,3.1225,12.8778,3.928,19.4653,.1456,1.1905,.5077,1.8083,1.7855,2.1352,5.7074,1.4598,11.3927,3.0032,17.1556,4.24,2.4883,.5341,2.5414,.5448,2.1782-1.9771-1.1223-7.7924-2.6967-15.4849-5.6324-22.8246-2.084-5.2103-4.5389-10.1939-9.6588-13.3221ZM57.3133,158.047c0,1.5981,.0518,3.1985-.02,4.7934-.0413,.9167,.33,1.0028,1.0806,.8594,1.7686-.3379,3.5418-.6588,5.3218-.9296,4.6224-.7032,9.2768-1.0627,13.9484-1.2031,.5072-.0152,.842-.0598,.8407-.7192-.0149-7.4779-.3631-14.9124-2.9378-22.044-3.5205-9.7515-10.4327-14.5435-20.7748-14.3667-9.1712,.1567-17.074,3.6383-23.8646,9.6131-6.6268,5.8307-9.6708,13.4374-10.2552,22.1332-.3611,5.3742,.4261,10.4534,3.6451,14.9536,2.3082,3.2269,5.3337,5.638,8.675,7.6944,4.5833,2.8209,9.5737,4.8108,14.4359,7.0635,2.6759,1.2398,5.3251,2.5293,7.6579,4.3784,2.7134,2.1507,3.8363,4.8505,3.2275,8.3292-.7816,4.4665-3.5153,6.6982-7.9953,6.2335-3.6776-.3814-5.9794-2.6147-7.4644-5.826-.9944-2.1504-1.3812-4.4555-1.4627-6.8-.0318-.9141-.2791-.9595-1.0711-.7035-1.9839,.6411-3.9934,1.2097-6.0098,1.7427-4.7877,1.2655-9.594,2.4525-13.9869,4.8709-.9302,.5121-1.2589,1.0529-1.0931,2.1133,.801,5.1228,2.3461,9.9897,5.3121,14.265,6.7468,9.7252,15.711,15.0742,27.9137,13.3748,6.4014-.8915,12.2586-3.27,17.1915-7.5618,6.4714-5.6303,9.8097-12.8573,10.6218-21.3247,.6811-7.1011-1.3194-13.2665-6.3882-18.3708-2.9458-2.9664-6.3913-5.2477-10.0389-7.2234-4.2458-2.2997-8.5658-4.4622-12.8126-6.7601-2.4547-1.3282-4.7319-2.9225-6.6659-4.9803-5.0792-5.4044-2.3991-13.8726,2.9803-16.6192,.4729-.2415,.9524-.4808,1.4509-.6595,3.9852-1.4286,6.6744-.0469,7.7547,4.0278,.8383,3.1618,.8051,6.4076,.7833,9.6456Zm227.6775-72.5912c.1733,.013,.2627,.0459,.3315,.0212,7.111-2.5528,13.8689-5.8408,20.3242-9.7599,.3507-.2129,.512-.4562,.5111-.8801-.0116-5.8282-.2289-11.6362-1.9928-17.2557-1.9138-6.0969-5.6055-10.4831-11.9979-12.1846-2.512-.6686-5.0747-.8985-7.6678-.7907-5.4426,.2263-10.7176,1.347-15.8359,3.1566-11.5913,4.0983-19.329,11.4897-20.4249,24.3745-.8772,10.3131,2.1821,19.0554,10.4497,25.6773,4.1877,3.3542,8.9184,5.7796,13.6836,8.1563,2.8197,1.4063,5.6622,2.7739,8.3013,4.5098,1.7897,1.1772,3.4532,2.5004,4.6088,4.3529,2.1823,3.4987,1.4464,7.1126-1.9269,9.4552-1.0146,.7046-2.1224,1.2241-3.2852,1.6378-3.4274,1.2193-5.8398,.4005-7.7621-2.695-.4292-.6912-.7869-1.4375-1.0926-2.1928-1.1502-2.8418-1.6539-5.8242-1.6886-8.8715-.0115-1.0128-.3528-1.1467-1.2256-.9789-6.2487,1.2011-12.5628,1.7903-18.9208,1.8923-.8337,.0134-1.1267,.2008-1.1006,1.0882,.1956,6.6366,1.7571,12.9012,5.2859,18.5544,5.432,8.702,13.1908,13.3464,23.6125,12.5239,6.902-.5447,13.4-2.6483,19.1346-6.6868,4.6989-3.3091,7.7863-7.7857,9.2535-13.3414,.9926-3.7586,1.1505-7.5872,.8395-11.4568-.5641-7.0195-3.6056-12.5686-9.5607-16.4426-2.8664-1.8647-6.0034-3.1567-9.1754-4.3798-3.1285-1.2064-6.3048-2.3006-9.2563-3.9256-3.3848-1.8636-6.0407-4.3627-7.0756-8.2309-.6317-2.3614-.7139-4.7576-.3818-7.1867,.5646-4.1303,3.0677-6.7503,7.19-7.4248,2.9466-.4821,4.8094,.6189,5.8082,3.4451,.1359,.3846,.2379,.7829,.3303,1.1807,.6064,2.6118,.6842,5.2724,.7035,7.9358,.0162,2.243,.0033,4.4862,.0033,6.7226Zm-244.6709-11.3717c-.0178-7.8336,.1452-13.4415,.9971-19.004,.5784-3.7766,1.4261-7.4818,3.4185-10.8141,1.3459-2.2512,3.1452-3.9714,5.7264-4.738,2.2678-.6735,4.2362-.054,5.6905,1.8012,.8983,1.146,1.4471,2.4677,1.8533,3.8485,.8035,2.7318,1.0805,5.5407,1.1096,8.3734,.0085,.8272,.1852,1.1832,1.1095,1.008,6.335-1.2006,12.7381-1.7294,19.1787-1.8289,.7237-.0112,1.0101-.1974,.9895-.977-.1673-6.3362-.8327-12.5896-3.1918-18.538-2.84-7.161-7.5357-12.32-15.4209-13.889-3.3747-.6715-6.7996-.6847-10.1406,.0274-9.8603,2.1018-17.983,7.107-24.0977,15.1532-5.2047,6.8487-7.5041,14.8552-8.5604,23.2342-1.3671,10.8435-1.5481,21.7323-.5083,32.6169,.5315,5.5643,1.7541,10.9863,4.1479,16.0881,4.32,9.2067,11.4947,13.53,21.6011,12.5507,8.5357-.8271,16.4125-3.7385,23.4151-8.7642,4.4362-3.1838,7.5926-7.408,9.6087-12.4849,2.4625-6.2008,2.9596-12.7139,3.1148-19.2877,.0219-.9289-.5442-.8196-1.1231-.8159-6.2401,.0401-12.4217,.6756-18.5805,1.6675-1.3211,.2128-1.6232,.6905-1.6232,1.9408,0,3.6268-.5254,7.1881-1.9739,10.5503-1.3218,3.0683-3.36,5.4071-6.7242,6.3299-2.9504,.8093-5.1115-.0267-6.7034-2.6481-1.0994-1.8103-1.6672-3.8207-2.0682-5.8748-1.1443-5.8612-1.2238-11.8007-1.2442-15.5254Zm101.6105,75.8976h.0127c0,1.9257-.0245,3.8517,.0043,5.7769,.1174,7.8648,.2625,15.7266,1.9074,23.4696,2.2247,10.4728,7.4183,18.8922,16.8431,24.3778,.7096,.413,.767,.9357,.7661,1.6237-.0122,9.0957,.0028,18.1914-.0247,27.287-.0027,.9103,.2295,1.3332,1.1758,1.6199,6.2632,1.8973,12.5081,3.8561,18.7392,5.8564,1.101,.3534,1.3646,.1991,1.3585-.9924-.0468-9.0545-.012-18.1093-.0463-27.1639-.0035-.9107,.2204-1.1832,1.151-1.164,2.4787,.0511,4.8944-.3514,7.1764-1.3793,4.3076-1.9402,6.6853-5.5105,8.1892-9.7851,1.9818-5.6329,2.4429-11.5169,2.6639-17.414,.376-10.0333,.1683-20.0737,.2277-30.111,.0047-.7994-.2367-1.1197-1.0343-1.3224-6.4234-1.6325-12.8001-3.4379-19.135-5.3847-.9745-.2995-1.1654-.1111-1.1574,.8685,.0418,5.1211,.0317,10.2427,.0163,15.3641-.0181,6.0204,.1551,12.0478-.5149,18.0488-.2912,2.6085-.6703,5.2076-1.9396,7.5621-1.2989,2.4094-3.233,3.2109-5.8721,2.5145-2.0124-.531-3.6502-1.6238-4.9328-3.2525-1.2091-1.5353-1.9726-3.2928-2.5205-5.1519-1.2619-4.2819-1.6278-8.6942-1.6828-13.1177-.1131-9.0944-.11-18.1905-.1095-27.2859,0-.9968-.2268-1.4897-1.2641-1.8008-6.1901-1.8562-12.3533-3.8018-18.5282-5.709-1.4616-.4515-1.4685-.4367-1.4688,1.0548-.0011,5.2034-.0004,10.4069-.0004,15.6103Zm156.594,32.9044c-.5782,.2751-1.0144,.4735-1.4427,.6879-4.6527,2.3294-9.4548,4.2946-14.372,5.9952-1.0175,.3519-1.2302,.1449-1.2227-.8878,.04-5.5301,.0442-11.061-.0059-16.5909-.0084-.9321,.352-1.2341,1.1633-1.5001,5.6866-1.8645,11.1617-4.2316,16.4839-6.9708,.9152-.471,1.165-1.0157,1.1573-1.9841-.0427-5.4072-.0205-10.8149-.0205-16.2224v-1.2196c-.6315,.0466-1.0167,.3695-1.4394,.5898-11.8083,6.1526-24.3099,10.0686-37.5448,11.586-.995,.1141-1.0502,.5955-1.0499,1.3757,.0118,30.7656,.0179,61.5312-.019,92.2967-.0015,1.2136,.4243,1.3215,1.4259,1.1941,13.2486-1.6851,25.7931-5.5901,37.6129-11.8206,.7312-.3854,1.0452-.8041,1.0378-1.6768-.0465-5.53-.0504-11.0609-.0023-16.5909,.0103-1.1877-.2928-1.1444-1.1917-.6679-5.2511,2.7837-10.7118,5.0827-16.3418,6.9923-1.0347,.3509-1.3427,.2195-1.333-.9284,.0463-5.4481,.0488-10.8971-.005-16.3451-.0099-1.0026,.312-1.4139,1.2514-1.7141,5.1529-1.6467,10.1101-3.7779,14.954-6.1827,.6699-.3326,.932-.7158,.9245-1.4896-.0424-4.342-.0204-8.6846-.0204-13.027v-4.8987Zm-200.3998-2.7781c0,12.1248,.0289,24.2497-.0402,36.3741-.0078,1.3637,.4431,1.6898,1.6599,1.8249,5.9831,.6647,11.8947,1.7747,17.7806,3.0235,1.8017,.3823,1.7995,.3945,1.7995-1.4825,.0001-24.1267,0-48.2534,.0004-72.3801q0-1.5388,1.5346-1.1964c4.4688,1.0097,8.9033,2.1546,13.3154,3.3876,1.3994,.391,1.4051,.3857,1.4056-1.0165,.0018-5.448-.018-10.896,.0188-16.3438,.0062-.9228-.2339-1.3245-1.1948-1.5864-8.1735-2.228-16.3982-4.2302-24.7356-5.7411-8.7555-1.5866-17.5763-2.5797-26.4815-2.7564-.7559-.015-1.206,.0358-1.1991,1.0078,.0406,5.6525,.0343,11.3055,.0038,16.9581-.0044,.8238,.2987,1.0203,1.0658,1.0374,4.587,.1026,9.1629,.3766,13.732,.8305,1.1693,.1162,1.3572,.5272,1.3546,1.5619-.031,12.1657-.0199,24.3315-.0199,36.4972Zm147.3859-22.4557c-.58-.1113-.9768-.2062-1.3791-.2618-7.5432-1.0421-15.0888-2.0672-22.6281-3.1372-.7536-.107-1.0862,.1015-1.3983,.7643-2.0918,4.4419-4.2166,8.8683-6.3523,13.2893-.2862,.5925-.3149,1.1128-.1201,1.753,1.4641,4.8131,2.8626,9.6461,4.3388,14.4553,.2628,.8561,.175,1.5318-.2233,2.3145-1.9859,3.9025-3.913,7.8348-5.8701,11.752-.242,.4843-.3934,.9338-.2987,1.5133,.746,4.5642,1.432,9.1382,2.19,13.7003,.1158,.697,.0257,1.2518-.2969,1.8598-2.1674,4.085-4.3065,8.1851-6.4573,12.2789-.247,.4701-.4419,.8931-.3118,1.4947,1.0987,5.0784,2.1711,10.1629,3.1878,15.2582,.1609,.8064,.557,1.037,1.265,1.1994,6.7828,1.5551,13.5987,2.949,20.4647,4.0765,6.4676,1.0621,12.9552,1.9752,19.5323,2.0431,.9745,.0101,1.3742-.1823,1.3236-1.2617-.2436-5.1971-.4317-10.397-.5955-15.5973-.0244-.7737-.3808-.8315-.9915-.8335-6.7295-.0218-13.4097-.7442-20.0973-1.3905-1.2708-.1228-1.1092-.4865-.6423-1.3491,2.3375-4.3191,4.6197-8.6681,6.9436-12.9946,.3065-.5706,.4002-1.0786,.2589-1.7371-.9523-4.4402-1.8273-8.897-2.7831-13.3365-.1855-.8615-.073-1.5434,.3727-2.2991,2.3913-4.0547,4.7154-8.1489,7.1097-12.2018,.3998-.6768,.4363-1.2239,.1438-1.9362-1.8494-4.5031-3.6317-9.034-5.5084-13.5255-.3609-.8637-.296-1.4693,.1991-2.2414,2.8706-4.4755,5.6863-8.9861,8.6242-13.6493Zm2.1153-9.6191c.0895-.5938-.2091-.9665-.388-1.3681-1.7813-3.9991-3.5454-8.0062-5.3821-11.9799-.4225-.914-.4818-1.7667-.3088-2.721,.5766-3.1809,1.0923-6.3729,1.6821-9.5513,.1288-.6942,.0089-1.2629-.293-1.8723-1.5802-3.1898-3.1159-6.4017-4.7123-9.5833-.3218-.6414-.3455-1.18-.1031-1.8458,1.6236-4.4583,3.2047-8.9321,4.8165-13.3947,.2309-.6393,.2676-1.2239,.0854-1.9021-1.2312-4.5825-2.4016-9.1813-3.6236-13.7663-.1882-.7062-.1667-1.3371,.0522-2.0326,1.5469-4.9162,3.0371-9.8505,4.6059-14.7596,.2717-.8502,.1866-1.5401-.1507-2.3282-1.5754-3.6804-3.3789-7.274-4.4169-11.1638-.1355-.5079-.4469-.519-.8004-.562-7.321-.8901-14.6656-1.5172-22.0242-1.9965-.8672-.0565-1.0349,.1408-.7158,.977,1.7936,4.7004,3.5279,9.4235,5.3192,14.1249,.2963,.7775,.3009,1.457,.0144,2.2386-1.464,3.9938-2.865,8.0106-4.3273,12.005-.2701,.7377-.2735,1.3761,.0003,2.1163,1.6884,4.5652,3.3194,9.1516,5.0065,13.7173,.2744,.7425,.265,1.3531-.0794,2.0828-1.8158,3.848-3.5538,7.7328-5.3714,11.58-.3502,.7413-.3401,1.331-.0155,2.0724,1.8048,4.1221,3.5424,8.2737,5.3386,12.3997,.2964,.6808,.3371,1.3011,.1526,2.0064-.9213,3.5222-1.7954,7.0569-2.7311,10.5753-.1697,.6381-.1278,1.1819,.1088,1.7782,1.1616,2.9274,2.3195,5.8566,3.4282,8.8042,.2809,.747,.6761,1.0521,1.4904,1.1576,5.075,.6571,10.1404,1.389,15.2098,2.0894,2.7088,.3742,5.4194,.7351,8.1326,1.1024Z"></path>
      <path class="cls-1" d="M144.7995,76.5984c0,15.3251,.0002,30.6501-.0003,45.9751,0,1.5151-.0051,1.5244-1.4495,1.0915-6.1535-1.8443-12.339-3.5751-18.5843-5.0782-.9768-.2351-1.21-.6312-1.2073-1.5637,.0292-10.3669,.0041-20.7339,.0402-31.1007,.0036-1.0338-.253-1.4718-1.3286-1.7091-3.8764-.8552-7.7574-1.6812-11.6491-2.4645-1.0852-.2184-1.3324,.0107-1.3292,1.0762,.0305,10.2439,.0184,20.488,.0178,30.732-.0001,1.733,.0002,1.7225-1.6519,1.4288-6.0543-1.0766-12.1515-1.8047-18.2919-2.126-.9711-.0508-1.3209-.2855-1.3199-1.331,.0283-30.773,.0279-61.546,.0009-92.319-.0009-1.0175,.2408-1.3322,1.2844-1.2585,6.3783,.4503,12.7157,1.2123,19.0223,2.2648,.9939,.1659,.9636,.7331,.963,1.462-.0094,13.1123,.0074,26.2247-.0317,39.3369-.0034,1.135,.2389,1.6075,1.4542,1.8296,3.8221,.6987,7.6139,1.5647,11.4136,2.3836,1.4221,.3065,1.4229,.3287,1.4231-1.0976,.0015-12.9894,.0009-25.9788,.001-38.9682q0-1.718,1.6104-1.3249c6.198,1.5285,12.3342,3.2804,18.4658,5.0526,.9351,.2703,1.1701,.6809,1.1683,1.6104-.0299,15.366-.0213,30.732-.0213,46.098Z"></path>
      <path class="cls-1" d="M197.1381,105.0515c5.1199,3.1282,7.5749,8.1118,9.6588,13.3221,2.9357,7.3398,4.5101,15.0322,5.6324,22.8246,.3632,2.5219,.3101,2.5111-2.1782,1.9771-5.7628-1.2369-11.4482-2.7802-17.1556-4.24-1.2778-.3268-1.6399-.9447-1.7855-2.1352-.8055-6.5875-1.961-13.1108-3.928-19.4653-.9096-2.9386-2.0778-5.7564-3.6882-8.4036-1.6914-2.7803-4.3786-3.7896-7.2993-4.5012-.376-.0916-.541-.0045-.5356,.3862,.0046,.3277-.003,.6555-.003,.9833-.0003,8.8913-.0164,17.7826,.0213,26.6737,.0044,1.0487-.1433,1.315-1.2432,.9593-6.2656-2.0265-12.5496-3.9972-18.8425-5.9378-.8377-.2583-1.1448-.5896-1.144-1.5045,.0268-30.8121,.022-61.6242,.0239-92.4363,0-.6183-.2366-1.377,.9487-.9977,10.2062,3.2669,20.4457,6.4319,30.6264,9.7757,4.5651,1.4994,8.817,3.7182,12.6992,6.5984,6.3972,4.746,9.8083,11.2102,10.758,18.9983,.8552,7.0129,1.0277,14.0532,.0383,21.0763-.4467,3.1708-1.2283,6.2647-2.6429,9.162-2.0204,4.1381-4.8814,7.08-9.9613,6.8847Zm-8.0114-29.5169c-.0004-2.0887-.0162-4.1738-.2638-6.2551-.5656-4.7537-2.95-8.0666-7.5485-9.6423-1.4304-.4901-2.9101-.8438-4.3204-1.3824-1.0848-.4143-1.1871,.005-1.1792,.9411,.0359,4.2593,.0158,8.5191,.0158,12.7787,0,4.0958-.0003,8.1916,.0004,12.2873,0,.5196-.1043,1.0476,.644,1.2313,2.0621,.5061,4.0265,1.3652,6.1547,1.6467,3.2592,.4312,5.1862-.8399,5.962-4.0287,.6065-2.4927,.5352-5.0385,.5349-7.5766Z"></path>
      <path class="cls-1" d="M57.3133,158.047c.0219-3.238,.055-6.4838-.7833-9.6456-1.0803-4.0747-3.7695-5.4564-7.7547-4.0278-.4985,.1787-.978,.418-1.4509,.6595-5.3794,2.7466-8.0596,11.2148-2.9803,16.6192,1.9341,2.0578,4.2112,3.6521,6.6659,4.9803,4.2468,2.2978,8.5668,4.4604,12.8126,6.7601,3.6476,1.9756,7.0931,4.257,10.0389,7.2234,5.0688,5.1043,7.0693,11.2697,6.3882,18.3708-.8121,8.4674-4.1504,15.6943-10.6218,21.3247-4.933,4.2919-10.7901,6.6703-17.1915,7.5618-12.2027,1.6995-21.1669-3.6495-27.9137-13.3748-2.9659-4.2753-4.5111-9.1422-5.3121-14.265-.1658-1.0605,.1629-1.6013,1.0931-2.1133,4.3929-2.4183,9.1992-3.6053,13.9869-4.8709,2.0164-.533,4.0259-1.1016,6.0098-1.7427,.792-.2559,1.0393-.2106,1.0711,.7035,.0815,2.3445,.4683,4.6496,1.4627,6.8,1.485,3.2113,3.7868,5.4445,7.4644,5.826,4.4799,.4647,7.2137-1.7671,7.9953-6.2335,.6088-3.4787-.5142-6.1786-3.2275-8.3292-2.3328-1.8491-4.982-3.1386-7.6579-4.3784-4.8621-2.2527-9.8525-4.2426-14.4359-7.0635-3.3413-2.0565-6.3668-4.4675-8.675-7.6944-3.219-4.5002-4.0062-9.5794-3.6451-14.9536,.5843-8.6958,3.6284-16.3025,10.2552-22.1332,6.7906-5.9748,14.6934-9.4564,23.8646-9.6131,10.3421-.1767,17.2543,4.6152,20.7748,14.3667,2.5746,7.1316,2.9229,14.5661,2.9378,22.044,.0013,.6594-.3335,.7039-.8407,.7192-4.6716,.1404-9.326,.4999-13.9484,1.2031-1.78,.2708-3.5531,.5917-5.3218,.9296-.7506,.1434-1.1219,.0573-1.0806-.8594,.0718-1.5949,.02-3.1953,.02-4.7934Z"></path>
      <path class="cls-1" d="M284.9909,85.4558c0-2.2364,.0129-4.4796-.0033-6.7226-.0193-2.6634-.097-5.324-.7035-7.9358-.0923-.3978-.1944-.7961-.3303-1.1807-.9987-2.8262-2.8615-3.9272-5.8082-3.4451-4.1223,.6745-6.6254,3.2944-7.19,7.4248-.3321,2.4291-.2499,4.8253,.3818,7.1867,1.0349,3.8681,3.6907,6.3673,7.0756,8.2309,2.9516,1.625,6.1278,2.7192,9.2563,3.9256,3.172,1.2232,6.3091,2.5151,9.1754,4.3798,5.9551,3.874,8.9966,9.4232,9.5607,16.4426,.311,3.8696,.1531,7.6982-.8395,11.4568-1.4672,5.5557-4.5546,10.0322-9.2535,13.3414-5.7346,4.0385-12.2327,6.1421-19.1346,6.6868-10.4217,.8225-18.1805-3.8219-23.6125-12.5239-3.5288-5.6531-5.0903-11.9178-5.2859-18.5544-.0262-.8873,.2669-1.0748,1.1006-1.0882,6.358-.102,12.6721-.6912,18.9208-1.8923,.8728-.1678,1.2141-.0339,1.2256,.9789,.0347,3.0473,.5384,6.0296,1.6886,8.8715,.3057,.7553,.6634,1.5016,1.0926,2.1928,1.9223,3.0955,4.3347,3.9142,7.7621,2.695,1.1627-.4136,2.2705-.9332,3.2852-1.6378,3.3733-2.3426,4.1092-5.9565,1.9269-9.4552-1.1555-1.8525-2.8191-3.1758-4.6088-4.3529-2.6391-1.7359-5.4816-3.1035-8.3013-4.5098-4.7652-2.3767-9.4959-4.8021-13.6836-8.1563-8.2676-6.622-11.327-15.3642-10.4497-25.6773,1.096-12.8848,8.8337-20.2762,20.4249-24.3745,5.1183-1.8097,10.3932-2.9304,15.8359-3.1566,2.5931-.1078,5.1558,.122,7.6678,.7907,6.3924,1.7015,10.084,6.0877,11.9979,12.1846,1.764,5.6195,1.9813,11.4276,1.9928,17.2557,.0008,.4239-.1604,.6672-.5111,.8801-6.4554,3.9191-13.2132,7.207-20.3242,9.7599-.0688,.0247-.1582-.0082-.3315-.0212Z"></path>
      <path class="cls-1" d="M40.32,74.0841c.0204,3.7248,.0999,9.6642,1.2442,15.5254,.401,2.0541,.9689,4.0645,2.0682,5.8748,1.592,2.6214,3.7531,3.4574,6.7034,2.6481,3.3642-.9228,5.4024-3.2617,6.7242-6.3299,1.4484-3.3622,1.9738-6.9235,1.9739-10.5503,0-1.2503,.3021-1.728,1.6232-1.9408,6.1588-.9919,12.3404-1.6274,18.5805-1.6675,.5789-.0037,1.145-.113,1.1231,.8159-.1552,6.5738-.6523,13.087-3.1148,19.2877-2.0162,5.0769-5.1726,9.3011-9.6087,12.4849-7.0026,5.0257-14.8794,7.9371-23.4151,8.7642-10.1064,.9793-17.2811-3.344-21.6011-12.5507-2.3938-5.1017-3.6164-10.5238-4.1479-16.0881-1.0398-10.8846-.8588-21.7735,.5083-32.6169,1.0564-8.3789,3.3557-16.3855,8.5604-23.2342,6.1147-8.0461,14.2375-13.0514,24.0977-15.1532,3.341-.7121,6.7659-.6989,10.1406-.0274,7.8853,1.569,12.5809,6.728,15.4209,13.889,2.3591,5.9484,3.0246,12.2018,3.1918,18.538,.0206,.7796-.2658,.9658-.9895,.977-6.4405,.0995-12.8436,.6284-19.1787,1.8289-.9243,.1752-1.101-.1808-1.1095-1.008-.0291-2.8328-.3061-5.6417-1.1096-8.3734-.4062-1.3808-.9549-2.7025-1.8533-3.8485-1.4543-1.8552-3.4227-2.4747-5.6905-1.8012-2.5811,.7665-4.3804,2.4868-5.7264,4.738-1.9924,3.3323-2.8401,7.0375-3.4185,10.8141-.8519,5.5625-1.0149,11.1704-.9971,19.004Z"></path>
      <path class="cls-1" d="M141.9304,149.9817c0-5.2034-.0006-10.4069,.0004-15.6103,.0003-1.4915,.0072-1.5062,1.4688-1.0548,6.1748,1.9072,12.3381,3.8528,18.5282,5.709,1.0374,.3111,1.2642,.804,1.2641,1.8008-.0004,9.0954-.0036,18.1915,.1095,27.2859,.055,4.4235,.4209,8.8359,1.6828,13.1177,.5479,1.859,1.3114,3.6166,2.5205,5.1519,1.2827,1.6287,2.9204,2.7215,4.9328,3.2525,2.6391,.6964,4.5732-.1051,5.8721-2.5145,1.2693-2.3546,1.6484-4.9536,1.9396-7.5621,.67-6.001,.4968-12.0283,.5149-18.0488,.0154-5.1214,.0256-10.243-.0163-15.3641-.008-.9796,.1829-1.1679,1.1574-.8685,6.3349,1.9467,12.7116,3.7522,19.135,5.3847,.7976,.2027,1.039,.523,1.0343,1.3224-.0594,10.0373,.1483,20.0777-.2277,30.111-.221,5.8971-.6821,11.7811-2.6639,17.414-1.5039,4.2746-3.8817,7.8448-8.1892,9.7851-2.282,1.0279-4.6977,1.4304-7.1764,1.3793-.9305-.0192-1.1544,.2533-1.151,1.164,.0343,9.0546-.0005,18.1094,.0463,27.1639,.0062,1.1914-.2575,1.3458-1.3585,.9924-6.2311-2.0003-12.476-3.9591-18.7392-5.8564-.9464-.2867-1.1786-.7096-1.1758-1.6199,.0276-9.0956,.0126-18.1913,.0247-27.287,.0009-.688-.0565-1.2107-.7661-1.6237-9.4247-5.4856-14.6183-13.905-16.8431-24.3778-1.6448-7.7431-1.7899-15.6049-1.9074-23.4696-.0288-1.9252-.0043-3.8513-.0043-5.7769h-.0127Z"></path>
      <path class="cls-1" d="M298.5245,182.8862v4.8987c0,4.3424-.022,8.685,.0204,13.027,.0075,.7739-.2546,1.1571-.9245,1.4896-4.8439,2.4047-9.8011,4.536-14.954,6.1827-.9394,.3002-1.2613,.7115-1.2514,1.7141,.0538,5.448,.0513,10.897,.005,16.3451-.0098,1.148,.2983,1.2794,1.333,.9284,5.63-1.9096,11.0907-4.2085,16.3418-6.9923,.899-.4766,1.2021-.5198,1.1917,.6679-.0481,5.53-.0442,11.0609,.0023,16.5909,.0073,.8728-.3066,1.2914-1.0378,1.6768-11.8198,6.2305-24.3644,10.1355-37.6129,11.8206-1.0016,.1274-1.4274,.0195-1.4259-1.1941,.0369-30.7655,.0308-61.5311,.019-92.2967-.0003-.7802,.0549-1.2616,1.0499-1.3757,13.2349-1.5173,25.7365-5.4333,37.5448-11.586,.4228-.2203,.8079-.5432,1.4394-.5898v1.2196c0,5.4075-.0222,10.8152,.0205,16.2224,.0077,.9683-.2421,1.513-1.1573,1.9841-5.3222,2.7391-10.7973,5.1063-16.4839,6.9708-.8112,.266-1.1717,.568-1.1633,1.5001,.0501,5.53,.0458,11.0608,.0059,16.5909-.0074,1.0327,.2053,1.2397,1.2227,.8878,4.9172-1.7007,9.7193-3.6658,14.372-5.9952,.4282-.2144,.8645-.4128,1.4427-.6879Z"></path>
      <path class="cls-1" d="M98.1246,180.108c0-12.1658-.0111-24.3315,.0199-36.4972,.0026-1.0347-.1853-1.4457-1.3546-1.5619-4.5691-.4539-9.145-.7279-13.732-.8305-.7671-.0172-1.0703-.2136-1.0658-1.0374,.0305-5.6526,.0367-11.3056-.0038-16.9581-.007-.9721,.4431-1.0229,1.1991-1.0078,8.9052,.1767,17.726,1.1698,26.4815,2.7564,8.3373,1.5109,16.5621,3.5131,24.7356,5.7411,.9609,.2619,1.201,.6636,1.1948,1.5864-.0369,5.4477-.017,10.8958-.0188,16.3438-.0005,1.4022-.0062,1.4075-1.4056,1.0165-4.4121-1.233-8.8466-2.3779-13.3154-3.3876q-1.5316-.3461-1.5346,1.1964c-.0005,24.1267-.0003,48.2534-.0004,72.3801,0,1.877,.0022,1.8647-1.7995,1.4825-5.8858-1.2489-11.7975-2.3589-17.7806-3.0235-1.2167-.1352-1.6677-.4612-1.6599-1.8249,.0692-12.1244,.0402-24.2494,.0402-36.3741Z"></path>
      <path class="cls-1" d="M245.5105,157.6523c-2.9379,4.6632-5.7537,9.1738-8.6242,13.6493-.4952,.772-.5601,1.3776-.1991,2.2414,1.8768,4.4915,3.659,9.0224,5.5084,13.5255,.2925,.7123,.2561,1.2594-.1438,1.9362-2.3943,4.0529-4.7184,8.1472-7.1097,12.2018-.4457,.7557-.5582,1.4376-.3727,2.2991,.9558,4.4394,1.8309,8.8963,2.7831,13.3365,.1412,.6585,.0476,1.1665-.2589,1.7371-2.3239,4.3266-4.6061,8.6755-6.9436,12.9946-.4668,.8626-.6285,1.2263,.6423,1.3491,6.6877,.6463,13.3678,1.3687,20.0973,1.3905,.6107,.002,.9671,.0598,.9915,.8335,.1638,5.2003,.3519,10.4002,.5955,15.5973,.0506,1.0794-.3492,1.2717-1.3236,1.2617-6.577-.0679-13.0647-.9809-19.5323-2.0431-6.8659-1.1275-13.6818-2.5215-20.4647-4.0765-.708-.1623-1.1041-.393-1.265-1.1994-1.0168-5.0953-2.0891-10.1798-3.1878-15.2582-.1302-.6016,.0648-1.0247,.3118-1.4947,2.1509-4.0938,4.2899-8.1939,6.4573-12.2789,.3226-.6081,.4127-1.1628,.2969-1.8598-.7579-4.5621-1.444-9.1361-2.19-13.7003-.0947-.5795,.0568-1.029,.2987-1.5133,1.9571-3.9172,3.8842-7.8495,5.8701-11.752,.3983-.7827,.486-1.4584,.2233-2.3145-1.4761-4.8093-2.8746-9.6423-4.3388-14.4553-.1948-.6403-.1661-1.1605,.1201-1.753,2.1357-4.421,4.2605-8.8474,6.3523-13.2893,.3121-.6628,.6448-.8713,1.3983-.7643,7.5392,1.0701,15.0849,2.0951,22.6281,3.1372,.4023,.0556,.7991,.1505,1.3791,.2618Z"></path>
      <path class="cls-1" d="M247.6258,148.0333c-2.7132-.3674-5.4239-.7282-8.1326-1.1024-5.0695-.7004-10.1348-1.4322-15.2098-2.0894-.8143-.1054-1.2095-.4105-1.4904-1.1576-1.1086-2.9476-2.2665-5.8769-3.4282-8.8042-.2366-.5963-.2785-1.1401-.1088-1.7782,.9357-3.5183,1.8098-7.053,2.7311-10.5753,.1845-.7054,.1438-1.3257-.1526-2.0064-1.7962-4.126-3.5338-8.2776-5.3386-12.3997-.3246-.7414-.3347-1.3311,.0155-2.0724,1.8176-3.8472,3.5555-7.732,5.3714-11.58,.3443-.7297,.3537-1.3403,.0794-2.0828-1.6872-4.5657-3.3181-9.1521-5.0065-13.7173-.2738-.7402-.2703-1.3786-.0003-2.1163,1.4623-3.9944,2.8633-8.0113,4.3273-12.005,.2865-.7816,.2818-1.4611-.0144-2.2386-1.7913-4.7013-3.5256-9.4244-5.3192-14.1249-.3191-.8361-.1514-1.0335,.7158-.977,7.3586,.4793,14.7032,1.1064,22.0242,1.9965,.3535,.043,.6649,.0541,.8004,.562,1.0381,3.8899,2.8416,7.4834,4.4169,11.1638,.3373,.7881,.4224,1.478,.1507,2.3282-1.5687,4.9092-3.0589,9.8434-4.6059,14.7596-.2189,.6956-.2404,1.3264-.0522,2.0326,1.222,4.585,2.3924,9.1838,3.6236,13.7663,.1822,.6782,.1455,1.2628-.0854,1.9021-1.6118,4.4626-3.193,8.9364-4.8165,13.3947-.2424,.6658-.2188,1.2044,.1031,1.8458,1.5963,3.1816,3.1321,6.3935,4.7123,9.5833,.3019,.6094,.4218,1.1781,.293,1.8723-.5898,3.1783-1.1055,6.3704-1.6821,9.5513-.173,.9543-.1136,1.807,.3088,2.721,1.8366,3.9736,3.6008,7.9808,5.3821,11.9799,.1789,.4016,.4775,.7743,.388,1.3681Z"></path>
      <path class="cls-2" d="M189.1266,75.5344c.0004,2.5383,.0717,5.084-.5348,7.5767-.7758,3.1888-2.7028,4.4599-5.962,4.0287-2.1282-.2816-4.0926-1.1406-6.1547-1.6467-.7483-.1837-.6439-.7117-.644-1.2313-.0007-4.0958-.0004-8.1916-.0004-12.2873,0-4.2596,.0202-8.5194-.0158-12.7787-.0079-.9361,.0944-1.3554,1.1792-.9411,1.4103,.5386,2.89,.8923,4.3204,1.3824,4.5985,1.5757,6.983,4.8886,7.5485,9.6423,.2476,2.0813,.2634,4.1664,.2637,6.2549Z"></path>
    </g>
  </g>
</svg>
