<?xml version="1.0" encoding="UTF-8"?>
<svg xmlns="http://www.w3.org/2000/svg" id="Layer_2" width="456.692" height="301.4825" viewBox="0 0 456.692 301.4825">
  <defs>
    <style>.cls-1{fill:#fbf1f4;}.cls-2{fill:#e43d4c;}</style>
  </defs>
  <g id="Layer_1-2">
    <g>
      <path class="cls-2" d="M151.01,0h12.0518c.1252,.2128,.339,.1969,.5389,.2001,1.1468,.0181,2.2845,.1457,3.425,.2539,3.9149,.3715,7.7695,1.0585,11.5477,2.1529,4.3041,1.2467,8.3777,3.0113,12.121,5.4916,.5419,.3591,.9553,.4513,1.5093,.0075,.635-.5087,1.3471-.9262,2.0463-1.3493,6.0022-3.6327,12.6329-5.2358,19.5154-6.0155,2.5198-.2855,5.05-.441,7.5818-.5706,1.3797-.0066,2.7593-.0197,4.1389-.0183,2.3955,.0025,4.791,.0139,7.1865,.0215,1.389,.0857,2.7774,.1822,4.1671,.2552,4.2985,.2256,8.5643,.7296,12.7879,1.5542,4.9593,.9682,9.7693,2.417,14.2643,4.763,.7467,.3897,1.213,.3314,1.8554-.141,3.099-2.2789,6.5499-3.8406,10.2418-4.8954,3.0446-.8699,6.1604-1.2907,9.3068-1.5352,2.299,.0036,4.5979,.0073,6.8969,.0109,1.5492,.1298,3.0942,.2916,4.6305,.5371,4.8711,.7783,9.4468,2.3363,13.5177,5.1822,.657,.4593,1.0994,.5321,1.8263,.0559,6.8628-4.4958,14.4098-6.2287,22.5669-5.5254,4.8439,.4176,9.4098,1.7358,13.6591,4.0666,1.0059,.5518,1.782,.5753,2.8246,.1528,6.9568-2.8194,14.2745-3.8683,21.7155-4.1369,4.5444-.1641,9.0933-.1257,13.6406,.158,4.1754,.2606,8.322,.6982,12.4157,1.5564,4.5485,.9536,8.9255,2.4036,12.9637,4.7531,5.2629,3.0621,9.4564,7.1723,12.1065,12.7038,3.5662,7.4436,3.8566,15.1221,1.3891,22.9402-.2138,.6775-.2402,1.226,.0935,1.8626,.7985,1.5233,1.4051,3.1306,1.9449,4.7641,1.6789,5.0814,2.1255,10.3148,2.005,15.6295-.0793,3.4964-.5948,6.9253-1.3902,10.3218-.1283,.5478-.5434,1.1287-.3042,1.6376,.2389,.5082,.942,.5906,1.4472,.844,9.7713,4.9019,17.2038,12.1564,21.9944,22.0106,3.6957,7.602,5.2123,15.7237,5.434,24.1186,.0584,2.2111-.0321,4.4217-.1447,6.6329-.2215,4.3503-.8657,8.629-2.0275,12.8246-1.8528,6.6913-4.9759,12.7025-9.6614,17.8674-1.4626,1.6122-3.0365,3.1061-4.7409,4.4582-.4229,.3356-.6506,.6566-.5284,1.2363,.476,2.2584,.4768,4.5537,.4688,6.8488-.0119,3.4311-.6202,6.7581-1.7668,9.9836-.2447,.6884-.2802,1.3461-.1632,2.0446,.2165,1.2931,.4537,2.6042,.3615,3.9049-.1323,1.8666,.3726,3.4616,1.2653,5.1014,2.5782,4.7361,3.4647,9.9279,3.6728,15.2546,.1105,2.8288-.0495,5.6477-.4281,8.4569-.4677,3.4703-1.3606,6.8172-2.8649,9.9814-3.6623,7.7037-9.6224,12.9126-17.5119,15.9946-5.2744,2.0604-10.8007,2.9546-16.4053,3.4159-3.5105,.289-7.0288,.5043-10.556,.4846-2.9912-.0167-5.9838,.078-8.9723-.1405-2.3009-.1683-4.5844-.0062-6.848,.4279-1.783,.342-3.5003,.8716-4.9788,1.9714-1.9647,1.4614-2.9885,3.4201-3.0387,5.8818-.0125,.6125-.0668,1.2253-.1274,1.8354-.4382,4.4063-2.7342,7.2231-6.9618,8.5319-2.6183,.8106-5.2955,.9805-8.0167,.7469-2.6148-.2244-5.0761-.934-7.2943-2.3373-3.379-2.1375-5.3139-5.1586-5.3475-9.2371-.0062-.745-.2168-1.3438-.667-1.9128-.4357-.5507-.9182-1.0447-1.4703-1.4751-1.5095-1.177-3.2403-1.9122-5.0532-2.4479-3.905-1.1539-7.9284-1.6661-11.9679-1.9886-2.2008-.1758-4.4197-.1081-6.6289-.2804-3.0642-.239-6.1059-.6154-9.132-1.1496-3.5578-.628-6.9897-1.7049-10.396-2.8706-.5839-.1998-1.069-.2124-1.6425,.0362-4.8159,2.0881-9.9074,3.071-15.0854,3.6806-3.7878,.4459-7.5984,.5841-11.4055,.6731-6.9273,.1619-13.8451,.0002-20.7348-.8576-3.9505-.4919-7.8265-1.2949-11.5994-2.5676-1.1616-.3918-2.277-.3084-3.2911,.3321-2.5733,1.6254-5.4523,2.1361-8.403,2.4528-2.657,.2851-5.3209,.2321-7.9839,.2334-4.1638,.0022-8.2476,.5836-12.2322,1.7691-6.8908,2.0502-12.939,5.5038-17.7535,10.9291-2.1985,2.4775-3.9392,5.2329-4.7628,8.4846-.569,2.2462-.5782,4.4335,.6679,6.5215,.5421,.9083,.9517,1.9027,1.3556,2.8851,1.8075,4.3966,2.3366,8.9294,1.2769,13.5891-.9223,4.0552-3.3072,6.8655-7.2725,8.2718-1.5929,.5649-3.2374,.8599-4.9142,1.0188-3.3287,.3156-6.6378,.2227-9.8799-.6397-4.4172-1.1749-7.2499-3.9756-8.3411-8.4465-.6991-2.8647-.7218-5.7571-.2152-8.6565,.4616-2.6418,1.4017-5.1192,2.595-7.5089,.2187-.438,.4513-.8642,.477-1.3789,.1145-2.3015,.044-4.5752-.6461-6.8077-1.1574-3.7443-3.4575-6.649-6.5087-9.0115-3.5091-2.717-7.4946-4.5003-11.6882-5.8486-7.102-2.2833-14.4212-3.3216-21.8459-3.686-2.987-.1466-5.9804-.1618-8.9704-.2524-1.8467-.056-3.6724-.2995-5.4639-.753-.9548-.2417-1.9741-.491-2.6579-1.1995-.842-.8723-1.8894-1.2287-2.9496-1.6373-.7248-.2793-1.4867-.5173-2.1359-.9262-1.15-.7244-2.1699-.6466-3.4241-.1286-6.5576,2.7084-13.479,3.631-20.5098,3.9003-1.9652,.0753-3.9364,.1-5.9014,.0391-1.6369-.0507-2.9076,.6901-4.1479,1.5902-.3255,.2362-.3746,.4801-.1234,.8228,.4838,.6601,.9549,1.3314,1.396,2.0205,2.2267,3.4792,2.8711,7.2781,2.1196,11.2996-.5784,3.0956-2.382,5.1296-5.5124,5.9009-2.0243,.4988-4.062,.5396-6.0925,.1561-3.3671-.6361-5.4731-2.6211-6.1367-6.0252-.7316-3.7531-.2599-7.3336,1.6672-10.6688,.5313-.9196,1.148-1.7925,1.765-2.6586,.2679-.376,.3215-.6893,.1398-1.1251-.3664-.8787-.8205-1.6913-1.4621-2.3972-.224-.2464-.4617-.4823-.7991-.5411-1.0434-.182-2.0362-.6054-3.1242-.5844-1.4789,.0285-2.8188-.4513-4.0378-1.2648-.4796-.32-.9797-.5706-1.5164-.7857-6.8709-2.7548-12.6964-6.9448-17.2932-12.7681-4.4821-5.6781-7.0835-12.2029-8.4915-19.2444-1.0486-5.2438-1.3355-10.5495-1.319-15.8841,.0123-3.9806,.2592-7.9428,.8933-11.8704,.7255-4.494,1.8829-8.8786,3.6408-13.0889,.4599-1.1016,.3575-1.0363-.427-1.5786-6.0592-4.1891-10.4344-9.7459-13.3988-16.4557-2.6287-5.9499-3.8851-12.2307-4.3506-18.6694-.399-5.5193-.4115-11.0494,.1722-16.5684,.4402-4.1622,1.2321-8.2497,2.5021-12.2379,4.0199-12.6238,11.8061-22.1101,23.5911-28.2608,.6795-.3547,1.6792-.4458,1.9542-1.1326,.2622-.6549,.0358-1.5255-.0447-2.294-.4002-3.8183-.065-7.6041,.4513-11.3851,.4709-3.4485,1.2869-6.8308,1.9414-10.2441,.4173-2.1762,.6554-4.3687,.5329-6.5936-.2229-4.0471-.5182-8.0871-.215-12.1518,.3376-4.526,1.207-8.9098,2.9592-13.1048,3.8198-9.1449,10.3925-15.3339,19.8244-18.46,3.4044-1.1284,6.9184-1.6411,10.4753-1.9323l6.6512-.0169c4.6871,.361,9.233,1.2919,13.4874,3.3743,.4507,.2206,.8271,.1976,1.2749-.0104,1.3359-.6202,2.7128-1.1389,4.1209-1.5791,3.3002-1.0316,6.693-1.5273,10.1272-1.7961,2.136,.0006,4.272,.0012,6.408,.0019,1.0566,.0991,2.1136,.1945,3.1697,.2978,3.3913,.3319,6.6776,1.1052,9.8503,2.3523,2.1377,.8402,4.1653,1.8941,6.0157,3.255,.5815,.4277,1.0714,.4824,1.6431,.0769,.1321-.0937,.2855-.1581,.4309-.2325,3.8003-1.9437,7.8052-3.3007,11.9706-4.2137,3.5582-.7799,7.1538-1.2635,10.7885-1.4748,.2301-.0134,.503,.0645,.6424-.2232Zm-17.1925,183.182c-.8605,0-1.7214,.0179-2.5813-.0047-.9872-.026-1.9578-.2005-2.892-.513-1.435-.4799-2.0975-1.4134-2.1964-2.9226-.0694-1.0586,.213-2.0256,.6782-2.9523,.367-.7311,.763-1.4476,1.1357-2.176,.9409-1.8391,1.0302-3.7564,.5131-5.7275-.7341-2.7985-2.6644-4.4236-5.2873-5.3448-1.356-.4763-2.7638-.7204-4.1963-.8619-2.7072-.2675-5.3998-.2581-8.0583,.3736-3.6503,.8674-6.1663,3.0735-7.5897,6.537-.7386,1.7974-1.1054,3.689-1.2366,5.6079-.2154,3.1506-.1171,6.3102,.0546,9.4594,.2777,5.0933,.0213,10.1386-.9775,15.1484-.6074,3.0466-1.4445,6.0423-1.9481,9.1116-.4822,2.9393-.5289,5.8637,.136,8.7797,.9598,4.2089,3.4578,7.0551,7.5462,8.4857,1.3962,.4886,2.8373,.8003,4.2996,.9764,3.5171,.4238,7.0329,.3618,10.5262-.2358,1.8612-.3184,3.668-.8467,5.3267-1.7869,2.7006-1.5307,4.2943-3.8136,4.7897-6.8967,.4827-3.0043-.0401-5.8634-1.093-8.6598-.6508-1.7286-1.5859-3.3201-2.467-4.9362-.53-.9721-1.0545-1.9557-1.2824-3.044-.4533-2.1641,.223-3.6632,2.4272-4.209,.1189-.0294,.2304-.0925,.35-.1152,2.273-.4311,4.5613-.4256,6.8522-.2033,.5253,.051,1.0467,.1838,1.5589,.3203,1.5992,.4263,2.5057,1.2253,2.323,3.5981-.0767,.9968-.4523,1.9063-.889,2.789-.653,1.3198-1.3385,2.6236-1.9864,3.9459-1.547,3.1574-2.2409,6.4837-1.8904,9.9979,.2095,2.1001,1.0123,3.9456,2.4738,5.4915,1.571,1.6618,3.5526,2.5987,5.7056,3.2173,1.7366,.499,3.5197,.7149,5.32,.8685,3.3331,.2844,6.6333,.1087,9.8842-.6503,2.1744-.5077,4.1887-1.4069,5.8443-2.971,2.4301-2.2957,3.3912-5.2477,3.7234-8.4582,.3719-3.5949-.2363-7.0974-1.0977-10.5697-.7386-2.9771-1.4573-5.9639-1.807-9.013-.5664-4.9397-.4091-9.895-.1409-14.8475,.169-3.1195,.1134-6.2353-.674-9.2734-1.1755-4.5353-3.8958-7.5722-8.6359-8.5486-3.0499-.6283-6.0987-.5732-9.1527-.0535-1.5849,.2697-3.0903,.7567-4.4977,1.5545-3.5648,2.0207-4.852,6.5181-3.0568,9.9993,.3937,.7635,.7905,1.5254,1.184,2.289,.5201,1.0095,.7226,2.0757,.6058,3.2095-.135,1.3098-.7894,2.2167-2.0355,2.6589-.4214,.1496-.8671,.2339-1.3048,.3343-1.4128,.3239-2.8523,.2353-4.2839,.2211ZM158.3003,20.9255c-3.5747,.0197-6.3122,.1748-9.0458,.4426-3.438,.3368-6.7978,1.0165-10.0169,2.28-4.7319,1.8572-8.3211,4.9897-10.514,9.6282-.9485,2.0064-1.586,4.1171-2.0571,6.2812-.8045,3.6958-1.0357,7.4547-1.1843,11.2173-.0827,2.0926-.3244,4.1555-.7116,6.2109-.546,2.898-1.4438,5.7051-2.1532,8.5606-.8166,3.2871-1.2133,6.5971-.629,9.9693,.6423,3.7072,2.5213,6.5233,5.9586,8.1996,1.6687,.8138,3.4418,1.3144,5.2694,1.5814,3.3746,.493,6.7642,.6743,10.1644,.2632,2.371-.2867,4.6775-.8011,6.7809-1.9984,2.408-1.3707,4.0107-3.3733,4.538-6.1073,.7401-3.8376,.1622-7.4889-1.7957-10.8994-.4276-.7449-.846-1.4959-1.2411-2.2584-.4013-.7745-.5994-1.6118-.6066-2.4827-.0124-1.4905,.5837-2.5716,1.9047-2.9884,2.8409-.8964,5.7196-.8482,8.5836-.0298,.0773,.0221,.147,.0704,.2204,.1063,.966,.4729,1.4812,1.2424,1.5682,2.3178,.0914,1.1299-.0795,2.2067-.6054,3.2135-.303,.5801-.6235,1.1526-.9659,1.7102-1.1701,1.9052-2.021,3.9297-2.2777,6.166-.2158,1.8798-.2607,3.7624,.2608,5.6071,.9075,3.2101,3.102,5.2083,6.117,6.417,2.5858,1.0367,5.3111,1.2982,8.0567,1.4389,1.8474,.0946,3.6884-.0671,5.5212-.2432,2.1222-.2039,4.2067-.6361,6.1897-1.4596,3.2267-1.3401,5.3843-3.6647,6.3612-7.0268,.7428-2.5563,.7468-5.1686,.4476-7.7928-.2932-2.5712-1.0145-5.0466-1.6878-7.5315-.6958-2.5682-1.2798-5.1573-1.6156-7.7993-.3362-2.6449-.2448-5.3147-.4808-7.9671-.2945-3.3089-.753-6.5843-1.7675-9.7563-1.3742-4.2962-3.7136-7.9115-7.534-10.4523-2.1681-1.4419-4.5425-2.4188-7.0404-3.1155-4.8564-1.3545-9.839-1.6088-14.0117-1.702Zm-64.6979,119.1152c.0981,.9918-.0005,2.8852,.3636,4.7453,1.0472,5.3505,3.9558,9.0847,9.3136,10.6571,4.39,1.2884,8.8645,1.5097,13.3765,.8596,1.7477-.2518,3.4313-.8026,4.9711-1.6933,3.2226-1.8642,4.9966-4.6154,5.1167-8.3916,.0803-2.5266-.559-4.8577-1.7499-7.0599-.6424-1.1879-1.3179-2.3587-1.931-3.5615-.6418-1.2592-.9904-2.5951-.8577-4.0292,.1124-1.2147,.7173-1.9526,1.8885-2.2721,1.9186-.5234,3.9463,.1497,5.1664,1.7132,.6396,.8197,1.0494,1.753,1.3331,2.7427,.5797,2.0225,.7909,4.0934,.7751,6.1913-.0139,1.8476,.1254,3.6855,.4749,5.4976,1.0142,5.2584,3.9878,8.7656,9.2259,10.2339,1.6651,.4668,3.3635,.6578,5.0809,.8066,2.845,.2466,5.6563,.0538,8.4129-.6266,4.4217-1.0914,7.3192-3.8085,8.5331-8.263,.821-3.0129,.8682-6.0755,.6127-9.1437-.177-2.1254-.7-4.1952-1.6523-6.1274-1.2663-2.5693-3.1117-4.5034-5.9511-5.3093-1.5205-.4315-3.0676-.4268-4.6293-.2646-1.7498,.1817-3.495,.4633-5.2646,.3584-.7788-.0462-1.5596-.1248-2.265-.483-1.1496-.5838-1.3332-1.8391-.4266-2.7546,.324-.3271,.7167-.5521,1.1498-.6853,.5852-.18,1.1772-.3439,1.7747-.4769,2.562-.5706,5.0858-1.2526,7.4122-2.5121,2.5722-1.3925,4.3381-3.4498,5.1136-6.2989,.7765-2.8529,.8801-5.7391,.2886-8.6325-.6618-3.2374-2.4124-5.7764-5.0921-7.6943-2.0204-1.4459-4.2646-2.4148-6.6213-3.1509-5.0422-1.5749-10.2523-2.1307-15.4884-2.3894-3.9251-.1939-7.8578-.3027-11.7957-.1341-3.1541,.135-6.2985,.3061-9.4142,.8234-2.3061,.3829-4.5607,.9602-6.696,1.9432-3.2141,1.4798-5.4584,3.8322-6.5789,7.223-.5409,1.637-.8789,3.3167-1.1593,5.0114-.5364,3.2423-.6062,6.5223-.6962,9.7933-.0903,3.2813-.3841,6.5398-.8483,9.781-.6036,4.2145-1.2688,8.4191-1.2661,13.5731ZM226.3999,21.1008c-3.7665-.0295-8.2267,.082-12.6519,.7875-2.4316,.3877-4.811,.9631-7.0651,1.9813-3.2679,1.4761-5.5508,3.8676-6.6727,7.295-.6246,1.9083-1.0208,3.8767-1.2656,5.8678-.345,2.8059-.487,5.6262-.5415,8.4536-.0489,2.538-.1995,5.0761-.5186,7.5939-.5245,4.1383-1.2428,8.2512-1.5351,12.4197-.2128,3.0355-.2215,6.0645,.408,9.0476,.5757,2.7282,1.7106,5.1998,3.7983,7.1514,1.6563,1.5484,3.6336,2.4986,5.782,3.1132,3.792,1.0848,7.6791,1.2155,11.5733,.9249,2.253-.1681,4.4339-.7697,6.4234-1.9096,2.6279-1.5058,4.3438-3.6857,4.9089-6.7035,.4417-2.3591,.1323-4.6386-.7173-6.8653-.5427-1.4223-1.3228-2.7206-2.0702-4.0363-.547-.9629-1.0558-1.9445-1.348-3.0168-.2701-.9913-.4592-1.9868-.1393-3.0207,.268-.8662,.8305-1.4214,1.6727-1.6396,2.2338-.5787,4.4644,.2352,5.6388,2.2019,.4858,.8136,.8459,1.6807,1.0752,2.5983,.5086,2.0355,.7342,4.1074,.7212,6.2022-.0117,1.8898,.1154,3.7624,.5285,5.6108,1.1156,4.9912,4.0375,8.3183,9.0198,9.6972,4.3836,1.2132,8.8124,1.266,13.2467,.303,5.0034-1.0865,8.0176-4.1914,9.0949-9.1718,.6732-3.112,.7587-6.2562,.2617-9.4002-.3733-2.3616-1.0572-4.6303-2.4397-6.6239-1.5444-2.2269-3.6033-3.6087-6.3496-3.9782-1.8622-.2505-3.6734,.0733-5.5047,.2128-1.5924,.1212-3.1866,.2964-4.7633-.1245-.7599-.2028-1.3622-.6116-1.4994-1.4396-.1471-.887,.3345-1.4826,1.044-1.9216,.4562-.2822,.9693-.4353,1.4846-.5685,.3958-.1023,.7994-.1735,1.1977-.2665,2.4743-.5773,4.9228-1.2348,7.1682-2.4708,2.6016-1.4321,4.3664-3.536,5.1141-6.4432,.5872-2.2834,.726-4.5937,.4787-6.9382-.3111-2.9493-1.3999-5.5308-3.4986-7.6584-1.8494-1.8749-4.1003-3.1006-6.5291-4.0368-4.7884-1.8457-9.8188-2.469-14.8806-2.9121-3.3089-.2896-6.6289-.3098-10.6502-.3162Zm-158.6773-.0014c-2.2606-.0184-4.4942,.1596-6.6868,.7674-3.3654,.9329-5.787,2.9547-7.2334,6.1352-.5263,1.1572-.9168,2.3581-1.1841,3.6031-.7925,3.6909-.6055,7.4252-.3753,11.1386,.2828,4.5608,.1643,9.0728-.7368,13.5636-.6994,3.4857-1.5645,6.9431-1.9438,10.4877-.284,2.6544-.388,5.314,.1404,7.9508,1.0026,5.0035,3.8358,8.3899,8.7981,9.8972,1.8116,.5503,3.658,.8502,5.536,1.0343,2.2507,.2207,4.5049,.2231,6.7507,.0573,1.5455-.1141,3.0828-.3903,4.5617-.9084,3.0959-1.0847,5.3087-3.0747,6.2138-6.2823,.878-3.1118,.8132-6.224-.3263-9.2863-.5157-1.3859-1.215-2.6812-1.8905-3.9894-.5629-1.0903-1.1423-2.1719-1.4886-3.3594-.3972-1.3621-.5319-2.7295-.1201-4.1117,.3844-1.2901,1.2803-1.9554,2.6191-1.9983,1.5508-.0497,2.662,.6852,3.4719,1.9344,.6299,.9715,.9935,2.0615,1.2596,3.1796,.5425,2.2792,.7307,4.5978,.8064,6.936,.074,2.2883,.1689,4.5798,.681,6.8292,1.2484,5.4838,4.4417,9.076,10.0043,10.4507,2.778,.6866,5.5894,.7389,8.4181,.6801,1.8902-.0393,3.7576-.2889,5.5806-.7745,3.369-.8974,6.0054-2.7428,7.4992-5.9996,.7747-1.6891,1.2071-3.4737,1.4365-5.3067,.3675-2.9376,.3816-5.8798,.0103-8.8198-.3203-2.5363-.9546-4.9776-2.2258-7.221-2.1754-3.8391-5.9986-5.6465-10.3688-4.9264-1.6573,.2731-3.3227,.502-5.0105,.3624-2.1922-.1814-3.5713-1.6028-3.4968-3.654,.0505-1.3886,.513-2.6421,1.4527-3.6935,1.1862-1.3271,2.6764-2.0146,4.4511-1.9887,1.5137,.0221,3.0275,.214,4.5387,.187,3.6252-.0648,5.9135-1.6792,7.1035-5.1357,.146-.4239,.2632-.8605,.3574-1.299,.644-2.9965,.6998-6.0171,.2113-9.0322-.5303-3.2722-2.32-5.5326-5.5643-6.5158-.4686-.142-.9463-.257-1.4239-.3665-2.7031-.6202-5.4491-.543-8.1937-.5014-1.3995,.0212-2.7754,.228-4.13,.549-3.9248,.93-6.7677,3.1772-8.3201,6.9509-.483,1.1742-.8558,2.3854-1.1044,3.6317-.4158,2.0843-.7914,4.1773-1.247,6.2529-.3154,1.4368-.7214,2.8558-1.4744,4.1441-.5164,.8835-1.2276,1.5457-2.229,1.8114-.9621,.2552-1.9439,.2781-2.917,.0253-.9781-.2541-1.6592-.8262-1.9987-1.8081-.1919-.5551-.237-1.1164-.2548-1.6904-.0782-2.5273,.5657-4.9462,1.1055-7.3805,.4356-1.9643,.7694-3.927,.4251-5.955-.3481-2.0507-1.3083-3.6763-3.0752-4.8052-.8707-.5563-1.8171-.9321-2.8098-1.1987-1.8369-.4935-3.7147-.5832-5.6031-.5515Zm-9.8524,70.6979c-2.0201,.1654-4.5198,.1017-7.0111,.3632-3.8407,.403-7.6014,1.1158-11.2334,2.4555-8.5885,3.1679-14.1532,9.1491-16.7949,17.9049-1.2645,4.1912-1.685,8.4902-1.8689,12.8312-.0903,2.1324,.0901,4.257,.1794,6.3839,.1394,3.3218,.6048,6.5997,1.5215,9.7967,.9237,3.2216,2.3373,6.195,4.6827,8.6603,2.814,2.9578,6.3488,4.5506,10.2573,5.4338,2.6058,.5888,5.2539,.7783,7.9198,.8532,2.6704,.0751,5.3176-.0565,7.9359-.5975,5.0373-1.0409,8.5474-3.9132,10.442-8.7223,.7668-1.9464,1.2896-3.9621,1.7539-5.9958,.2098-.9188,.4407-1.8288,.9468-2.6419,.6846-1.0998,1.7178-1.5606,2.9273-1.3001,.9873,.2126,1.6839,1.0965,1.7952,2.3716,.0819,.938,.0529,1.8691-.1753,2.8039-.4162,1.7046-1.068,3.3595-1.1805,5.1307-.2594,4.0833,1.2684,6.4453,4.7707,7.5764,1.1346,.3664,2.3077,.5628,3.4889,.6658,2.2052,.1923,4.4152,.2928,6.608-.1409,3.063-.6058,4.9287-2.626,5.4491-5.7107,.441-2.6144,.085-5.1397-.6669-7.6284-.5199-1.7205-1.1371-3.4118-1.7194-5.1132-1.0009-2.9247-1.2491-5.8915-.6631-8.945,.2918-1.5202,.6635-3.0354,.6198-4.612-.0872-3.1489-1.7953-6.3195-5.418-7.3631-1.826-.526-3.6849-.8028-5.5612-.8827-3.1925-.1361-6.3917-.1449-9.5739,.2272-1.4213,.1662-2.8335,.4139-4.1733,.9569-.7643,.3098-1.4786,.6965-2.0778,1.2776-1.0083,.9777-1.3477,2.2004-1.3776,3.5621-.0256,1.1669,.6923,1.8711,1.4731,2.5606,.3678,.3248,.7491,.6456,1.0601,1.0213,.8453,1.0212,.6576,2.349-.4268,3.1043-.577,.4019-1.2315,.6299-1.924,.7656-1.7948,.3518-3.5954,.3211-5.3727-.0362-3.5338-.7105-5.2956-2.5944-5.747-5.8297-.301-2.1575-.1741-4.3455,.5055-6.4418,1.0256-3.1637,3.1053-5.2208,6.4297-5.9241,2.035-.4305,4.0913-.3552,6.1158-.1078,3.3674,.4114,6.7077,1.0407,10.0707,1.4947,2.6815,.362,5.3864,.464,8.0924,.3284,.86-.0431,1.6963-.2668,2.5043-.5694,1.8614-.6972,3.129-2.0189,3.5631-3.9294,.8525-3.7516,.1413-7.1485-2.6642-9.9552-1.4775-1.4781-3.2762-2.4399-5.19-3.2004-3.7249-1.4802-7.646-2.0524-11.6014-2.4656-2.7334-.2855-5.4809-.2566-8.6914-.4168Zm339.6162,64.8179c4.1422,.0416,8.0623-.1925,11.9681-.7022,3.7475-.489,7.4098-1.3096,10.9179-2.7358,4.8865-1.9866,8.8735-5.0583,11.5271-9.6975,2.0053-3.5057,2.9551-7.3346,3.428-11.3102,.34-2.858,.3019-5.7253,.2534-8.5919-.0563-3.3277-.5254-6.5974-1.4236-9.8097-2.3433-8.381-7.5433-14.2858-15.4352-17.8626-3.6388-1.6492-7.4707-2.6118-11.4066-3.2619-3.8981-.6439-7.8253-.8053-11.7526-.8151-2.7379-.0068-5.4885,.0477-8.2218,.3675-1.9946,.2334-3.9679,.5416-5.8993,1.1107-4.3616,1.2852-6.8222,4.273-7.849,8.6053-.6849,2.8897-.8334,5.8313-.9167,8.7762-.0753,2.6618-.0136,5.3274-.0711,7.99-.0362,1.6773-.0989,3.3619-.2931,5.0264-.4456,3.8186-.975,7.6275-1.4778,11.4394-.4083,3.0952-.6131,6.1939-.1713,9.303,.3331,2.3441,1.0304,4.5428,2.5833,6.4003,1.2976,1.552,2.9702,2.5544,4.8113,3.3029,2.7936,1.1357,5.7415,1.6405,8.7144,1.9488,3.6268,.3761,7.2688,.5722,10.7147,.5166ZM68.1346,227.4679c2.3746-.0134,4.7471-.0153,7.119-.2325,2.5734-.2356,5.1192-.5994,7.6074-1.2936,2.5409-.7088,4.9449-1.7266,7.0204-3.4016,3.6215-2.9226,5.1435-6.8904,5.5145-11.37,.2299-2.7765,.2026-5.5652-.2245-8.3328-.3139-2.0344-.8466-3.9985-1.9046-5.7888-1.2912-2.1851-3.1744-3.4992-5.7124-3.7753-1.3877-.1509-2.7911-.095-4.1729,.0704-3.5346,.4233-7.0572,.9561-10.6253,1.0269-1.6126,.032-3.1903-.113-4.6269-.9458-1.1618-.6735-1.9757-1.6517-2.1692-2.9769-.4955-3.393,1.1944-5.6881,4.337-6.3007,1.8521-.361,3.6711-.1092,5.4923,.1594,2.7903,.4116,5.5116,1.2145,8.332,1.4681,.9012,.081,1.8025,.1463,2.6979,.0446,2.4872-.2824,4.125-1.6512,4.942-4.0021,.9663-2.7806,.9654-5.6265,.4707-8.4834-.4923-2.8432-1.9794-5.0723-4.3466-6.7181-.9798-.6812-2.0439-1.1966-3.1486-1.6411-2.7609-1.1111-5.6671-1.5963-8.5965-1.9063-3.5028-.3707-7.0218-.462-10.5472-.3665-3.6596,.0992-7.2629,.5638-10.775,1.5952-8.7098,2.558-14.611,8.1053-17.6122,16.6914-1.4156,4.0497-2.0706,8.2485-2.2439,12.5138-.1279,3.1485-.1203,6.3015,.1709,9.4517,.2643,2.8597,.6932,5.6807,1.5312,8.4292,1.8791,6.1629,5.733,10.5721,11.7016,13.0791,3.0759,1.2919,6.3013,2.0282,9.5957,2.4633,3.3747,.4457,6.7685,.6112,10.1731,.5426Zm136.9-64.8617c-5.4215-.0614-9.4333,.0784-13.4329,.4455-2.2827,.2096-4.5386,.6083-6.7379,1.2873-4.0897,1.2626-6.695,3.9317-7.7934,8.0864-.6619,2.5034-1.0442,5.051-1.1788,7.6243-.1626,3.1076-.2173,6.2217-.2684,9.3338-.0351,2.1349-.2564,4.251-.5746,6.3537-.6056,4.001-1.4412,7.9651-1.7591,12.012-.2163,2.7528-.2072,5.4836,.3782,8.184,.7297,3.3665,2.5111,6.0015,5.5563,7.7264,2.3458,1.3287,4.896,2.0346,7.5145,2.5522,4.2751,.8451,8.6132,1.0524,12.9486,1.1646,6.1448,.159,12.2888,.0421,18.4023-.6927,2.5213-.3031,5.0027-.8133,7.3932-1.7077,3.8688-1.4474,6.3367-4.1043,7.1138-8.217,.5138-2.7192,.4808-5.4653,.2423-8.2023-.1203-1.3809-.4563-2.7364-1.0558-4.0158-.9954-2.1244-2.6344-3.4114-4.929-3.8249-.7195-.1297-1.4688-.1137-2.2051-.1272-3.3303-.0609-6.614,.3917-9.8896,.9237-2.4689,.401-4.9469,.7008-7.4548,.6027-1.2395-.0485-2.4429-.2758-3.5155-.9462-1.3868-.8668-1.7823-2.1866-1.594-3.7182,.1668-1.3569,1.0406-2.1748,2.6293-2.5397,.3564-.0819,.7253-.1328,1.0906-.1477,1.4798-.0602,2.9434,.1302,4.4021,.3419,2.9162,.4232,5.7492,1.2753,8.6593,1.7195,1.57,.2396,3.1455,.4926,4.759,.1653,1.9978-.4052,3.3736-1.5168,3.9365-3.445,.6202-2.1247,.5721-4.2947-.1445-6.406-.5988-1.7641-1.9143-2.716-3.7245-2.9616-1.7969-.2438-3.6035-.1373-5.384,.1406-2.8272,.4412-5.6364,.9973-8.4621,1.4492-1.5809,.2528-3.1866,.265-4.7816,.1312-1.5544-.1304-2.6722-1.0232-2.9325-2.3673-.3969-2.0495,.4525-3.6782,2.3251-4.3082,.8591-.289,1.739-.4337,2.6476-.4675,3.5063-.1304,6.9291,.5102,10.3589,1.0897,2.0212,.3415,4.0575,.5982,6.1041,.5798,3.0981-.0277,4.9033-1.5921,5.5923-4.3576,.5551-2.2279,.5384-4.4526,.0152-6.6824-.4073-1.7361-1.4212-3.0054-2.941-3.9041-.9233-.546-1.9152-.9215-2.939-1.2172-2.3698-.6845-4.808-.9896-7.2529-1.1996-4.165-.3578-8.3464-.3658-11.1181-.458Zm62.6872-.0038c-5.4381-.0534-9.4499,.0814-13.449,.4528-2.1998,.2043-4.3748,.5903-6.5013,1.2229-4.1906,1.2467-6.8874,3.9214-7.9985,8.187-.6422,2.4655-1.0286,4.9702-1.1625,7.5021-.1622,3.0665-.2173,6.1396-.2692,9.2107-.0368,2.1751-.245,4.3342-.5699,6.4768-.6065,4.001-1.4386,7.9668-1.7677,12.0107-.2271,2.7903-.2229,5.5661,.3842,8.3076,.7554,3.4115,2.5854,6.0596,5.6898,7.7697,2.3217,1.2789,4.8331,1.972,7.4135,2.4751,4.3173,.8418,8.6944,1.0559,13.0713,1.1624,6.0628,.1475,12.124,.0325,18.1563-.6881,2.5633-.3062,5.0874-.8122,7.5127-1.7284,4.1643-1.5733,6.5855-4.524,7.1958-8.9713,.3252-2.3701,.3222-4.7394,.1604-7.1084-.0946-1.3851-.4085-2.7478-.957-4.0432-.9478-2.2382-2.5793-3.6578-4.9812-4.1066-.7184-.1343-1.4671-.1299-2.2028-.1447-3.3713-.0677-6.6941,.3955-10.0106,.9317-2.4275,.3925-4.8653,.6816-7.3326,.5992-1.2432-.0415-2.4463-.2593-3.5275-.9062-1.3226-.7913-1.9284-2.2065-1.6689-3.8015,.2193-1.348,1.0617-2.1501,2.6687-2.5107,.3567-.08,.7263-.1264,1.0917-.1393,1.4795-.0522,2.942,.1394,4.4012,.3501,2.4308,.3511,4.8059,.9805,7.2106,1.4624,1.568,.3142,3.1489,.6074,4.7448,.5604,2.9485-.0869,4.9654-1.2527,5.5752-4.4648,.337-1.775,.2784-3.5894-.2856-5.3444-.6023-1.8742-1.9297-2.9008-3.8446-3.1526-1.797-.2364-3.6027-.131-5.3837,.1493-2.7861,.4386-5.5563,.9769-8.3402,1.4305-1.6225,.2644-3.267,.279-4.9024,.1385-1.1635-.1-2.1368-.6166-2.6668-1.7096-.9053-1.8671-.0132-4.135,1.9176-4.8953,.9197-.3622,1.8892-.4986,2.8822-.5332,3.5061-.1222,6.9271,.5228,10.3567,1.1007,1.9805,.3337,3.9761,.5651,5.9822,.5745,3.0526,.0144,4.9198-1.4629,5.6757-4.407,.5492-2.1392,.5282-4.2938,.064-6.4451-.4038-1.8714-1.4688-3.2479-3.1427-4.1785-.9011-.5009-1.851-.8649-2.8365-1.1443-3.4517-.9785-7.0102-1.2152-10.5616-1.4182-3.0662-.1752-6.1416-.1883-7.7922-.2338Zm126.4905-.006c-4.8398-.0375-8.6039,.0793-12.363,.395-2.1665,.1819-4.301,.5188-6.4146,1.0243-4.9365,1.1808-8.036,4.1678-9.1317,9.171-.5704,2.6045-.9398,5.2356-1.0384,7.8974-.1183,3.1925-.1863,6.387-.2577,9.581-.0431,1.9297-.3304,3.8314-.6231,5.7313-.6285,4.0805-1.4721,8.1262-1.7155,12.266-.138,2.348-.0681,4.6686,.3804,6.9657,.7827,4.008,3.0169,6.9085,6.7549,8.6318,2.0589,.9492,4.2232,1.5289,6.4362,1.9615,4.2762,.836,8.6134,1.037,12.9497,1.1575,3.4797,.0967,6.962,.0662,10.445-.1016,3.1516-.1518,6.2951-.3294,9.4137-.8201,2.431-.3825,4.8182-.9316,7.0576-1.9933,2.991-1.418,4.9512-3.6866,5.731-6.9366,.7552-3.1478,.792-6.3271,.3781-9.5141-.1738-1.3382-.5461-2.6403-1.184-3.8516-.8871-1.6845-2.2256-2.7839-4.0711-3.297-.9257-.2574-1.8607-.2583-2.8009-.2789-3.9111-.0857-7.744,.5991-11.59,1.1664-2.0285,.2992-4.0723,.4852-6.1228,.3436-1.4001-.0967-2.7793-.3632-3.8269-1.4233-.9733-.9849-1.2341-2.1786-.9088-3.5104,.32-1.3102,1.217-1.9679,2.4873-2.237,.4849-.1027,.9646-.1688,1.4589-.1709,1.4378-.0062,2.8583,.1722,4.277,.3774,2.391,.3458,4.7212,.9893,7.089,1.4481,1.6084,.3117,3.2265,.5999,4.8691,.5631,2.9242-.0655,4.8183-1.5551,5.4074-4.2421,.3553-1.6205,.305-3.2607-.0683-4.8718-.5895-2.5444-2.0343-3.7527-4.6491-3.9108-2.094-.1266-4.1754,.0425-6.2377,.4142-2.3338,.4206-4.6463,.9623-7.0028,1.2524-1.5894,.1957-3.1893,.2544-4.7837,.1081-1.1086-.1017-2.0583-.5632-2.5954-1.6115-.8021-1.5657-.4533-4.1327,1.8582-4.998,.9258-.3466,1.8902-.4952,2.8834-.529,3.5066-.1195,6.9269,.5318,10.3582,1.1033,2.0612,.3434,4.1373,.6002,6.2281,.5698,2.7476-.0399,4.5567-1.4262,5.3317-4.0549,.6866-2.3285,.6451-4.6875,.0984-7.0389-.3926-1.6886-1.4078-2.9271-2.873-3.8171-1.2388-.7526-2.6029-1.1739-3.9997-1.5103-3.1188-.7512-6.306-.9892-9.4905-1.1665-3.0668-.1708-6.1422-.1877-8.1447-.2428Zm-56.2044-70.7976c-2.255-.0759-4.5041,.1237-6.7571,.1385-2.297,.015-4.5786,.2326-6.8534,.5259-2.1553,.2779-4.2734,.7173-6.3037,1.5218-3.0774,1.2195-5.1594,3.3814-6.2431,6.5142-.8492,2.4548-1.2018,5.001-1.4612,7.5681-.2847,2.8172-.224,5.645-.2838,8.4695-.0537,2.5381-.1669,5.0769-.5213,7.5918-.5362,3.8045-1.3765,7.5624-1.7462,11.394-.292,3.026-.4055,6.0524,.1242,9.0578,.6811,3.8642,2.7,6.7955,6.2431,8.6049,.9492,.4847,1.9286,.8928,2.9413,1.2243,3.7247,1.2193,7.5884,1.6334,11.4649,1.9388,4.2112,.3317,8.4338,.3191,12.6535,.2491,4.3402-.0719,8.6765-.2652,12.9704-.963,2.4683-.4011,4.891-.9776,7.1452-2.1181,2.7459-1.3894,4.6-3.5219,5.3517-6.524,.9503-3.7951,.9965-7.623,.0863-11.4255-.7943-3.318-2.9017-5.794-7.4364-5.7815-3.3298,.0092-6.6169,.3582-9.8925,.8963-2.5894,.4253-5.1876,.7286-7.8197,.6368-1.1198-.039-2.1976-.2498-3.1949-.7654-1.2899-.6668-2.1018-1.9484-1.8846-3.6789,.2063-1.6438,1.0233-2.4056,2.8064-2.7684,1.7265-.3512,3.4298-.0172,5.1284,.1929,2.4778,.3065,4.8871,.9875,7.3348,1.4624,1.6876,.3275,3.3798,.6461,5.111,.5888,2.9706-.0981,4.8099-1.7135,5.356-4.5922,.2651-1.3975,.1742-2.768-.044-4.1493-.4204-2.6612-2.0315-4.1332-4.7274-4.2763-2.0524-.109-4.0917,.0352-6.115,.4008-3.1773,.5741-6.3265,1.3168-9.571,1.4776-.9519,.0472-1.8907,.0192-2.809-.1752-1.0483-.2219-1.9216-.7779-2.2829-1.8477-.6037-1.7877-.0652-4.0406,2.2182-4.7586,.9027-.2838,1.8254-.4389,2.773-.4656,2.9227-.0824,5.796,.3408,8.6617,.8375,2.5018,.4336,5.0085,.8314,7.5551,.8384,3.1269,.0086,5.0719-1.5757,5.7751-4.6141,.3374-1.4577,.2828-2.9283,.2428-4.4007-.0887-3.2616-1.6686-5.4789-4.7103-6.6498-.5333-.2053-1.0811-.377-1.6307-.535-2.4506-.7043-4.9761-.9639-7.5003-1.2002-4.042-.3782-8.1041-.2682-12.1546-.4409Zm37.3635-6.0033c4.805-.0206,9.1369-.2448,13.4273-.9787,3.5248-.6029,6.9412-1.5585,10.1131-3.2654,4.2425-2.2829,7.1738-5.6801,8.5263-10.3149,1.4267-4.889,1.5573-9.8528,.2948-14.7959-.8722-3.415-2.8063-6.1584-5.7461-8.1492-1.4297-.9682-2.9745-1.7151-4.5966-2.3069-3.676-1.3412-7.5075-1.9604-11.365-2.4611-1.7839-.2315-3.5878-.3235-5.3446-.7441-.8367-.2003-1.6597-.4451-2.3942-.9172-.9031-.5805-1.3508-1.3802-1.2768-2.4778,.0746-1.1049,.6671-1.8195,1.6212-2.2708,.6722-.318,1.3929-.458,2.1389-.4884,2.0194-.0823,3.9994,.149,5.9583,.6473,2.3034,.5859,4.5088,1.4674,6.7688,2.1833,2.0459,.6481,4.1254,1.0307,6.281,.9156,2.8249-.1508,4.9292-1.7739,5.8375-4.4747,.385-1.1448,.4952-2.3152,.4484-3.5095-.1021-2.6077-1.1489-4.7364-3.2272-6.3395-1.078-.8316-2.2691-1.4589-3.5324-1.9568-3.8915-1.5337-7.9925-2.041-12.1113-2.411-3.88-.3486-7.775-.3338-11.6681-.304-3.5704,.0273-7.1141,.3394-10.6219,1.006-3.0297,.5757-5.9603,1.4591-8.6476,3.0165-3.0978,1.7952-5.3523,4.3104-6.3593,7.793-1.0239,3.5414-.9989,7.1146,.0019,10.6601,.8062,2.8559,2.5833,4.9854,5.12,6.488,1.521,.9009,3.1515,1.5527,4.8502,2.041,4.3468,1.2497,8.8155,1.7629,13.2958,2.1993,1.3476,.1313,2.6963,.2602,3.9561,.7834,1.0861,.451,1.8489,1.1945,1.8985,2.4733,.059,1.5225-.7642,2.6859-2.279,3.081-.7905,.2062-1.6071,.3211-2.4346,.2485-2.0068-.1761-3.9668-.5621-5.8441-1.3119-1.4053-.5612-2.8032-1.1412-4.2108-1.6964-2.4531-.9676-4.9665-1.6313-7.6356-1.6138-3.2903,.0217-5.8863,1.3728-7.6603,4.1096-2.5481,3.9308-2.9167,8.2717-2.0017,12.7524,.7713,3.7768,3.1125,6.4133,6.3955,8.2853,2.5899,1.4768,5.4105,2.302,8.3101,2.8828,4.6773,.937,9.4191,1.1483,13.7135,1.2214Zm-46.1515,77.1689c-.9838,0-1.9676-.0074-2.9513,.0013-4.0237,.0356-8.0145,.3949-11.9414,1.3013-2.9702,.6856-5.8093,1.7068-8.3386,3.4615-2.6962,1.8704-4.509,4.3715-5.3339,7.5577-.7301,2.8199-.7657,5.671-.2528,8.5262,.7437,4.14,3.097,7.0478,6.8789,8.829,1.1858,.5585,2.4107,1.0145,3.6738,1.3731,4.3513,1.2355,8.8229,1.7402,13.3022,2.1898,1.3081,.1313,2.6074,.2834,3.8319,.7842,.8672,.3547,1.5411,.9087,1.7598,1.8955,.4243,1.9141-.665,3.4168-2.7309,3.7367-1.7728,.2745-3.5062,.0131-5.228-.3877-2.2854-.532-4.3916-1.5544-6.5557-2.4159-2.6885-1.0702-5.4392-1.7854-8.365-1.6526-2.2223,.1009-4.1422,.9066-5.7442,2.441-1.3597,1.3023-2.2706,2.898-2.8531,4.6723-.8676,2.6427-1.1189,5.3507-.7873,8.1179,.2837,2.3677,1.0613,4.5247,2.5432,6.4167,1.7493,2.2332,4.0816,3.6343,6.659,4.6723,4.3446,1.7499,8.9295,2.3668,13.5525,2.6589,3.5538,.2245,7.1152,.333,10.686,.1292,3.2757-.187,6.5359-.4367,9.7573-1.0644,3.2275-.6289,6.3493-1.5775,9.2436-3.1842,4.468-2.4803,7.3091-6.1995,8.5786-11.1466,.888-3.4603,.949-6.9755,.6546-10.4938-.1987-2.3746-.8299-4.6709-2.0159-6.7731-1.7217-3.0516-4.3393-5.0793-7.5007-6.454-3.4053-1.4807-7.007-2.232-10.6618-2.7476-2.0661-.2915-4.1476-.4757-6.2124-.7752-1.2938-.1876-2.5866-.4524-3.7132-1.1877-1.7945-1.1712-1.6935-3.6212,.1999-4.619,.7324-.3859,1.5296-.5497,2.3638-.5827,2.315-.0915,4.5795,.2117,6.7867,.8874,1.9936,.6104,3.9665,1.2885,5.9482,1.9378,2.0407,.6686,4.1265,1.0597,6.2803,.9057,2.7564-.1971,4.6634-1.5849,5.6879-4.1671,.5594-1.41,.5831-2.877,.4887-4.3568-.1251-1.9615-.8938-3.6315-2.2815-5.026-1.2376-1.2436-2.7268-2.0756-4.3362-2.7258-3.6877-1.4898-7.5831-1.9949-11.4947-2.3899-3.1826-.3214-6.3815-.3432-9.5781-.3455Zm-36.4466-77.3871c2.2387,.0163,4.3654-.0483,6.4906-.2427,2.7379-.2504,5.4454-.6555,8.0623-1.5136,3.5766-1.1727,6.5737-3.1236,8.43-6.5256,1.155-2.1168,1.7136-4.4195,1.9817-6.7904,.4771-4.2197,.256-8.4239-.4735-12.5984-.3678-2.1045-.9811-4.1371-2.1623-5.9572-1.2707-1.9578-3.0169-3.1642-5.3443-3.5638-1.2297-.2111-2.4513-.2038-3.672-.0879-1.2687,.1204-2.5366,.1627-3.8058,.1348-2.1014-.0462-3.4375-1.1718-3.9559-3.1899-.4262-1.6589-.217-3.2598,.3862-4.8128,.5919-1.524,1.2777-3.0114,1.9139-4.5184,1.2161-2.8806,1.566-5.8304,.673-8.8702-.5835-1.9861-1.7835-3.4672-3.632-4.4248-1.2135-.6286-2.5058-.9997-3.8434-1.2164-2.5585-.4146-5.1308-.4487-7.715-.2826-1.5621,.1004-3.0947,.3424-4.5863,.7922-3.2739,.9873-5.6891,2.9817-7.0913,6.1467-.3658,.8258-.6742,1.6677-.9153,2.5351-.8274,2.9766-1.1403,6.0275-1.2114,9.1003-.0644,2.785-.0423,5.5725-.0306,8.3587,.0067,1.6025-.1558,3.1935-.3401,4.7766-.4636,3.9812-1.3574,7.901-1.7341,11.897-.3052,3.2375-.3202,6.4649,.4114,9.6495,.8665,3.7717,3.0483,6.5538,6.4809,8.355,1.6044,.842,3.2992,1.4352,5.0579,1.8444,3.5307,.8216,7.1168,1.0836,10.6257,1.0044Zm-63.8414,70.8107c2.6468,.0793,5.5874-.137,8.5129-.5196,2.5616-.3351,5.0695-.9123,7.4532-1.9508,3.8227-1.6654,6.4062-4.4505,7.679-8.4365,.5257-1.6464,.8607-3.3381,.9545-5.0518,.2063-3.7664,.1814-7.5334-.4655-11.2675-.3433-1.9819-.8576-3.916-1.8325-5.6949-1.296-2.3649-3.1976-3.8775-5.9337-4.281-1.3532-.1996-2.6948-.1713-4.0407-.0463-1.1044,.1026-2.2099,.1436-3.3148,.1061-2.0245-.0687-3.2874-1.0691-3.8431-3.0035-.3582-1.247-.3327-2.502-.0493-3.7617,.4263-1.895,1.3675-3.5873,2.1151-5.3537,1.04-2.4574,1.5837-4.9558,1.196-7.6479-.4395-3.0517-1.9277-5.2544-4.814-6.4354-.5658-.2315-1.152-.439-1.7483-.566-4.3056-.9174-8.6236-.924-12.9096,.0623-2.5351,.5834-4.7162,1.8499-6.3409,3.9494-1.0675,1.3794-1.7634,2.9429-2.2374,4.6087-.7654,2.69-1.1571,5.4434-1.2253,8.2325-.0691,2.8255-.0294,5.6535-.0668,8.48-.0314,2.3757-.1997,4.7457-.5328,7.0978-.447,3.1566-1.0525,6.2881-1.4598,9.4529-.4263,3.3128-.4847,6.6086,.095,9.9023,.6918,3.9303,2.6668,6.9813,6.1746,8.9928,1.4673,.8414,3.02,1.4519,4.6441,1.8916,3.8267,1.0359,7.7374,1.3025,11.99,1.2404Zm51.2419,.0016c2.6305,.0431,5.4053-.1296,8.1745-.4696,2.3238-.2854,4.602-.7535,6.804-1.5454,5.2326-1.8817,8.3688-5.5763,9.3394-11.0421,.927-5.22,.7149-10.438-.3396-15.6167-.3929-1.9296-1.0743-3.7742-2.2615-5.3922-1.2457-1.6979-2.8836-2.7322-4.9689-3.1004-1.3889-.2452-2.7752-.2276-4.162-.0956-1.1455,.109-2.2912,.1546-3.4369,.1172-2.0356-.0664-3.2801-1.0435-3.835-3.0019-.4366-1.5409-.329-3.078,.1626-4.5921,.5192-1.5991,1.2895-3.0941,1.9462-4.6359,1.0132-2.3788,1.497-4.8217,1.1613-7.4172-.4141-3.2017-1.9849-5.4905-5.0618-6.6411-.5347-.1999-1.0835-.3786-1.6404-.4999-3.9329-.8567-7.8911-.8469-11.8317-.1363-2.6717,.4818-5.0683,1.5931-6.9008,3.7013-1.2598,1.4493-2.0788,3.1339-2.6023,4.9602-.7816,2.7266-1.1883,5.5184-1.2433,8.3524-.0532,2.7441-.0271,5.4897-.0736,8.2341-.0396,2.3337-.1673,4.666-.4828,6.9799-.4418,3.2405-1.0851,6.4496-1.5,9.6963-.4337,3.3931-.5241,6.7706,.1094,10.1439,.5615,2.9901,1.8597,5.5727,4.2412,7.5459,1.9299,1.5991,4.1699,2.568,6.562,3.2146,3.8262,1.0343,7.7373,1.3046,11.8401,1.2405Zm-82.9726-47.9492c.0656-3.42-.0979-5.7109-.7129-7.9298-1.1965-4.3168-3.837-7.2531-8.3157-8.2978-2.6208-.6114-5.2658-.642-7.9295-.2658-4.5835,.6474-7.7818,3.021-9.3571,7.4299-1.1077,3.1003-1.2651,6.3213-1.0976,9.5686,.1413,2.7389,.3601,5.4733,.3916,8.2182,.0184,1.6001-.1424,3.1889-.2048,4.7834-.0722,1.8453-.3477,3.6617-.6594,5.4764-.4919,2.8635-1.3137,5.6505-1.9541,8.4796-.8116,3.585-1.197,7.1784-.3615,10.819,.8478,3.6946,2.861,6.4809,6.3378,8.1026,1.946,.9077,4.0264,1.3359,6.1542,1.5651,2.6158,.2819,5.2263,.2906,7.846,.018,1.9653-.2045,3.8878-.5705,5.72-1.308,2.9054-1.1695,5.0408-3.1534,6.2411-6.0831,.6888-1.6811,1.0513-3.4316,1.1512-5.2446,.1544-2.8045-.1963-5.5544-.8768-8.2664-1.2238-4.8777-2.5227-9.7358-2.7012-14.8093-.0692-1.9668-.1124-3.9298-.0197-5.8936,.1177-2.4939,.2719-4.986,.3483-6.3626ZM332.4813,21.3331c-1.6484-.1696-3.1565-.0059-4.6323,.3326-7.4582,1.7106-9.6786,8.5272-8.0963,13.7816,.5512,1.8303,1.7098,3.1763,3.521,3.834,1.8525,.6727,3.6932,.9064,5.5522-.1785,1.3007-.7591,2.6878,.0402,2.9156,1.5196,.2582,1.6776-.6947,3.3277-2.299,3.9027-1.1503,.4123-2.3199,.4339-3.4856,.0181-.6542-.2333-1.3009-.5086-1.9743-.6636-2.3624-.5439-4.6254,.7749-5.1416,3.0104-.2316,1.0029-.2104,2.038,.0239,3.0464,.3068,1.3201,1.0886,2.2685,2.3401,2.8142,.7164,.3124,1.465,.4965,2.2386,.6133,2.9221,.4411,5.8127,.1639,8.6443-.5429,4.7864-1.1949,8.6596-3.7621,10.8976-8.2575,2.5519-5.1258,2.7444-10.4698,.6667-15.8135-1.3228-3.4023-3.8443-5.6397-7.3155-6.7718-1.2873-.4199-2.6161-.6672-3.8554-.645Z"></path>
      <path class="cls-1" d="M133.8174,183.182c1.4316,.0143,2.8711,.1028,4.2839-.2211,.4377-.1004,.8834-.1847,1.3048-.3343,1.2461-.4422,1.9005-1.3491,2.0355-2.6589,.1168-1.1338-.0856-2.2-.6058-3.2095-.3935-.7636-.7903-1.5255-1.184-2.289-1.7952-3.4813-.508-7.9786,3.0568-9.9993,1.4073-.7978,2.9127-1.2847,4.4977-1.5545,3.0539-.5197,6.1028-.5748,9.1527,.0535,4.7402,.9764,7.4605,4.0133,8.6359,8.5486,.7874,3.038,.843,6.1539,.674,9.2734-.2683,4.9525-.4256,9.9078,.1409,14.8475,.3497,3.0491,1.0683,6.0359,1.807,9.013,.8615,3.4723,1.4697,6.9748,1.0977,10.5697-.3322,3.2105-1.2933,6.1625-3.7234,8.4582-1.6556,1.5641-3.6699,2.4633-5.8443,2.971-3.2509,.7591-6.5511,.9347-9.8842,.6503-1.8002-.1536-3.5834-.3695-5.32-.8685-2.153-.6186-4.1346-1.5555-5.7056-3.2173-1.4614-1.5458-2.2643-3.3914-2.4738-5.4915-.3506-3.5142,.3433-6.8404,1.8904-9.9979,.6479-1.3223,1.3334-2.6261,1.9864-3.9459,.4367-.8827,.8123-1.7921,.889-2.789,.1826-2.3729-.7238-3.1718-2.323-3.5981-.5122-.1365-1.0336-.2694-1.5589-.3203-2.2909-.2223-4.5793-.2278-6.8522,.2033-.1196,.0227-.2311,.0857-.35,.1152-2.2042,.5458-2.8805,2.0449-2.4272,4.209,.228,1.0884,.7524,2.072,1.2824,3.044,.8811,1.6161,1.8162,3.2076,2.467,4.9362,1.0529,2.7964,1.5757,5.6555,1.093,8.6598-.4954,3.0831-2.0891,5.366-4.7897,6.8967-1.6587,.9401-3.4656,1.4685-5.3267,1.7869-3.4933,.5976-7.0091,.6595-10.5262,.2358-1.4622-.1762-2.9034-.4879-4.2996-.9764-4.0884-1.4306-6.5865-4.2768-7.5462-8.4857-.6649-2.916-.6183-5.8404-.136-8.7797,.5036-3.0693,1.3407-6.065,1.9481-9.1116,.9988-5.0099,1.2552-10.0551,.9775-15.1484-.1717-3.1492-.27-6.3088-.0546-9.4594,.1312-1.9189,.4979-3.8105,1.2366-5.6079,1.4233-3.4635,3.9394-5.6697,7.5897-6.537,2.6586-.6317,5.3511-.6411,8.0583-.3736,1.4325,.1415,2.8403,.3856,4.1963,.8619,2.6229,.9212,4.5532,2.5463,5.2873,5.3448,.5171,1.9711,.4278,3.8885-.5131,5.7275-.3726,.7284-.7687,1.4449-1.1357,2.176-.4651,.9267-.7476,1.8937-.6782,2.9523,.0989,1.5091,.7614,2.4427,2.1964,2.9226,.9342,.3124,1.9049,.487,2.892,.513,.8599,.0226,1.7208,.0047,2.5813,.0047Z"></path>
      <path class="cls-1" d="M158.3003,20.9255c4.1727,.0932,9.1553,.3475,14.0117,1.702,2.4979,.6967,4.8723,1.6736,7.0404,3.1155,3.8204,2.5408,6.1598,6.1561,7.534,10.4523,1.0146,3.1719,1.4731,6.4474,1.7675,9.7563,.236,2.6523,.1447,5.3221,.4808,7.9671,.3358,2.642,.9198,5.2312,1.6156,7.7993,.6733,2.485,1.3946,4.9603,1.6878,7.5315,.2993,2.6242,.2952,5.2365-.4476,7.7928-.9769,3.3621-3.1345,5.6868-6.3612,7.0268-1.983,.8236-4.0675,1.2557-6.1897,1.4596-1.8329,.1761-3.6739,.3378-5.5212,.2432-2.7456-.1407-5.4709-.4022-8.0567-1.4389-3.015-1.2087-5.2094-3.2069-6.117-6.417-.5215-1.8447-.4766-3.7273-.2608-5.6071,.2567-2.2364,1.1077-4.2608,2.2777-6.166,.3424-.5576,.6629-1.1301,.9659-1.7102,.5259-1.0068,.6968-2.0836,.6054-3.2135-.087-1.0754-.6022-1.8449-1.5682-2.3178-.0734-.0359-.1431-.0843-.2204-.1063-2.864-.8184-5.7427-.8666-8.5836,.0298-1.3209,.4168-1.9171,1.498-1.9047,2.9884,.0073,.8709,.2054,1.7082,.6066,2.4827,.3951,.7625,.8135,1.5135,1.2411,2.2584,1.9579,3.4106,2.5358,7.0618,1.7957,10.8994-.5273,2.7341-2.13,4.7367-4.538,6.1073-2.1034,1.1973-4.4099,1.7117-6.7809,1.9984-3.4003,.4111-6.7899,.2298-10.1644-.2632-1.8276-.267-3.6007-.7676-5.2694-1.5814-3.4373-1.6763-5.3163-4.4925-5.9586-8.1996-.5843-3.3722-.1876-6.6822,.629-9.9693,.7094-2.8555,1.6073-5.6626,2.1532-8.5606,.3872-2.0554,.629-4.1183,.7116-6.2109,.1486-3.7626,.3798-7.5215,1.1843-11.2173,.4711-2.1642,1.1086-4.2748,2.0571-6.2812,2.1928-4.6385,5.7821-7.7709,10.514-9.6282,3.219-1.2635,6.5789-1.9432,10.0169-2.28,2.7336-.2678,5.4711-.4229,9.0458-.4426Zm-.7828,26.9776c1.2377,.078,2.7019-.109,4.167-.2306,.8112-.0673,1.6185-.2428,2.3798-.5495,1.0144-.4086,1.7396-1.1289,1.8935-2.2303,.2936-2.1021-.1437-3.894-2.7573-4.7934-.3457-.119-.7063-.2024-1.0659-.2716-2.9607-.5698-5.938-.4989-8.9131-.1667-.8469,.0946-1.6836,.3118-2.4769,.6615-1.6447,.7249-2.438,1.9594-2.3305,3.9174,.0962,1.7514,.9905,2.6653,2.8914,3.159,.1183,.0307,.2412,.0435,.3614,.0668,1.8539,.3605,3.7293,.4454,5.8506,.4374Z"></path>
      <path class="cls-1" d="M93.6024,140.0406c-.0026-5.154,.6625-9.3586,1.2661-13.5731,.4642-3.2412,.758-6.4997,.8483-9.781,.09-3.271,.1598-6.551,.6962-9.7933,.2804-1.6946,.6183-3.3744,1.1593-5.0114,1.1205-3.3908,3.3647-5.7432,6.5789-7.223,2.1353-.9831,4.3899-1.5603,6.696-1.9432,3.1157-.5174,6.2601-.6884,9.4142-.8234,3.9379-.1686,7.8706-.0598,11.7957,.1341,5.2362,.2587,10.4462,.8145,15.4884,2.3894,2.3567,.7361,4.6009,1.705,6.6213,3.1509,2.6797,1.9178,4.4303,4.4569,5.0921,7.6943,.5914,2.8933,.4878,5.7796-.2886,8.6325-.7755,2.8492-2.5414,4.9064-5.1136,6.2989-2.3264,1.2595-4.8502,1.9416-7.4122,2.5121-.5975,.1331-1.1895,.2969-1.7747,.4769-.4331,.1332-.8258,.3582-1.1498,.6853-.9067,.9155-.723,2.1708,.4266,2.7546,.7054,.3582,1.4862,.4369,2.265,.483,1.7696,.1049,3.5148-.1767,5.2646-.3584,1.5617-.1622,3.1088-.1669,4.6293,.2646,2.8394,.8058,4.6848,2.7399,5.9511,5.3093,.9523,1.9322,1.4753,4.002,1.6523,6.1274,.2556,3.0683,.2084,6.1308-.6127,9.1437-1.2139,4.4545-4.1114,7.1716-8.5331,8.263-2.7566,.6804-5.5679,.8732-8.4129,.6266-1.7174-.1488-3.4158-.3399-5.0809-.8066-5.2381-1.4683-8.2117-4.9755-9.2259-10.2339-.3495-1.8121-.4888-3.6501-.4749-5.4976,.0158-2.0979-.1954-4.1689-.7751-6.1913-.2837-.9897-.6935-1.9231-1.3331-2.7427-1.2201-1.5635-3.2478-2.2366-5.1664-1.7132-1.1712,.3195-1.776,1.0574-1.8885,2.2721-.1327,1.4341,.2159,2.7701,.8577,4.0292,.6131,1.2027,1.2886,2.3736,1.931,3.5615,1.1909,2.2022,1.8302,4.5333,1.7499,7.0599-.1201,3.7762-1.8941,6.5274-5.1167,8.3916-1.5398,.8907-3.2234,1.4415-4.9711,1.6933-4.512,.6501-8.9865,.4288-13.3765-.8596-5.3578-1.5724-8.2664-5.3066-9.3136-10.6571-.3641-1.8601-.2654-3.7536-.3636-4.7453Zm32.5458-29.849c-1.5591-.0204-3.1158,.0403-4.6181,.4821-2.9246,.8601-4.1591,4.6283-2.3378,7.0787,.644,.8664,1.568,1.3037,2.5925,1.5033,3.6751,.7162,7.3169,.5296,10.9072-.5186,.7839-.2289,1.5151-.6111,2.1463-1.1527,1.9577-1.6798,1.7425-4.5814-.4422-5.9406-.5602-.3485-1.1726-.5753-1.8068-.7422-2.1118-.5557-4.2749-.6498-6.4413-.7101Z"></path>
      <path class="cls-1" d="M226.3999,21.1008c4.0213,.0064,7.3413,.0265,10.6502,.3162,5.0619,.4431,10.0922,1.0664,14.8806,2.9121,2.4288,.9362,4.6797,2.1619,6.5291,4.0368,2.0988,2.1276,3.1875,4.7091,3.4986,7.6584,.2472,2.3445,.1085,4.6548-.4787,6.9382-.7477,2.9072-2.5125,5.0111-5.1141,6.4432-2.2454,1.236-4.694,1.8934-7.1682,2.4708-.3983,.0929-.802,.1642-1.1977,.2665-.5153,.1332-1.0284,.2862-1.4846,.5685-.7095,.439-1.191,1.0346-1.044,1.9216,.1373,.828,.7395,1.2367,1.4994,1.4396,1.5767,.4209,3.1709,.2457,4.7633,.1245,1.8313-.1394,3.6425-.4633,5.5047-.2128,2.7463,.3695,4.8053,1.7512,6.3496,3.9782,1.3825,1.9936,2.0664,4.2623,2.4397,6.6239,.497,3.1439,.4115,6.2882-.2617,9.4002-1.0773,4.9804-4.0915,8.0852-9.0949,9.1718-4.4343,.9629-8.863,.9102-13.2467-.303-4.9823-1.3789-7.9043-4.706-9.0198-9.6972-.4131-1.8484-.5402-3.721-.5285-5.6108,.013-2.0948-.2126-4.1668-.7212-6.2022-.2293-.9176-.5893-1.7847-1.0752-2.5983-1.1745-1.9667-3.4051-2.7806-5.6388-2.2019-.8422,.2182-1.4047,.7733-1.6727,1.6396-.3199,1.0339-.1308,2.0294,.1393,3.0207,.2922,1.0723,.801,2.0539,1.348,3.0168,.7474,1.3157,1.5275,2.6139,2.0702,4.0363,.8496,2.2267,1.1591,4.5062,.7173,6.8653-.5651,3.0179-2.281,5.1978-4.9089,6.7035-1.9895,1.14-4.1704,1.7415-6.4234,1.9096-3.8942,.2907-7.7812,.1599-11.5733-.9249-2.1484-.6146-4.1257-1.5648-5.782-3.1132-2.0877-1.9516-3.2226-4.4232-3.7983-7.1514-.6294-2.9831-.6208-6.012-.408-9.0476,.2923-4.1685,1.0106-8.2814,1.5351-12.4197,.3191-2.5178,.4697-5.0559,.5186-7.5939,.0544-2.8274,.1965-5.6477,.5415-8.4536,.2448-1.9911,.641-3.9595,1.2656-5.8678,1.1219-3.4274,3.4047-5.8189,6.6727-7.295,2.254-1.0181,4.6335-1.5936,7.0651-1.9813,4.4252-.7055,8.8854-.817,12.6519-.7875Zm2.1611,27.7783c1.0835,.0707,2.2995-.1405,3.5201-.2425,.7674-.0642,1.5273-.2647,2.2798-.4479,1.0815-.2632,2.0827-.707,2.9639-1.4079,1.8004-1.4318,1.7485-4.5947-.4022-5.8824-.6356-.3806-1.3265-.6226-2.0371-.825-1.7081-.4866-3.4722-.5219-5.2217-.6282-1.8797-.1141-3.7653-.0666-5.6024,.4182-1.854,.4893-2.9777,1.6872-3.1511,3.619-.2427,2.7037,.6955,4.4396,3.4848,5.0215,1.3264,.2767,2.6641,.3989,4.1658,.3751Z"></path>
      <path class="cls-1" d="M67.722,21.0997c1.889-.0319,3.7667,.0578,5.6037,.5513,.9928,.2667,1.9391,.6424,2.8098,1.1987,1.7668,1.1289,2.727,2.7545,3.0752,4.8052,.3443,2.028,.0105,3.9907-.4251,5.955-.5398,2.4343-1.1838,4.8533-1.1055,7.3805,.0178,.574,.0629,1.1354,.2548,1.6904,.3395,.9819,1.0206,1.554,1.9987,1.8081,.9731,.2528,1.9549,.2299,2.917-.0253,1.0013-.2656,1.7126-.9279,2.229-1.8114,.753-1.2883,1.159-2.7073,1.4744-4.1441,.4556-2.0755,.8313-4.1685,1.247-6.2529,.2486-1.2463,.6214-2.4576,1.1044-3.6317,1.5524-3.7737,4.3953-6.021,8.3201-6.9509,1.3546-.321,2.7305-.5278,4.13-.549,2.7445-.0415,5.4905-.1188,8.1937,.5014,.4776,.1096,.9552,.2245,1.4239,.3665,3.2444,.9832,5.0341,3.2436,5.5643,6.5158,.4886,3.015,.4328,6.0357-.2113,9.0322-.0943,.4385-.2115,.8751-.3574,1.299-1.19,3.4565-3.4783,5.0708-7.1035,5.1357-1.5112,.027-3.025-.1649-4.5387-.187-1.7746-.0259-3.2649,.6616-4.4511,1.9887-.9397,1.0514-1.4022,2.3049-1.4527,3.6935-.0745,2.0511,1.3046,3.4726,3.4968,3.654,1.6878,.1396,3.3531-.0893,5.0105-.3624,4.3703-.7201,8.1935,1.0873,10.3688,4.9264,1.2712,2.2434,1.9055,4.6847,2.2258,7.221,.3713,2.94,.3572,5.8822-.0103,8.8198-.2293,1.833-.6617,3.6177-1.4365,5.3067-1.4938,3.2568-4.1301,5.1022-7.4992,5.9996-1.8231,.4856-3.6904,.7351-5.5806,.7745-2.8286,.0588-5.64,.0065-8.4181-.6801-5.5626-1.3748-8.7558-4.9669-10.0043-10.4507-.5121-2.2494-.6069-4.5409-.681-6.8292-.0757-2.3383-.2639-4.6568-.8064-6.936-.2661-1.1181-.6297-2.2081-1.2596-3.1796-.8099-1.2492-1.9211-1.9841-3.4719-1.9344-1.3387,.0429-2.2347,.7082-2.6191,1.9983-.4119,1.3822-.2771,2.7496,.1201,4.1117,.3463,1.1874,.9256,2.2691,1.4886,3.3594,.6755,1.3082,1.3747,2.6035,1.8905,3.9894,1.1395,3.0623,1.2043,6.1745,.3263,9.2863-.905,3.2076-3.1179,5.1975-6.2138,6.2823-1.4789,.5182-3.0162,.7944-4.5617,.9084-2.2458,.1658-4.5,.1633-6.7507-.0573-1.878-.1841-3.7245-.484-5.536-1.0343-4.9623-1.5073-7.7955-4.8937-8.7981-9.8972-.5284-2.6368-.4244-5.2964-.1404-7.9508,.3793-3.5446,1.2443-7.002,1.9438-10.4877,.9011-4.4908,1.0195-9.0028,.7368-13.5636-.2302-3.7134-.4172-7.4477,.3753-11.1386,.2673-1.245,.6578-2.4459,1.1841-3.6031,1.4464-3.1805,3.8679-5.2023,7.2334-6.1352,2.1926-.6078,4.4262-.7858,6.6862-.7671Z"></path>
      <path class="cls-1" d="M57.8702,91.7973c3.2105,.1601,5.9581,.1312,8.6914,.4168,3.9554,.4132,7.8766,.9853,11.6014,2.4656,1.9138,.7605,3.7125,1.7223,5.19,3.2004,2.8055,2.8067,3.5167,6.2036,2.6642,9.9552-.4341,1.9105-1.7017,3.2322-3.5631,3.9294-.808,.3026-1.6443,.5264-2.5043,.5694-2.706,.1356-5.4109,.0335-8.0924-.3284-3.363-.454-6.7032-1.0833-10.0707-1.4947-2.0245-.2474-4.0808-.3227-6.1158,.1078-3.3243,.7032-5.404,2.7603-6.4297,5.9241-.6796,2.0963-.8065,4.2842-.5055,6.4418,.4513,3.2353,2.2131,5.1192,5.747,5.8297,1.7773,.3574,3.5779,.3881,5.3727,.0362,.6924-.1357,1.347-.3638,1.924-.7656,1.0844-.7553,1.2721-2.0831,.4268-3.1043-.311-.3757-.6923-.6965-1.0601-1.0213-.7809-.6895-1.4987-1.3938-1.4731-2.5606,.0299-1.3617,.3693-2.5844,1.3776-3.5621,.5993-.5811,1.3135-.9678,2.0778-1.2776,1.3397-.5431,2.752-.7908,4.1733-.9569,3.1822-.3721,6.3814-.3633,9.5739-.2272,1.8763,.08,3.7352,.3567,5.5612,.8827,3.6227,1.0436,5.3308,4.2142,5.418,7.3631,.0437,1.5766-.328,3.0918-.6198,4.612-.586,3.0535-.3379,6.0203,.6631,8.945,.5823,1.7014,1.1995,3.3927,1.7194,5.1132,.7519,2.4886,1.1079,5.014,.6669,7.6284-.5203,3.0847-2.3861,5.1049-5.4491,5.7107-2.1928,.4337-4.4029,.3332-6.608,.1409-1.1812-.103-2.3543-.2994-3.4889-.6658-3.5023-1.1311-5.0301-3.4931-4.7707-7.5764,.1125-1.7712,.7643-3.4261,1.1805-5.1307,.2283-.9349,.2573-1.8659,.1753-2.8039-.1114-1.2751-.8079-2.159-1.7952-2.3716-1.2094-.2605-2.2427,.2003-2.9273,1.3001-.5061,.813-.737,1.7231-.9468,2.6419-.4643,2.0337-.9871,4.0494-1.7539,5.9958-1.8946,4.809-5.4046,7.6814-10.442,8.7223-2.6184,.541-5.2655,.6726-7.9359,.5975-2.6659-.0749-5.3139-.2644-7.9198-.8532-3.9085-.8832-7.4433-2.476-10.2573-5.4338-2.3454-2.4653-3.759-5.4387-4.6827-8.6603-.9166-3.197-1.3821-6.4749-1.5215-9.7967-.0892-2.1269-.2697-4.2515-.1794-6.3839,.1839-4.341,.6044-8.64,1.8689-12.8312,2.6417-8.7558,8.2064-14.737,16.7949-17.9049,3.6321-1.3397,7.3927-2.0524,11.2334-2.4555,2.4913-.2614,4.9909-.1978,7.0111-.3632Z"></path>
      <path class="cls-1" d="M397.4864,156.6152c-3.4458,.0556-7.0879-.1404-10.7147-.5166-2.9729-.3083-5.9207-.8131-8.7144-1.9488-1.8411-.7484-3.5137-1.7509-4.8113-3.3029-1.553-1.8575-2.2503-4.0562-2.5833-6.4003-.4418-3.1091-.2369-6.2078,.1713-9.303,.5028-3.8119,1.0322-7.6207,1.4778-11.4394,.1942-1.6646,.2569-3.3491,.2931-5.0264,.0575-2.6626-.0041-5.3281,.0711-7.99,.0833-2.9448,.2318-5.8864,.9167-8.7762,1.0268-4.3322,3.4874-7.3201,7.849-8.6053,1.9314-.5691,3.9047-.8774,5.8993-1.1107,2.7333-.3198,5.4839-.3743,8.2218-.3675,3.9274,.0098,7.8546,.1712,11.7526,.8151,3.9359,.6501,7.7679,1.6127,11.4066,3.2619,7.8919,3.5768,13.0919,9.4816,15.4352,17.8626,.8982,3.2123,1.3673,6.4821,1.4236,9.8097,.0485,2.8666,.0866,5.7338-.2534,8.5919-.4729,3.9756-1.4226,7.8044-3.428,11.3102-2.6537,4.6392-6.6406,7.7108-11.5271,9.6975-3.5081,1.4262-7.1704,2.2468-10.9179,2.7358-3.9059,.5097-7.8259,.7437-11.9681,.7022Zm2.876-30.4372c1.8479,.0022,3.2776-.0525,4.6949-.2918,1.3756-.2323,2.7215-.5585,3.9663-1.2158,1.5415-.8139,2.5412-2.0526,2.8409-3.7807,.4994-2.8785-.3913-5.1024-3.14-6.3452-.636-.2875-1.2877-.518-1.9609-.6927-1.4316-.3716-2.8987-.4801-4.3655-.6085-1.7204-.1506-3.4361-.1641-5.1382,.1335-1.7827,.3116-3.1425,1.2099-3.6362,3.0411-.5883,2.1822-.5476,4.381,.1873,6.5239,.5408,1.5769,1.6653,2.5629,3.3048,2.9955,1.214,.3204,2.4384,.2076,3.2464,.2407Z"></path>
      <path class="cls-1" d="M68.1346,227.4679c-3.4046,.0686-6.7984-.0969-10.1731-.5426-3.2945-.4352-6.5198-1.1714-9.5957-2.4633-5.9685-2.507-9.8225-6.9162-11.7016-13.0791-.838-2.7485-1.2669-5.5694-1.5312-8.4292-.2912-3.1502-.2988-6.3031-.1709-9.4517,.1733-4.2653,.8284-8.4641,2.2439-12.5138,3.0013-8.5861,8.9024-14.1334,17.6122-16.6914,3.512-1.0315,7.1153-1.496,10.775-1.5952,3.5253-.0956,7.0444-.0042,10.5472,.3665,2.9295,.31,5.8356,.7952,8.5965,1.9063,1.1048,.4446,2.1688,.9599,3.1486,1.6411,2.3672,1.6458,3.8543,3.8749,4.3466,6.7181,.4947,2.8569,.4956,5.7029-.4707,8.4834-.817,2.3509-2.4547,3.7197-4.942,4.0021-.8954,.1017-1.7967,.0364-2.6979-.0446-2.8204-.2536-5.5417-1.0565-8.332-1.4681-1.8212-.2686-3.6401-.5204-5.4923-.1594-3.1426,.6126-4.8325,2.9076-4.337,6.3007,.1935,1.3252,1.0074,2.3034,2.1692,2.9769,1.4365,.8328,3.0142,.9778,4.6269,.9458,3.5681-.0708,7.0907-.6036,10.6253-1.0269,1.3818-.1655,2.7852-.2214,4.1729-.0704,2.5381,.2761,4.4212,1.5902,5.7124,3.7753,1.0579,1.7903,1.5906,3.7544,1.9046,5.7888,.4271,2.7676,.4545,5.5563,.2245,8.3328-.371,4.4796-1.893,8.4474-5.5145,11.37-2.0755,1.675-4.4795,2.6928-7.0204,3.4016-2.4883,.6942-5.034,1.058-7.6074,1.2936-2.3719,.2171-4.7445,.2191-7.119,.2325Z"></path>
      <path class="cls-1" d="M205.0345,162.6062c2.7717,.0922,6.9531,.1002,11.1181,.458,2.4449,.21,4.8831,.5151,7.2529,1.1996,1.0238,.2958,2.0158,.6712,2.939,1.2172,1.5197,.8987,2.5337,2.168,2.941,3.9041,.5232,2.2299,.5399,4.4545-.0152,6.6824-.689,2.7655-2.4942,4.3299-5.5923,4.3576-2.0466,.0183-4.0829-.2383-6.1041-.5798-3.4298-.5796-6.8526-1.2201-10.3589-1.0897-.9085,.0338-1.7885,.1785-2.6476,.4675-1.8726,.63-2.7221,2.2587-2.3251,4.3082,.2603,1.3441,1.3781,2.2369,2.9325,2.3673,1.595,.1338,3.2007,.1216,4.7816-.1312,2.8257-.4519,5.6349-1.008,8.4621-1.4492,1.7805-.2779,3.5871-.3844,5.384-.1406,1.8102,.2456,3.1258,1.1976,3.7245,2.9616,.7166,2.1114,.7648,4.2813,.1445,6.406-.5629,1.9282-1.9387,3.0398-3.9365,3.445-1.6136,.3273-3.1891,.0743-4.759-.1653-2.9101-.4441-5.743-1.2963-8.6593-1.7195-1.4588-.2117-2.9224-.4021-4.4021-.3419-.3652,.0149-.7342,.0659-1.0906,.1477-1.5887,.3649-2.4625,1.1828-2.6293,2.5397-.1883,1.5316,.2072,2.8515,1.594,3.7182,1.0726,.6704,2.276,.8977,3.5155,.9462,2.5079,.0981,4.986-.2017,7.4548-.6027,3.2756-.532,6.5593-.9847,9.8896-.9237,.7363,.0135,1.4856-.0025,2.2051,.1272,2.2946,.4135,3.9336,1.7004,4.929,3.8249,.5995,1.2794,.9354,2.635,1.0558,4.0158,.2385,2.7371,.2715,5.4832-.2423,8.2023-.7772,4.1127-3.2451,6.7696-7.1138,8.217-2.3906,.8944-4.8719,1.4046-7.3932,1.7077-6.1135,.7348-12.2575,.8517-18.4023,.6927-4.3354-.1122-8.6735-.3195-12.9486-1.1646-2.6185-.5176-5.1687-1.2235-7.5145-2.5522-3.0452-1.7249-4.8266-4.3599-5.5563-7.7264-.5854-2.7005-.5945-5.4313-.3782-8.184,.3179-4.047,1.1535-8.011,1.7591-12.012,.3183-2.1027,.5396-4.2188,.5746-6.3537,.0511-3.1121,.1058-6.2263,.2684-9.3338,.1346-2.5733,.5169-5.1208,1.1788-7.6243,1.0985-4.1546,3.7037-6.8238,7.7934-8.0864,2.1994-.679,4.4553-1.0777,6.7379-1.2873,3.9996-.3672,8.0114-.5069,13.4329-.4455Z"></path>
      <path class="cls-1" d="M267.7218,162.6024c1.6506,.0455,4.7261,.0586,7.7922,.2338,3.5514,.203,7.1099,.4397,10.5616,1.4182,.9854,.2793,1.9354,.6433,2.8365,1.1443,1.6739,.9306,2.7389,2.307,3.1427,4.1785,.4642,2.1512,.4852,4.3058-.064,6.4451-.7559,2.9441-2.6231,4.4214-5.6757,4.407-2.0061-.0095-4.0018-.2408-5.9822-.5745-3.4297-.5779-6.8507-1.223-10.3567-1.1007-.9931,.0346-1.9625,.1711-2.8822,.5332-1.9307,.7602-2.8228,3.0282-1.9176,4.8953,.53,1.093,1.5033,1.6096,2.6668,1.7096,1.6354,.1405,3.2799,.1259,4.9024-.1385,2.7839-.4536,5.5541-.9919,8.3402-1.4305,1.781-.2803,3.5867-.3857,5.3837-.1493,1.9149,.2519,3.2422,1.2784,3.8446,3.1526,.564,1.7549,.6226,3.5694,.2856,5.3444-.6099,3.2121-2.6268,4.3779-5.5752,4.4648-1.5959,.047-3.1768-.2462-4.7448-.5604-2.4047-.4818-4.7798-1.1113-7.2106-1.4624-1.4592-.2108-2.9217-.4024-4.4012-.3501-.3654,.0129-.735,.0593-1.0917,.1393-1.607,.3605-2.4494,1.1627-2.6687,2.5107-.2594,1.5951,.3464,3.0102,1.6689,3.8015,1.0811,.6469,2.2843,.8646,3.5275,.9062,2.4673,.0824,4.9051-.2068,7.3326-.5992,3.3165-.5362,6.6393-.9994,10.0106-.9317,.7357,.0148,1.4843,.0104,2.2028,.1447,2.4019,.4488,4.0334,1.8685,4.9812,4.1066,.5485,1.2954,.8624,2.6581,.957,4.0432,.1618,2.3689,.1648,4.7383-.1604,7.1084-.6104,4.4473-3.0315,7.398-7.1958,8.9713-2.4253,.9163-4.9494,1.4222-7.5127,1.7284-6.0323,.7206-12.0935,.8356-18.1563,.6881-4.3769-.1065-8.754-.3206-13.0713-1.1624-2.5804-.5032-5.0919-1.1962-7.4135-2.4751-3.1044-1.7101-4.9343-4.3582-5.6898-7.7697-.6071-2.7414-.6113-5.5173-.3842-8.3076,.3291-4.0438,1.1612-8.0097,1.7677-12.0107,.3248-2.1426,.533-4.3018,.5699-6.4768,.052-3.0711,.107-6.1442,.2692-9.2107,.1339-2.532,.5203-5.0366,1.1625-7.5021,1.1111-4.2656,3.8079-6.9404,7.9985-8.187,2.1265-.6326,4.3015-1.0186,6.5013-1.2229,3.9991-.3714,8.0109-.5062,13.449-.4528Z"></path>
      <path class="cls-1" d="M394.2123,162.5964c2.0026,.0551,5.078,.072,8.1447,.2428,3.1845,.1774,6.3717,.4154,9.4905,1.1665,1.3969,.3364,2.7609,.7578,3.9997,1.5103,1.4652,.8901,2.4804,2.1285,2.873,3.8171,.5467,2.3514,.5882,4.7104-.0984,7.0389-.7751,2.6287-2.5841,4.015-5.3317,4.0549-2.0908,.0304-4.1669-.2264-6.2281-.5698-3.4313-.5716-6.8516-1.2228-10.3582-1.1033-.9932,.0339-1.9576,.1824-2.8834,.529-2.3115,.8653-2.6604,3.4323-1.8582,4.998,.5371,1.0483,1.4868,1.5098,2.5954,1.6115,1.5944,.1463,3.1943,.0876,4.7837-.1081,2.3564-.2901,4.669-.8319,7.0028-1.2524,2.0622-.3717,4.1436-.5408,6.2377-.4142,2.6148,.1581,4.0596,1.3664,4.6491,3.9108,.3733,1.6111,.4236,3.2513,.0683,4.8718-.5891,2.687-2.4832,4.1767-5.4074,4.2421-1.6427,.0368-3.2607-.2514-4.8691-.5631-2.3678-.4588-4.6979-1.1023-7.089-1.4481-1.4187-.2052-2.8392-.3835-4.277-.3774-.4943,.0021-.9741,.0682-1.4589,.1709-1.2703,.2691-2.1673,.9269-2.4873,2.237-.3253,1.3318-.0645,2.5255,.9088,3.5104,1.0476,1.0601,2.4268,1.3266,3.8269,1.4233,2.0505,.1417,4.0943-.0443,6.1228-.3436,3.846-.5673,7.6789-1.2521,11.59-1.1664,.9402,.0206,1.8752,.0216,2.8009,.2789,1.8455,.5131,3.184,1.6125,4.0711,3.297,.6379,1.2113,1.0102,2.5134,1.184,3.8516,.4139,3.187,.3772,6.3663-.3781,9.5141-.7798,3.25-2.74,5.5186-5.731,6.9366-2.2395,1.0617-4.6266,1.6108-7.0576,1.9933-3.1186,.4907-6.262,.6682-9.4137,.8201-3.4831,.1678-6.9653,.1983-10.445,.1016-4.3363-.1205-8.6736-.3215-12.9497-1.1575-2.2129-.4327-4.3772-1.0123-6.4362-1.9615-3.738-1.7233-5.9722-4.6238-6.7549-8.6318-.4485-2.2971-.5184-4.6177-.3804-6.9657,.2433-4.1398,1.087-8.1855,1.7155-12.266,.2926-1.8998,.58-3.8016,.6231-5.7313,.0714-3.194,.1393-6.3885,.2577-9.581,.0986-2.6618,.468-5.2929,1.0384-7.8974,1.0957-5.0032,4.1952-7.9901,9.1317-9.171,2.1136-.5056,4.2481-.8424,6.4146-1.0243,3.759-.3157,7.5231-.4325,12.363-.395Z"></path>
      <path class="cls-1" d="M338.0079,91.7988c4.0505,.1727,8.1127,.0626,12.1546,.4409,2.5242,.2362,5.0496,.4958,7.5003,1.2002,.5496,.1579,1.0974,.3297,1.6307,.535,3.0417,1.1709,4.6215,3.3882,4.7103,6.6498,.04,1.4725,.0946,2.9431-.2428,4.4007-.7032,3.0383-2.6482,4.6227-5.7751,4.6141-2.5467-.007-5.0534-.4047-7.5551-.8384-2.8657-.4967-5.7389-.9199-8.6617-.8375-.9476,.0267-1.8704,.1817-2.773,.4656-2.2835,.7181-2.8219,2.9709-2.2182,4.7586,.3613,1.0698,1.2345,1.6258,2.2829,1.8477,.9184,.1944,1.8571,.2224,2.809,.1752,3.2446-.1608,6.3937-.9035,9.571-1.4776,2.0233-.3656,4.0626-.5098,6.115-.4008,2.6959,.1431,4.3071,1.6151,4.7274,4.2763,.2182,1.3812,.3092,2.7518,.044,4.1493-.5461,2.8787-2.3854,4.4941-5.356,4.5922-1.7312,.0572-3.4233-.2614-5.111-.5888-2.4477-.4749-4.857-1.156-7.3348-1.4624-1.6986-.2101-3.4019-.5442-5.1284-.1929-1.7831,.3628-2.6001,1.1246-2.8064,2.7684-.2173,1.7306,.5947,3.0121,1.8846,3.6789,.9973,.5156,2.0751,.7264,3.1949,.7654,2.6321,.0917,5.2304-.2115,7.8197-.6368,3.2756-.5381,6.5627-.8871,9.8925-.8963,4.5347-.0125,6.6421,2.4635,7.4364,5.7815,.9102,3.8025,.8641,7.6303-.0863,11.4255-.7518,3.0021-2.6059,5.1346-5.3517,6.524-2.2541,1.1406-4.6769,1.7171-7.1452,2.1181-4.2939,.6977-8.6302,.8911-12.9704,.963-4.2197,.0699-8.4423,.0826-12.6535-.2491-3.8765-.3054-7.7402-.7195-11.4649-1.9388-1.0127-.3315-1.9921-.7396-2.9413-1.2243-3.5431-1.8094-5.562-4.7407-6.2431-8.6049-.5297-3.0054-.4162-6.0318-.1242-9.0578,.3697-3.8316,1.21-7.5895,1.7462-11.394,.3544-2.515,.4676-5.0537,.5213-7.5918,.0598-2.8245-.001-5.6522,.2838-8.4695,.2595-2.5671,.6121-5.1134,1.4612-7.5681,1.0837-3.1328,3.1658-5.2947,6.2431-6.5142,2.0302-.8045,4.1484-1.2439,6.3037-1.5218,2.2748-.2933,4.5563-.5108,6.8534-.5259,2.253-.0147,4.5021-.2144,6.7571-.1385Z"></path>
      <path class="cls-1" d="M375.3714,85.7954c-4.2945-.073-9.0362-.2844-13.7135-1.2214-2.8996-.5809-5.7202-1.4061-8.3101-2.8828-3.283-1.872-5.6242-4.5085-6.3955-8.2853-.915-4.4807-.5464-8.8216,2.0017-12.7524,1.774-2.7368,4.37-4.0879,7.6603-4.1096,2.6691-.0176,5.1825,.6461,7.6356,1.6138,1.4076,.5553,2.8055,1.1352,4.2108,1.6964,1.8772,.7497,3.8373,1.1358,5.8441,1.3119,.8275,.0726,1.6441-.0423,2.4346-.2485,1.5148-.3951,2.338-1.5585,2.279-3.081-.0495-1.2788-.8124-2.0222-1.8985-2.4733-1.2597-.5232-2.6084-.6521-3.9561-.7834-4.4803-.4364-8.9491-.9496-13.2958-2.1993-1.6987-.4884-3.3292-1.1401-4.8502-2.041-2.5367-1.5026-4.3138-3.632-5.12-6.488-1.0008-3.5455-1.0259-7.1187-.0019-10.6601,1.0069-3.4827,3.2615-5.9978,6.3593-7.793,2.6874-1.5574,5.6179-2.4407,8.6476-3.0165,3.5077-.6666,7.0515-.9787,10.6219-1.006,3.8931-.0297,7.7881-.0446,11.6681,.304,4.1188,.3701,8.2197,.8774,12.1113,2.411,1.2633,.4979,2.4543,1.1252,3.5324,1.9568,2.0782,1.6031,3.125,3.7317,3.2272,6.3395,.0468,1.1943-.0634,2.3648-.4484,3.5095-.9083,2.7007-3.0127,4.3238-5.8375,4.4747-2.1556,.1151-4.2351-.2675-6.281-.9156-2.26-.7159-4.4654-1.5974-6.7688-2.1833-1.9589-.4983-3.9389-.7296-5.9583-.6473-.746,.0304-1.4667,.1703-2.1389,.4884-.954,.4513-1.5466,1.1659-1.6212,2.2708-.074,1.0976,.3737,1.8973,1.2768,2.4778,.7345,.4721,1.5576,.7169,2.3942,.9172,1.7569,.4206,3.5607,.5126,5.3446,.7441,3.8576,.5007,7.689,1.1199,11.365,2.4611,1.6221,.5918,3.1669,1.3387,4.5966,2.3069,2.9398,1.9908,4.8739,4.7342,5.7461,8.1492,1.2625,4.9431,1.1319,9.9069-.2948,14.7959-1.3525,4.6347-4.2838,8.0319-8.5263,10.3149-3.1719,1.7069-6.5883,2.6625-10.1131,3.2654-4.2904,.7339-8.6223,.9581-13.4273,.9787Z"></path>
      <path class="cls-1" d="M329.2199,162.9644c3.1966,.0023,6.3956,.0241,9.5781,.3455,3.9116,.395,7.8069,.9001,11.4947,2.3899,1.6094,.6502,3.0986,1.4821,4.3362,2.7258,1.3876,1.3945,2.1563,3.0645,2.2815,5.026,.0944,1.4798,.0707,2.9468-.4887,4.3568-1.0245,2.5822-2.9315,3.97-5.6879,4.1671-2.1538,.154-4.2396-.237-6.2803-.9057-1.9817-.6493-3.9546-1.3274-5.9482-1.9378-2.2072-.6757-4.4717-.9789-6.7867-.8874-.8342,.033-1.6314,.1968-2.3638,.5827-1.8934,.9977-1.9944,3.4478-.1999,4.619,1.1266,.7353,2.4195,1,3.7132,1.1877,2.0648,.2995,4.1463,.4837,6.2124,.7752,3.6548,.5156,7.2565,1.2669,10.6618,2.7476,3.1614,1.3747,5.779,3.4024,7.5007,6.454,1.1861,2.1023,1.8172,4.3986,2.0159,6.7731,.2944,3.5184,.2334,7.0336-.6546,10.4938-1.2695,4.9471-4.1106,8.6663-8.5786,11.1466-2.8943,1.6067-6.0161,2.5553-9.2436,3.1842-3.2213,.6277-6.4816,.8773-9.7573,1.0644-3.5708,.2039-7.1322,.0953-10.686-.1292-4.623-.2921-9.2079-.909-13.5525-2.6589-2.5773-1.038-4.9097-2.4391-6.659-4.6723-1.482-1.892-2.2595-4.049-2.5432-6.4167-.3316-2.7672-.0803-5.4752,.7873-8.1179,.5825-1.7743,1.4934-3.37,2.8531-4.6723,1.602-1.5344,3.5219-2.3401,5.7442-2.441,2.9258-.1329,5.6765,.5824,8.365,1.6526,2.164,.8615,4.2703,1.8839,6.5557,2.4159,1.7218,.4008,3.4553,.6622,5.228,.3877,2.0658-.3199,3.1551-1.8226,2.7309-3.7367-.2188-.9868-.8926-1.5408-1.7598-1.8955-1.2245-.5009-2.5238-.653-3.8319-.7842-4.4793-.4496-8.9509-.9543-13.3022-2.1898-1.2631-.3586-2.488-.8146-3.6738-1.3731-3.7819-1.7812-6.1352-4.689-6.8789-8.829-.5129-2.8552-.4773-5.7063,.2528-8.5262,.8249-3.1863,2.6377-5.6873,5.3339-7.5577,2.5293-1.7546,5.3684-2.7759,8.3386-3.4615,3.927-.9064,7.9177-1.2657,11.9414-1.3013,.9837-.0087,1.9676-.0013,2.9513-.0013Z"></path>
      <path class="cls-1" d="M292.7734,85.5772c-3.5089,.0792-7.0949-.1828-10.6257-1.0044-1.7587-.4092-3.4535-1.0024-5.0579-1.8444-3.4325-1.8013-5.6144-4.5833-6.4809-8.355-.7316-3.1847-.7165-6.4121-.4114-9.6495,.3767-3.996,1.2705-7.9158,1.7341-11.897,.1844-1.5831,.3468-3.1741,.3401-4.7766-.0117-2.7863-.0338-5.5737,.0306-8.3587,.0711-3.0728,.3839-6.1237,1.2114-9.1003,.2411-.8675,.5494-1.7093,.9153-2.5351,1.4022-3.165,3.8174-5.1595,7.0913-6.1467,1.4917-.4498,3.0243-.6918,4.5863-.7922,2.5842-.1661,5.1565-.1319,7.715,.2826,1.3375,.2167,2.6299,.5878,3.8434,1.2164,1.8486,.9576,3.0486,2.4387,3.632,4.4248,.893,3.0398,.5432,5.9896-.673,8.8702-.6362,1.507-1.322,2.9944-1.9139,4.5184-.6031,1.553-.8124,3.1539-.3862,4.8128,.5184,2.0181,1.8546,3.1437,3.9559,3.1899,1.2692,.0279,2.5371-.0143,3.8058-.1348,1.2207-.1159,2.4423-.1232,3.672,.0879,2.3274,.3996,4.0736,1.606,5.3443,3.5638,1.1813,1.8201,1.7946,3.8527,2.1623,5.9572,.7295,4.1744,.9506,8.3786,.4735,12.5984-.2681,2.3709-.8267,4.6735-1.9817,6.7904-1.8563,3.4019-4.8534,5.3528-8.43,6.5256-2.617,.8581-5.3244,1.2632-8.0623,1.5136-2.1252,.1944-4.2518,.259-6.4906,.2427Z"></path>
      <path class="cls-1" d="M228.932,156.3879c-4.2526,.0621-8.1634-.2045-11.99-1.2404-1.6241-.4396-3.1769-1.0502-4.6441-1.8916-3.5078-2.0115-5.4828-5.0624-6.1746-8.9928-.5797-3.2938-.5214-6.5895-.095-9.9023,.4073-3.1648,1.0128-6.2963,1.4598-9.4529,.3331-2.352,.5014-4.7221,.5328-7.0978,.0373-2.8265-.0023-5.6545,.0668-8.48,.0682-2.7891,.4599-5.5424,1.2253-8.2325,.474-1.6658,1.1699-3.2292,2.2374-4.6087,1.6247-2.0994,3.8058-3.366,6.3409-3.9494,4.286-.9863,8.6041-.9797,12.9096-.0623,.5963,.1271,1.1825,.3345,1.7483,.566,2.8862,1.181,4.3745,3.3838,4.814,6.4354,.3877,2.6921-.156,5.1905-1.196,7.6479-.7475,1.7663-1.6888,3.4586-2.1151,5.3537-.2834,1.2598-.3089,2.5148,.0493,3.7617,.5557,1.9343,1.8187,2.9348,3.8431,3.0035,1.1049,.0375,2.2105-.0035,3.3148-.1061,1.3459-.1251,2.6876-.1533,4.0407,.0463,2.7361,.4035,4.6377,1.9161,5.9337,4.281,.9749,1.7789,1.4892,3.7131,1.8325,5.6949,.6469,3.7341,.6718,7.5011,.4655,11.2675-.0939,1.7137-.4288,3.4055-.9545,5.0518-1.2728,3.9861-3.8563,6.7711-7.679,8.4365-2.3836,1.0384-4.8916,1.6157-7.4532,1.9508-2.9255,.3827-5.8662,.599-8.5129,.5196Z"></path>
      <path class="cls-1" d="M280.1739,156.3894c-4.1028,.0641-8.0139-.2062-11.8401-1.2405-2.3921-.6467-4.6321-1.6155-6.562-3.2146-2.3815-1.9733-3.6797-4.5558-4.2412-7.5459-.6335-3.3734-.5432-6.7508-.1094-10.1439,.415-3.2467,1.0582-6.4558,1.5-9.6963,.3155-2.314,.4432-4.6462,.4828-6.9799,.0465-2.7443,.0204-5.4899,.0736-8.2341,.055-2.8341,.4617-5.6259,1.2433-8.3524,.5236-1.8263,1.3425-3.5109,2.6023-4.9602,1.8325-2.1082,4.2291-3.2196,6.9008-3.7013,3.9406-.7106,7.8988-.7204,11.8317,.1363,.5569,.1213,1.1057,.3,1.6404,.4999,3.077,1.1506,4.6477,3.4394,5.0618,6.6411,.3357,2.5955-.1481,5.0384-1.1613,7.4172-.6567,1.5418-1.427,3.0368-1.9462,4.6359-.4916,1.5141-.5992,3.0513-.1626,4.5921,.5549,1.9584,1.7994,2.9355,3.835,3.0019,1.1456,.0374,2.2914-.0082,3.4369-.1172,1.3868-.1319,2.7731-.1495,4.162,.0956,2.0853,.3681,3.7232,1.4025,4.9689,3.1004,1.1872,1.6181,1.8686,3.4626,2.2615,5.3922,1.0545,5.1787,1.2666,10.3967,.3396,15.6167-.9706,5.4658-4.1067,9.1604-9.3394,11.0421-2.202,.7919-4.4802,1.2601-6.804,1.5454-2.7691,.3401-5.544,.5128-8.1745,.4696Z"></path>
      <path class="cls-1" d="M197.2013,108.4403c-.0765,1.3766-.2306,3.8687-.3483,6.3626-.0927,1.9638-.0495,3.9268,.0197,5.8936,.1785,5.0735,1.4773,9.9316,2.7012,14.8093,.6805,2.712,1.0312,5.462,.8768,8.2664-.0998,1.813-.4624,3.5635-1.1512,5.2446-1.2003,2.9297-3.3357,4.9136-6.2411,6.0831-1.8322,.7375-3.7547,1.1035-5.72,1.308-2.6197,.2726-5.2302,.2639-7.846-.018-2.1278-.2293-4.2082-.6575-6.1542-1.5651-3.4768-1.6217-5.4899-4.408-6.3378-8.1026-.8355-3.6407-.4501-7.234,.3615-10.819,.6404-2.829,1.4622-5.6161,1.9541-8.4796,.3117-1.8147,.5872-3.6311,.6594-5.4764,.0624-1.5945,.2232-3.1832,.2048-4.7834-.0315-2.7449-.2503-5.4793-.3916-8.2182-.1675-3.2473-.0101-6.4683,1.0976-9.5686,1.5752-4.4089,4.7736-6.7825,9.3571-7.4299,2.6636-.3762,5.3087-.3456,7.9295,.2658,4.4786,1.0448,7.1192,3.981,8.3157,8.2978,.615,2.2188,.7785,4.5097,.7129,7.9298Z"></path>
      <path class="cls-1" d="M332.4813,21.3331c1.2393-.0222,2.5681,.2251,3.8554,.645,3.4711,1.1322,5.9926,3.3695,7.3155,6.7718,2.0776,5.3437,1.8852,10.6877-.6667,15.8135-2.238,4.4954-6.1112,7.0626-10.8976,8.2575-2.8315,.7069-5.7222,.984-8.6443,.5429-.7736-.1168-1.5222-.3009-2.2386-.6133-1.2515-.5456-2.0333-1.4941-2.3401-2.8142-.2343-1.0084-.2556-2.0435-.0239-3.0464,.5163-2.2355,2.7792-3.5543,5.1416-3.0104,.6734,.155,1.3201,.4303,1.9743,.6636,1.1658,.4158,2.3353,.3941,3.4856-.0181,1.6043-.575,2.5572-2.225,2.299-3.9027-.2277-1.4794-1.6148-2.2788-2.9156-1.5196-1.859,1.085-3.6997,.8513-5.5522,.1785-1.8112-.6578-2.9699-2.0037-3.521-3.834-1.5823-5.2544,.6381-12.0709,8.0963-13.7816,1.4759-.3385,2.9839-.5022,4.6323-.3326Z"></path>
      <path class="cls-2" d="M157.5174,47.903c-2.1212,.0079-3.9967-.0769-5.8506-.4374-.1203-.0234-.2432-.0361-.3614-.0668-1.9009-.4937-2.7952-1.4076-2.8914-3.159-.1075-1.958,.6857-3.1925,2.3305-3.9174,.7933-.3497,1.63-.5669,2.4769-.6615,2.9751-.3322,5.9524-.4031,8.9131,.1667,.3596,.0692,.7203,.1527,1.0659,.2716,2.6136,.8994,3.0509,2.6913,2.7573,4.7934-.1539,1.1013-.8791,1.8216-1.8935,2.2303-.7613,.3067-1.5686,.4822-2.3798,.5495-1.4651,.1216-2.9293,.3085-4.167,.2306Z"></path>
      <path class="cls-2" d="M126.1481,110.1916c2.1664,.0603,4.3295,.1544,6.4413,.7101,.6342,.1669,1.2465,.3936,1.8068,.7422,2.1847,1.3591,2.3999,4.2608,.4422,5.9406-.6312,.5416-1.3625,.9239-2.1463,1.1527-3.5903,1.0482-7.2321,1.2348-10.9072,.5186-1.0245-.1997-1.9485-.6369-2.5925-1.5033-1.8213-2.4505-.5868-6.2186,2.3378-7.0787,1.5023-.4418,3.059-.5025,4.6181-.4821Z"></path>
      <path class="cls-2" d="M228.561,48.8791c-1.5017,.0238-2.8394-.0984-4.1658-.3751-2.7893-.5819-3.7275-2.3178-3.4848-5.0215,.1734-1.9319,1.2971-3.1297,3.1511-3.619,1.837-.4848,3.7227-.5324,5.6024-.4182,1.7495,.1062,3.5136,.1416,5.2217,.6282,.7106,.2024,1.4015,.4445,2.0371,.825,2.1507,1.2876,2.2026,4.4505,.4022,5.8824-.8812,.7008-1.8825,1.1447-2.9639,1.4079-.7526,.1831-1.5125,.3837-2.2798,.4479-1.2206,.102-2.4366,.3132-3.5201,.2425Z"></path>
      <path class="cls-2" d="M400.3624,126.178c-.8081-.033-2.0325,.0797-3.2464-.2407-1.6395-.4326-2.764-1.4186-3.3048-2.9955-.7349-2.1429-.7757-4.3417-.1873-6.5239,.4937-1.8312,1.8536-2.7294,3.6362-3.0411,1.7021-.2975,3.4178-.284,5.1382-.1335,1.4669,.1284,2.9339,.2369,4.3655,.6085,.6732,.1747,1.3249,.4052,1.9609,.6927,2.7487,1.2428,3.6393,3.4666,3.14,6.3452-.2998,1.7281-1.2994,2.9668-2.8409,3.7807-1.2448,.6572-2.5908,.9834-3.9663,1.2158-1.4173,.2394-2.847,.294-4.6949,.2918Z"></path>
    </g>
  </g>
</svg>
