<?xml version="1.0" encoding="UTF-8"?>
<svg xmlns="http://www.w3.org/2000/svg" width="112" height="125" viewBox="0 0 112 125" fill="none">
  <g clip-path="url(#clip0_602_9187)">
    <path d="M92.0686 11.0266C87.3436 7.86496 80.0908 5.26933 71.6519 3.66902C65.9547 2.63467 60.1602 2.12726 54.4241 2.12726V2.42V2.12726C50.7297 2.12726 46.9769 2.34193 43.3213 2.77129C37.4686 3.43483 29.9241 5.4645 25.063 7.16239C25.0436 7.16239 25.0241 7.1819 25.0047 7.1819C22.088 7.88448 19.2686 9.01641 16.663 10.5777C14.4463 11.9048 12.4436 13.6222 10.6936 15.6518C7.58245 19.438 5.83245 24.0828 5.65745 29.0984C5.57967 31.5184 6.14356 33.3724 7.38801 34.6019C8.24356 35.4996 9.41023 36.0266 10.6936 36.0656H10.713C10.7325 36.0656 10.7519 36.0656 10.7519 36.0656C10.9852 36.0461 11.1991 36.0461 11.4519 36.0461C11.4908 36.0461 11.5102 36.0461 11.5491 36.0461C11.6269 36.0266 11.7241 36.0266 11.8019 36.0266C11.8019 36.0266 11.8019 36.0266 11.8213 36.0266H12.2102C16.0213 35.929 19.9686 35.8314 23.0797 35.6558C32.8408 35.0898 41.5713 34.7971 52.2852 34.6604C52.4991 34.6604 52.713 34.6604 52.9269 34.6604C55.2797 34.6604 57.8074 34.8361 60.2575 35.0117L60.7047 35.0508C63.1741 35.2264 65.9741 35.4216 68.5797 35.4216C69.3575 35.4216 70.0963 35.402 70.7575 35.363C72.5852 35.2849 74.4908 35.1093 76.4352 34.9337C79.1186 34.68 82.1713 34.4067 85.2047 34.4067C85.9825 34.4067 86.7408 34.4262 87.4797 34.4653C89.0352 34.6019 90.2991 34.758 91.4658 34.9922C91.4658 34.9922 91.4658 34.9922 91.4852 34.9922C93.2547 35.3045 94.9852 35.5582 96.638 35.5582C98.0963 35.5582 99.3019 35.324 100.352 34.8556C104.571 32.9625 105.194 30.5816 105.291 28.9422C105.621 21.6823 98.2908 15.1835 92.0686 11.0266Z" fill="#FDDA72"></path>
    <path d="M101.092 36.6901C100.975 36.534 100.8 36.4559 100.625 36.4559C100.567 36.4559 100.489 36.4754 100.431 36.4949C99.3029 36.9243 98.0195 37.1194 96.5223 37.1194C94.6751 37.1194 92.8084 36.8072 91.1557 36.534C89.9112 36.3193 88.6279 36.1631 87.364 36.0656C87.364 36.0656 87.364 36.0656 87.3446 36.0656C86.664 36.0265 85.9445 36.007 85.1862 36.007C82.4834 36.007 79.7418 36.2412 77.0973 36.4949L76.5529 36.534C74.6862 36.7096 72.7223 36.8852 70.7973 36.9828C70.0584 37.0219 69.2418 37.0414 68.4057 37.0414C65.839 37.0414 63.1168 36.8657 60.5501 36.6706L60.0834 36.6315C57.6918 36.4559 55.2029 36.2802 52.9279 36.2802C52.714 36.2802 52.5001 36.2802 52.2862 36.2802C41.7279 36.4169 33.0168 36.7096 23.1584 37.256C20.0279 37.4317 16.139 37.5293 12.4057 37.6073C12.2501 37.6073 12.114 37.6659 11.9973 37.783C10.8501 38.9344 11.3362 40.6323 12.0362 42.2912C12.1334 42.5058 12.3473 42.6425 12.5807 42.6425C12.6001 42.6425 12.6195 42.6425 12.639 42.6425C12.6973 42.6425 12.7557 42.6229 12.8334 42.6229C13.0084 42.6034 13.2029 42.5839 13.4362 42.5644L13.6112 42.5449L14.1168 42.4863L14.6029 42.4278C14.6223 42.4278 14.6418 42.4278 14.6807 42.4083C14.7001 42.4083 14.7196 42.4083 14.739 42.4083C14.7779 42.4083 14.8362 42.3888 14.914 42.3888L15.3223 42.3302L15.4779 42.3107H15.4973L15.9445 42.2326L16.0807 42.2131H16.1001C17.8501 41.9204 19.5418 41.5886 19.8723 41.5105C21.0001 41.2178 22.0112 41.0617 22.9057 41.0617C25.0834 41.0617 26.2696 41.9008 27.4168 42.7205C28.5445 43.5207 29.614 44.2818 31.6945 44.3989C31.714 44.3989 31.714 44.3989 31.7334 44.3989H31.7529C31.9473 44.4184 32.1223 44.4184 32.3362 44.4184C32.6279 44.4184 32.9195 44.3989 33.289 44.3794C35.4862 44.2037 37.6446 43.4621 40.2501 42.4863L40.289 42.4668C42.3307 41.7252 44.4307 40.9446 46.5112 40.6323C47.5223 40.4762 48.6307 40.3981 49.8362 40.3981C53.414 40.3981 57.2834 41.1007 58.8584 42.0375C58.8779 42.0375 58.8779 42.057 58.8973 42.057C58.9362 42.0765 58.9557 42.096 59.014 42.135C59.539 42.5254 59.889 43.0913 60.0251 43.7158C60.0251 43.7354 60.0251 43.7549 60.0445 43.7744V43.7939C60.0445 43.8329 60.064 43.872 60.064 43.911C60.064 43.9305 60.064 43.95 60.064 43.95C60.064 43.9891 60.0834 44.0476 60.0834 44.1062C60.2196 45.1991 59.9473 46.4286 59.6945 47.2678L59.6751 47.2873C59.6557 47.3068 59.6557 47.3458 59.6362 47.3653C59.6168 47.4434 59.5973 47.5215 59.5779 47.58C59.5584 47.6386 59.5584 47.6776 59.539 47.7166C59.539 47.7361 59.539 47.7361 59.5196 47.7557C59.4807 47.9118 59.4418 48.0289 59.4029 48.1655V48.185C59.3251 48.4777 59.3057 48.7705 59.3251 49.0632C59.3251 49.0827 59.3251 49.1023 59.3251 49.1023C59.3834 49.4145 59.4612 49.6877 59.5584 49.9414C59.5779 49.9805 59.5973 50.0195 59.6168 50.0585C59.6168 50.0781 59.6362 50.0976 59.6557 50.1171C59.7529 50.2927 59.8501 50.4489 59.9473 50.5855C59.9668 50.605 59.9862 50.644 60.0057 50.6635L60.0445 50.7026C60.2001 50.8782 60.3557 51.0539 60.589 51.21C60.589 51.21 60.6084 51.21 60.6084 51.2295C60.6279 51.249 60.6668 51.2685 60.6862 51.288C60.8807 51.4051 61.0751 51.5027 61.2501 51.5808C61.2695 51.5808 61.289 51.6003 61.289 51.6003C61.6001 51.6979 61.9501 51.7369 62.2807 51.7369C62.3001 51.7369 62.3195 51.7369 62.3584 51.7369C62.9029 51.6784 63.4084 51.5613 63.8557 51.4051H63.8751L63.8946 51.3856C63.914 51.3856 63.9334 51.3856 63.9529 51.3661C64.2057 51.288 64.4584 51.1514 64.7501 50.9758C64.7501 50.9758 64.7501 50.9758 64.7696 50.9758L64.8279 50.9368C64.8473 50.9368 64.8473 50.9172 64.8668 50.8977C65.1195 50.683 65.3334 50.4293 65.489 50.1171C65.489 50.1171 65.489 50.0976 65.5084 50.0976C65.6834 49.6682 65.7612 49.2584 65.7029 48.8485C65.7029 48.79 65.7029 48.7119 65.6834 48.6144C65.6834 48.5753 65.664 48.5168 65.6446 48.4777C65.5473 48.0874 65.4307 47.7361 65.2945 47.4044C65.2945 47.3653 65.2751 47.3458 65.2751 47.3263L65.2362 47.2287C64.7307 45.9211 64.1668 44.4574 64.5751 43.2279C64.5751 43.2084 64.5751 43.2084 64.5946 43.1889C64.614 43.1499 64.614 43.0913 64.6334 43.0718C64.6334 43.0523 64.6334 43.0523 64.6529 43.0328C65.4695 41.1202 67.9973 41.0617 69.6695 41.0226H69.689C69.7084 41.0226 69.7279 41.0226 69.7668 41.0226C69.864 41.0031 69.9418 41.0031 70.0584 41.0031H70.0779C70.214 41.0031 70.3695 41.0031 70.5057 41.0031C72.6251 41.0031 74.4723 41.53 75.8529 42.5254C76.0279 42.662 76.2223 42.8181 76.4557 42.9742C77.3307 43.6378 77.8751 44.0281 78.5946 44.0281C78.8473 44.0281 79.1001 43.9891 79.4307 43.8915C80.1112 43.6768 80.8112 43.2865 81.5695 42.8571L81.8029 42.7205C83.2223 41.9204 84.8362 41.0031 86.6834 41.0031C88.2584 41.0031 89.7557 41.6667 91.2723 43.0328C91.6223 43.345 92.1084 43.5207 92.6723 43.5207C93.5279 43.5207 94.5973 43.1889 96.1334 42.6034L96.2307 42.5644C97.2807 42.1936 98.2723 41.8228 99.1473 41.7642C99.5168 41.7447 99.8668 41.7252 100.236 41.7252C100.586 41.7252 100.956 41.7447 101.325 41.7642C101.345 41.7642 101.364 41.7642 101.364 41.7642C101.5 41.7642 101.636 41.7057 101.753 41.6276C101.87 41.53 101.947 41.3739 101.947 41.2178C101.986 39.6565 101.811 37.6464 101.092 36.6901Z" fill="#E43D4C"></path>
    <path d="M104.631 44.7112C103.367 43.306 100.995 43.1694 100.042 43.1694C99.7892 43.1694 99.517 43.1889 99.2837 43.2084C98.5448 43.228 97.5726 43.5988 96.6587 43.9696L96.4059 44.0671C95.4531 44.4184 94.4615 44.7892 93.4892 44.9258C93.217 44.9649 92.9448 44.9844 92.692 44.9844C91.7392 44.9844 90.942 44.6917 90.3198 44.1257C89.0948 43.0133 87.8892 42.4668 86.6642 42.4668C85.2254 42.4668 83.942 43.2084 82.5615 43.9891L82.542 44.0086C81.667 44.4965 80.7726 45.0039 79.8781 45.2771C79.5087 45.3942 79.1003 45.4528 78.7115 45.4528C77.9142 45.4528 77.1559 45.2186 76.5142 44.7892C76.5142 44.7892 76.4948 44.7892 76.4948 44.7697C76.1837 44.5746 75.892 44.3599 75.5809 44.1257C75.0754 43.7549 74.5504 43.3646 73.9281 43.0913C72.8781 42.6425 71.7115 42.4278 70.2142 42.4278C69.7476 42.4278 69.2226 42.4473 68.6003 42.4863H68.5809C68.5226 42.4863 68.4642 42.5059 68.4059 42.5059C67.6476 42.5644 66.3837 42.6815 65.9948 43.5988C65.9948 43.5988 65.9948 43.5988 65.9948 43.6183C65.7615 44.2038 66.0142 45.1796 66.5781 46.6823C66.967 47.7947 67.3365 48.9852 67.1031 50.0781C67.0448 50.3513 67.1809 50.6245 67.4337 50.7416C67.5115 50.7806 67.5892 50.8002 67.6865 50.8002C67.8615 50.8002 68.0365 50.7221 68.1531 50.566C69.0087 49.4536 70.3503 48.79 71.7309 48.79H71.7892H73.0142C74.6087 48.79 76.6892 49.4731 77.6615 52.7518C77.7198 52.986 77.9337 53.1421 78.167 53.1616C78.1865 53.1616 78.2059 53.1616 78.2253 53.1616C78.4392 53.1616 78.6337 53.0445 78.7309 52.8689C79.567 51.3466 81.6281 48.79 85.9448 48.79H87.8892C87.9281 48.79 87.967 48.79 88.0059 48.79C89.5031 48.79 91.0003 49.1608 92.3226 49.8829C92.4003 49.9219 92.4976 49.961 92.5948 49.961C92.7309 49.961 92.867 49.9219 92.9837 49.8244C93.742 49.1803 94.6948 48.8095 95.7059 48.8095H104.748C105.059 48.8095 105.311 48.5753 105.331 48.2631C105.35 47.9899 105.409 47.2287 105.409 47.2287C105.486 46.2139 105.234 45.3747 104.631 44.7112Z" fill="#FF9EBC"></path>
    <path d="M58.1579 43.3451C58.1384 43.3255 58.0995 43.2865 58.0606 43.267C57.3412 42.8181 55.5134 42.3302 53.4912 42.0765C52.2273 41.9009 50.9634 41.8228 49.7579 41.8228C48.6495 41.8228 47.5995 41.9009 46.6662 42.0375C44.7023 42.3302 42.719 43.0523 40.6773 43.8134C38.4217 44.6526 35.8551 45.5894 33.3273 45.7846C33.3273 45.7846 33.3273 45.7846 33.3079 45.7846C32.9967 45.8236 32.6662 45.8236 32.3356 45.8236C32.0829 45.8236 31.8106 45.8236 31.5579 45.8041C29.0495 45.648 27.669 44.6722 26.5412 43.872C25.5106 43.1499 24.5579 42.4473 22.8273 42.4473C22.0884 42.4473 21.2134 42.5839 20.2023 42.8376C19.7162 42.9743 17.6162 43.3841 15.7106 43.6573C14.4273 43.8525 13.2606 44.0086 12.094 44.0086C11.919 44.0086 11.7634 44.0086 11.6079 43.9891C11.3745 43.9891 11.1801 43.9696 10.9856 43.9696C9.83841 43.9696 8.90508 44.1062 8.14674 44.4184C6.63008 45.0234 5.6773 46.0773 5.61897 47.2678L5.58008 48.0875C5.58008 48.2436 5.63841 48.3997 5.73563 48.5168C5.8523 48.6339 6.00786 48.6924 6.16341 48.6924H8.51619C9.81897 48.6924 10.869 49.0437 11.6467 49.7463C11.7634 49.8439 11.8995 49.9024 12.0356 49.9024C12.1717 49.9024 12.3079 49.8634 12.4051 49.7658C13.2606 49.0437 14.3106 48.6924 15.6523 48.6924H18.4717C19.5995 48.6924 20.5717 48.9657 21.3301 49.5121C21.4273 49.5902 21.544 49.6097 21.6606 49.6097C21.7773 49.6097 21.894 49.5707 21.9912 49.5121C22.7495 48.9852 23.7217 48.6924 24.8301 48.6924H30.7801C32.5106 48.6924 33.794 48.9852 34.9606 49.6682C35.3301 49.8829 35.6023 50.0781 35.8162 50.2732C35.9134 50.3708 36.0495 50.4099 36.2051 50.4099C36.2245 50.4099 36.244 50.4099 36.244 50.4099C36.3995 50.3903 36.5356 50.3318 36.6523 50.1952C37.4884 49.1999 38.7329 48.6924 40.2495 48.6924H46.1412C47.8523 48.6924 49.1356 48.9852 50.3023 49.6487C50.4384 49.7268 50.5551 49.8049 50.6717 49.8829C50.7884 49.961 50.9051 50.0391 51.0217 50.1171C51.119 50.1952 51.2356 50.2147 51.3523 50.2147C51.5079 50.2147 51.6634 50.1561 51.7801 50.0391C52.6162 49.1608 53.8217 48.6924 55.2217 48.6924H57.3801C57.6717 48.6924 57.9051 48.4778 57.9634 48.2045C58.0217 47.8337 58.119 47.4629 58.2356 47.0726C58.3329 46.7408 58.4106 46.4091 58.4884 46.0578C58.6828 45.1601 58.8773 43.8525 58.1579 43.3451Z" fill="#FF9EBC"></path>
    <path d="M25.6097 83.0992C25.3763 82.8064 25.1041 82.5332 24.793 82.3185C25.0652 82.1234 25.2986 81.8697 25.5125 81.616C26.1736 80.7768 26.543 79.6058 26.543 78.2982C26.543 76.2295 25.6097 74.4926 23.9958 73.5754C23.1402 73.0679 22.1875 72.8533 20.8069 72.8533H14.9347C12.9513 72.8533 12.1152 73.9852 12.1152 76.6199V88.0758C12.1152 89.8322 12.4069 91.6667 14.5458 91.8423C14.818 91.8814 15.1291 91.979 15.4791 92.1351C15.4791 92.1351 15.4791 92.1351 15.4986 92.1351C15.9652 92.3107 16.0819 92.9548 15.8291 93.7939C15.5569 94.7112 15.6347 95.5504 16.0819 96.1359C16.4125 96.6042 16.9569 96.8775 17.5013 96.8775C18.0069 96.8775 18.4736 96.6433 18.7847 96.253C19.0763 95.8822 19.368 95.1796 19.0763 93.9891C18.9986 93.6378 18.7263 92.5644 18.843 92.1936C18.8819 92.0961 18.9208 92.057 19.2902 91.9594C19.4069 91.9204 19.5625 91.8814 19.718 91.8228C19.9513 91.7448 20.3013 91.7252 20.6319 91.7252C20.768 91.7252 20.9236 91.7252 21.0791 91.7252C21.2541 91.7252 21.4097 91.7252 21.5847 91.7252C22.4597 91.7252 23.4513 91.6472 24.1708 91.0617C25.2597 90.164 26.6986 88.7003 26.6986 86.3583C26.6986 86.1437 26.6791 85.9485 26.6597 85.7338C26.5625 84.758 26.193 83.8017 25.6097 83.0992ZM20.1847 80.2498C19.9125 80.3865 19.6208 80.4645 19.3486 80.4645C19.3291 80.4645 19.2902 80.4645 19.2708 80.4645H19.2513H18.1625V78.2592H19.2513H19.2708C19.3097 78.2592 19.3291 78.2592 19.368 78.2592C19.6597 78.2592 19.9319 78.3178 20.1652 78.4544C20.418 78.63 20.5736 78.9618 20.5736 79.3716C20.5736 79.7424 20.418 80.0742 20.1847 80.2498ZM18.1625 84.1335H19.4847H19.5041C19.543 84.1335 19.5625 84.1335 19.6013 84.1335C19.893 84.1335 20.1652 84.1921 20.3986 84.3287C20.6513 84.5043 20.8069 84.8361 20.8069 85.2264C20.8069 85.6363 20.6708 85.9485 20.418 86.1437C20.1458 86.2803 19.8541 86.3388 19.5819 86.3388C19.5625 86.3388 19.5236 86.3388 19.5041 86.3388H19.4847H18.1625V84.1335Z" fill="#FDDA72"></path>
    <path d="M41.1053 74.1804C40.7359 73.3217 39.997 72.7947 39.1414 72.7947H38.7914C37.9164 72.7947 37.1775 73.3217 36.8081 74.1804C36.5553 74.7659 36.5164 75.5465 36.5164 76.5613V83.3334C36.5164 84.114 36.4775 84.8947 36.2831 85.4021C36.0303 85.9876 35.5636 86.3388 34.9997 86.3388H34.6692C34.1053 86.3388 33.6386 85.9876 33.4053 85.4021C33.1914 84.8751 33.1525 84.0945 33.1525 83.3334V76.5613C33.1525 73.9267 32.3164 72.7947 30.3331 72.7947H29.8859C27.9025 72.7947 27.0664 73.9267 27.0664 76.5613V84.9142C27.0664 85.1874 27.0859 85.4411 27.1053 85.7143C27.2414 87.5879 27.8831 89.1296 28.972 90.203C30.0414 91.2374 31.4803 91.8033 33.1914 91.8033C34.6692 91.8814 35.1359 92.1156 35.1164 93.3646C35.097 93.8915 35.272 94.3599 35.622 94.7112C36.0303 95.1406 36.672 95.3748 37.3525 95.3748C38.422 95.3748 39.6081 94.7307 39.6859 93.3256C39.7247 92.6035 39.7247 92.1156 39.7247 91.7643C39.7247 91.0422 39.7247 91.0227 40.0942 90.5543C40.1331 90.5153 40.172 90.4567 40.1914 90.4177C40.8331 89.598 41.4359 88.8174 41.4359 84.9922V76.5808C41.4164 75.4684 41.3192 74.7463 41.1053 74.1804C41.1247 74.1999 41.1247 74.1804 41.1053 74.1804Z" fill="#FDDA72"></path>
    <path d="M57.1676 89.7151C57.1676 89.6956 57.1676 89.6761 57.1676 89.6565C57.1676 89.637 57.1676 89.637 57.1676 89.6175C57.1093 88.9735 56.9343 88.5051 56.7399 88.0562C56.5454 87.5683 56.351 87.1 56.351 86.4364C56.351 85.0313 56.2343 84.0945 55.6704 83.2358C55.4565 82.904 55.1649 82.6113 54.8537 82.3576C55.1454 82.1624 55.3982 81.9087 55.6315 81.616C56.2926 80.7963 56.6621 79.6058 56.6621 78.2982C56.6621 76.2295 55.7287 74.4926 54.1149 73.5754C53.2593 73.0679 52.3065 72.8533 50.926 72.8533H44.9954C43.0121 72.8533 42.176 73.9852 42.176 76.6199L42.2149 87.9391L41.9426 90.5543C41.8065 91.452 42.0204 92.4278 42.5065 92.9938C42.7982 93.3256 43.1482 93.5012 43.5371 93.5012C43.8871 93.5012 43.9843 93.5598 44.0426 93.6183C44.1399 93.7354 44.1982 93.9891 44.2176 94.3989V94.8673C44.2176 95.5504 44.101 95.9602 44.0037 96.3505C43.8871 96.7604 43.7899 97.1507 43.8482 97.7362C43.8482 97.7752 43.8482 97.7947 43.8676 97.8142C43.9454 98.0289 44.0426 98.2241 44.1593 98.3802C44.1787 98.3997 44.1787 98.4192 44.1982 98.4388C44.4899 98.7315 44.9176 98.8876 45.3649 98.8876C45.8121 98.8876 46.201 98.7315 46.4732 98.4388C46.6676 98.2241 46.901 97.8338 46.8621 97.1897C46.7843 96.1944 46.5899 95.5309 46.4537 95.043C46.3565 94.7307 46.2982 94.4965 46.2982 94.3014V94.2818C46.2982 94.2623 46.3176 94.2233 46.3176 94.1647C46.4343 93.2475 46.4926 93.2475 46.6871 93.228C46.9787 93.228 47.4065 93.1889 47.7371 92.8181C48.3204 92.1741 48.4565 90.7299 48.2037 87.9782V84.6995H49.3704C49.3704 84.6995 49.3704 84.6995 49.3899 84.6995C49.4093 84.6995 49.4093 84.6995 49.4287 84.6995C49.8371 84.6995 50.226 84.9337 50.401 85.324C50.401 85.324 50.401 85.3435 50.4204 85.3435C50.6732 85.7924 50.7121 86.3974 50.7121 87.9782C50.7121 91.3544 52.3065 91.7448 53.5121 91.7448H54.3871C55.4954 91.7448 57.1676 91.7448 57.1676 89.8127C57.1871 89.8127 57.1871 89.7541 57.1676 89.7151ZM50.6732 79.3326C50.6732 79.3521 50.6732 79.3521 50.6732 79.3716C50.6926 79.7229 50.5371 80.0547 50.2649 80.2498C49.9926 80.3865 49.701 80.445 49.4287 80.445C49.4093 80.445 49.3704 80.445 49.351 80.445H49.3315H48.2037V78.2397H49.3315H49.351C49.3899 78.2397 49.4093 78.2397 49.4482 78.2397C49.7399 78.2397 50.0121 78.2982 50.2454 78.4348C50.5371 78.6495 50.6926 78.9813 50.6732 79.3326Z" fill="#FDDA72"></path>
    <path d="M81.9968 86.3973C81.9579 86.3973 81.919 86.3973 81.8801 86.3973H77.6996V84.7385H79.1579C80.3635 84.7385 81.1996 83.7432 81.1996 82.338C81.1996 80.9329 80.3829 79.9766 79.1579 79.9766H77.6996V78.2982H81.8801C83.0662 78.2982 83.9801 77.42 84.1746 76.1124C84.1746 76.1124 84.1746 76.1124 84.1746 76.0929V76.0539C84.194 75.8977 84.2135 75.7416 84.2135 75.5464C84.2135 73.9071 83.2801 72.8142 81.8801 72.8142H74.4718C72.4885 72.8142 71.6523 73.9461 71.6523 76.5808V88.0367C71.6523 90.6714 72.4885 91.8033 74.4718 91.8033H78.7107C80.2079 91.8033 80.3635 91.9789 80.3635 92.74C80.3635 93.6378 80.9273 94.5941 82.1329 94.5941C83.0857 94.5941 84.1162 93.9305 84.1746 92.6815C84.2135 91.7057 84.2329 90.7689 84.2329 90.1054C84.2329 89.7151 84.2523 89.4028 84.2523 89.2272V89.2077V89.071C84.2523 87.4902 83.319 86.3973 81.9968 86.3973Z" fill="#FDDA72"></path>
    <path d="M98.6803 86.3974C98.6803 85.0313 98.5636 84.0555 97.9219 83.1968C97.708 82.865 97.4358 82.5723 97.1247 82.3185C97.4164 82.1234 97.6886 81.8697 97.9025 81.5574C98.5636 80.7182 98.933 79.5473 98.933 78.2397C98.933 76.171 97.9997 74.4536 96.3858 73.5168C95.5303 73.0094 94.5775 72.7947 93.1969 72.7947H87.2469C85.4191 72.7947 84.5441 73.8096 84.4469 76.0734V76.0929V76.5808V88.0172C84.3886 88.388 84.3691 88.7783 84.3691 89.2467C84.3691 90.7495 84.6608 91.7448 85.2053 92.2132C86.0803 92.9548 86.5275 93.3451 86.0025 95.121C85.7691 95.8822 85.8858 96.5457 86.3136 96.9555C86.5469 97.1507 86.7803 97.2678 87.033 97.3068C87.1303 97.3264 87.208 97.3264 87.3053 97.3264C87.8303 97.3264 88.3358 97.0726 88.6275 96.6433C88.9775 96.1359 89.0358 95.4723 88.7636 94.7307C88.7053 94.5551 88.6469 94.4185 88.608 94.2819C88.433 93.7744 88.2969 93.4036 88.3164 93.2865C88.3358 93.228 88.5497 93.0719 88.7441 92.9353L88.8025 92.8962C89.8525 92.2327 90.4941 91.5691 90.4941 88.0172V84.719H91.6608C91.6608 84.719 91.6608 84.719 91.6803 84.719C91.6997 84.719 91.6997 84.719 91.7191 84.719C92.1469 84.719 92.5358 84.9532 92.7108 85.3435C92.7108 85.3435 92.7108 85.363 92.7303 85.363C92.983 85.8119 93.0025 86.4169 93.0025 87.9977C93.0025 89.6175 93.2941 91.7643 95.8219 91.7643H96.6775C98.3497 91.7643 99.3025 90.9837 99.5164 89.4614C99.5358 89.3443 99.4969 89.2272 99.4191 89.1296C98.8747 88.5832 98.6803 87.8806 98.6803 86.3974ZM92.983 79.3326C92.983 79.3521 92.983 79.3521 92.983 79.3716C93.0025 79.7229 92.8275 80.0547 92.5553 80.2499C92.3025 80.3865 92.0303 80.445 91.758 80.445C91.7386 80.445 91.6997 80.445 91.6803 80.445H91.6608H90.533V78.2397H91.6608H91.6803C91.7191 78.2397 91.7386 78.2397 91.7775 78.2397C92.0691 78.2397 92.3414 78.2983 92.5553 78.4349C92.8469 78.6495 93.0025 78.9618 92.983 79.3326Z" fill="#FDDA72"></path>
    <path d="M106.887 50.7026H95.7064C94.3258 50.7026 93.373 51.8345 93.373 53.4543C93.373 53.63 93.3925 53.7861 93.4119 53.9618V54.0008V54.0203C93.6258 55.3279 94.5203 56.1866 95.7064 56.1866H98.273L98.1953 65.1444C98.1953 65.3396 98.1758 65.5738 98.1758 65.8665C98.098 67.3302 97.9619 69.7892 99.5758 70.16C100.12 70.2771 100.256 70.9212 100.354 71.7018V71.7603C100.354 72.0726 100.14 75.5855 99.7508 77.3029C99.673 77.6347 99.6147 77.9469 99.6147 78.2787C99.6147 78.9422 99.8286 79.5277 100.217 79.918C100.567 80.2693 101.034 80.445 101.559 80.445C102.512 80.445 103.504 79.7619 103.504 78.591C103.504 78.4739 103.504 78.3372 103.484 78.2006C103.056 75.8392 102.57 72.4044 102.531 71.5262C102.492 70.5894 102.531 70.4333 102.745 70.3747C102.784 70.3552 102.842 70.3552 102.901 70.3357C103.97 70.1405 104.592 69.3404 104.379 65.9055V56.1671H106.926C108.306 56.1671 109.259 55.0351 109.259 53.4348C109.22 51.8345 108.267 50.7026 106.887 50.7026Z" fill="#FDDA72"></path>
    <path d="M86.9375 64.637C85.2458 64.637 84.468 64.0321 83.7875 63.5246C83.243 63.1148 82.6791 62.6659 81.8041 62.6659C80.443 62.6659 79.4902 63.6612 79.4902 65.0664C79.4902 65.3787 79.5291 65.7104 79.6263 66.0032C80.2097 68.2085 82.6986 69.7112 85.8097 69.7112C85.8291 69.7112 85.8486 69.7112 85.868 69.7112C86.393 69.6331 87.8319 69.4575 88.1625 69.4575C88.2597 69.4575 88.3569 69.4575 88.4347 69.438C88.5319 69.438 88.6097 69.4185 88.6875 69.4185C88.8819 69.4185 88.9791 69.4185 88.9791 69.8283C88.9791 70.687 89.2708 71.3896 89.8347 71.897C90.3208 72.3264 91.0013 72.5605 91.7208 72.5605C93.1013 72.5605 94.3263 71.4481 94.3263 70.1601V66.452C94.3263 66.2764 94.3263 66.0227 94.3069 65.7104C94.2875 64.9298 94.268 63.7783 94.3263 63.388C94.3263 63.3685 94.3263 63.3685 94.3263 63.349C94.5402 60.8705 93.393 59.1531 90.8263 58.0992C90.8263 58.0992 90.8263 58.0992 90.8069 58.0992C89.4847 57.6113 88.143 57.299 86.8013 57.1624C85.4986 57.0258 85.4986 56.6355 85.4986 56.4208C85.4986 56.2452 85.4986 55.7768 86.6263 55.7768C87.5986 55.7768 88.1236 56.1086 88.6875 56.4598C89.2319 56.8111 89.8152 57.1624 90.7486 57.1819C90.7486 57.1819 90.7486 57.1819 90.768 57.1819H90.9041C92.6347 57.1819 93.4125 55.8744 93.4125 54.6644C93.4125 54.4302 93.3736 54.2155 93.3347 54.0399C92.9458 52.0687 90.6902 50.6831 87.8513 50.6831H85.868C83.8847 50.6831 82.2319 51.3857 81.0652 52.7323C80.0736 53.8837 79.5291 55.445 79.5291 57.0844C79.5291 60.285 81.3958 61.7292 82.9708 62.3927C84.2152 62.9001 85.518 63.1929 86.8597 63.2904C88.2208 63.4271 88.2208 63.8174 88.2208 64.0125C88.2597 64.2077 88.2597 64.637 86.9375 64.637Z" fill="#FDDA72"></path>
    <path d="M68.3664 81.7721H66.3637C65.0998 81.7721 63.6414 82.0063 63.6414 83.8993C63.6414 84.9727 64.1276 85.5972 65.1192 85.7924C64.9442 86.4949 64.5359 86.5925 64.1859 86.5925C63.622 86.5925 63.2914 86.3388 63.0776 85.7533C62.8248 85.0703 62.6692 83.9579 62.6692 82.5917V81.8111C62.6692 80.5035 62.8248 79.5668 63.1553 79.0203C63.4664 78.4934 63.9331 78.2592 64.6137 78.2592C65.2942 78.2592 65.7998 78.4543 66.2276 79.3716C66.6164 80.2303 67.1026 81.089 68.6192 81.089C70.097 81.089 71.1664 79.84 71.1664 78.1421C71.1664 76.5223 70.2331 74.5121 68.1914 73.4778C68.7553 72.8337 68.4053 71.9555 68.1914 71.4091C68.1331 71.2529 68.0748 71.0968 68.0359 70.9602C67.9776 70.765 68.0164 70.6675 68.697 70.4138C68.8137 70.3747 68.9303 70.3162 69.0276 70.2771C69.4942 70.043 69.6303 69.4184 69.7664 68.7744C69.8248 68.5207 69.8831 68.267 69.9414 68.0133L70.3498 66.6081H73.4026L73.8692 68.1304C74.3164 69.6526 75.3859 69.8478 76.2803 69.8478H76.2998L77.6609 69.7697C78.9637 69.7697 79.6831 69.0086 79.6831 67.6425V67.623C79.6637 67.096 79.5859 66.5691 79.4303 66.0422V66.0227C79.372 65.8665 79.3526 65.7299 79.3526 65.5933C79.3526 65.5543 79.3526 65.5152 79.3331 65.4762L75.7748 53.3372C75.4637 52.2053 74.822 50.7026 73.0137 50.7026H71.7887C70.097 50.7026 69.3387 52.1077 69.0081 53.2787L65.3137 65.6909C65.197 66.0617 65.0998 66.3935 65.0026 66.7252C65.0026 66.7447 64.9831 66.7643 64.9831 66.7838C64.8859 65.3006 63.972 64.2662 62.6498 64.2662H58.4692V62.6074H59.9081C61.1137 62.6074 61.9498 61.612 61.9498 60.2069C61.9498 58.8017 61.1331 57.8454 59.9081 57.8454H58.4692V56.1671H62.6498C64.0303 56.1671 64.9831 55.0351 64.9831 53.4348V53.2787C64.9831 53.1421 64.9248 53.025 64.8081 52.9664C64.7498 52.9274 64.672 52.8884 64.5942 52.8884C64.5553 52.8884 64.497 52.8884 64.4581 52.9079C63.7192 53.2006 62.9803 53.3372 62.2609 53.3372C61.2498 53.3372 59.8303 53.0445 58.7414 51.6589C58.5664 51.4442 58.372 51.171 58.2164 50.8587C58.1581 50.7221 58.022 50.644 57.8664 50.644C56.6803 50.644 55.2414 50.6636 55.2414 50.6636C53.2776 50.6636 52.422 51.7955 52.422 54.4497V65.9056C52.422 66.0031 52.422 66.1202 52.4026 66.2764C52.3637 67.2131 52.247 69.1842 53.9192 69.438C54.0942 69.4575 54.2887 69.4965 54.4637 69.516C55.2414 69.6331 56.5248 69.8283 56.6998 70.0625C56.7581 70.1796 56.7776 70.3162 56.7776 70.4723C56.7776 70.8236 56.6414 71.2334 56.4859 71.6433C56.272 72.2287 56.0581 72.8533 56.1942 73.4583C56.4276 74.5121 57.2637 75 58.0026 75C58.5276 75 58.9942 74.7658 59.3053 74.356C59.5776 74.0047 59.8498 73.3607 59.5581 72.3068L59.4998 72.0921C59.3248 71.4676 59.1692 70.9017 59.1692 70.4333C59.1692 69.9454 59.3248 69.8283 59.6359 69.7892C60.0831 69.7112 60.647 69.6721 61.347 69.6721C62.047 69.6721 62.6109 69.7112 62.6303 69.7112H62.6498C63.3887 69.7112 63.9914 69.3989 64.4192 68.8525C64.3609 69.438 64.4581 70.0625 65.1387 70.3162C65.2942 70.3747 65.4303 70.4138 65.5664 70.4333C65.8776 70.5113 66.0526 70.5699 66.1887 70.7065C66.1498 70.8041 66.0526 70.9797 65.9942 71.1163C65.7609 71.5652 65.4303 72.1897 65.6053 72.7947C65.4498 72.7752 65.2748 72.7752 65.1192 72.7752H64.5553C62.3581 72.7752 60.5303 73.5949 59.1303 75.2147C59.1303 75.2147 59.1303 75.2147 59.1109 75.2342C59.0331 75.3318 58.9359 75.4489 58.8387 75.566C58.8387 75.566 58.8387 75.566 58.8387 75.5855C57.497 77.3419 56.8359 79.5082 56.8359 82.2014V82.3966C56.8164 84.3482 56.9526 86.3583 57.2248 88.349C57.2831 88.7978 57.3026 89.3052 57.3026 89.9102C57.3026 89.9883 57.3026 90.0859 57.2831 90.1444C57.2831 90.1639 57.2831 90.203 57.2831 90.2225C57.2831 90.3006 57.2831 90.3786 57.2831 90.4567C57.2831 90.5348 57.2637 90.6323 57.2637 90.7299C57.1664 92.5449 56.972 94.6526 56.8553 95.726C56.797 96.2725 56.9526 96.7604 57.3026 97.1507C57.6914 97.58 58.2942 97.8533 58.9164 97.8533C59.6553 97.8533 60.2581 97.4824 60.5109 96.8775C60.7248 96.4091 60.6859 95.9017 60.6081 95.5504C60.4137 94.6331 60.2387 93.911 60.0831 93.2865C59.8303 92.2912 59.6748 91.6277 59.6553 90.886C60.4137 91.2568 61.8331 91.8228 63.4664 91.8228C63.5831 91.8228 63.7192 91.8228 63.8359 91.8033C65.0803 91.8033 66.072 91.4715 66.8109 90.847C67.2387 91.4325 67.9192 91.8033 68.6581 91.8033C68.6776 91.8033 68.697 91.8033 68.7164 91.8033H69.1248C70.9914 91.8033 71.2053 90.1835 71.2053 88.9735V84.9337C71.2053 82.7869 70.3109 81.7721 68.3664 81.7721ZM71.497 62.5488L72.0609 60.3435L72.6248 62.5488H71.497Z" fill="#FDDA72"></path>
    <path d="M42.3109 69.6722C42.2914 69.5746 42.2526 69.438 42.2526 69.3404C42.272 69.3404 42.3109 69.3404 42.3498 69.3404C42.3692 69.3404 42.3887 69.3404 42.4081 69.3404C42.5248 69.3404 42.7581 69.3599 43.0498 69.3794C43.7887 69.438 44.9164 69.5356 46.0637 69.5356C47.6192 69.5356 48.7081 69.3599 49.4081 69.0281C51.0414 68.2085 52.0137 66.4325 52.0137 64.2858C52.0137 62.9977 51.6442 61.8072 50.9831 60.968C50.7303 60.6753 50.4581 60.4021 50.147 60.1679C50.4387 59.9532 50.6914 59.719 50.9053 59.4458C51.5664 58.6066 51.9359 57.4356 51.9359 56.1281C51.9359 54.0594 51.0026 52.342 49.3887 51.4052C48.5331 50.8978 47.5803 50.6831 46.1998 50.6831H40.2887C38.3053 50.6831 37.4692 51.815 37.4692 54.4692L37.5081 56.089L37.7414 65.8275L37.4692 69.2233C37.2359 70.9017 37.9164 72.1507 39.1803 72.4239H39.1998C39.3553 72.4434 39.5303 72.463 39.7053 72.463C41.1442 72.463 41.9414 72.463 42.3692 71.0188C42.5053 70.5114 42.3887 70.0235 42.3109 69.6722ZM44.9359 62.0414C45.2276 62.0414 45.4998 62.1 45.7331 62.2366C46.0053 62.4513 46.1414 62.7635 46.1414 63.1538C46.1414 63.5441 45.9859 63.8759 45.7526 64.0711C45.4803 64.2077 45.1887 64.2662 44.9164 64.2662C44.897 64.2662 44.8581 64.2662 44.8387 64.2662H44.8192H43.497V62.0414H44.8192H44.8387C44.8776 62.0414 44.897 62.0414 44.9359 62.0414ZM45.9081 57.299C45.9276 57.6503 45.772 57.9821 45.4998 58.1772C45.2664 58.3139 44.9942 58.3724 44.7026 58.3724C44.6637 58.3724 44.6442 58.3724 44.6053 58.3724H44.5859H43.497V56.1671H44.5859H44.6053C44.6248 56.1671 44.6637 56.1671 44.6831 56.1671C44.9553 56.1671 45.2276 56.2452 45.4998 56.3623C45.772 56.5769 45.9081 56.9087 45.9081 57.26C45.9081 57.2795 45.9081 57.2795 45.9081 57.299Z" fill="#FDDA72"></path>
    <path d="M24.7337 69.8478H24.7532L25.4337 69.8088C26.2309 69.8088 27.1059 69.7502 27.6698 69.1257C28.1559 68.5793 28.3115 67.662 28.1365 66.2373V66.2178C28.1171 66.1593 28.0976 66.0422 28.0782 65.9251C28.0393 65.6909 27.9421 65.242 27.9421 65.0859L28.0393 62.6269H29.2254C29.6726 62.6269 30.0809 62.8611 30.2559 63.2514C30.2559 63.2514 30.2559 63.2709 30.2754 63.2709C30.5282 63.7198 30.5671 64.3053 30.5671 65.9056C30.5671 66.7057 30.5087 67.1936 30.4504 67.662C30.3921 68.1304 30.3337 68.6183 30.3337 69.3989C30.3337 70.3162 30.6254 71.1554 31.1893 71.7213C31.6171 72.1897 32.2393 72.4434 32.8615 72.4434H32.9976H33.1532C34.1837 72.4434 36.3226 72.4434 36.3226 69.6917C36.3226 67.3107 36.1865 64.4614 36.1865 64.2857C36.1865 62.8806 36.0698 61.9438 35.5059 61.0851C35.2921 60.7338 35.0198 60.4411 34.6893 60.1874C34.9809 59.9922 35.2337 59.7385 35.4671 59.4653C36.1282 58.6261 36.4976 57.4551 36.4976 56.1281C36.4976 54.0398 35.5643 52.3029 33.9504 51.3857C33.0948 50.8782 32.1421 50.6636 30.7615 50.6636H24.8115C22.8282 50.6636 21.9921 51.7955 21.9921 54.4497L22.0309 65.0078C22.0309 65.2615 21.9532 66.0617 21.9143 66.3349C21.7587 67.5644 21.9337 68.4427 22.4393 69.0281C22.9254 69.5941 23.6643 69.8478 24.7337 69.8478ZM28.0587 58.3724V56.1671H29.1865H29.2059C29.2254 56.1671 29.2643 56.1671 29.2837 56.1671C29.5559 56.1671 29.8476 56.2451 30.1198 56.3622C30.3921 56.5769 30.5476 56.9087 30.5282 57.26C30.5282 57.2795 30.5282 57.2795 30.5282 57.299C30.5476 57.6698 30.3921 57.9821 30.1198 58.1772C29.8671 58.3138 29.5948 58.3724 29.3032 58.3724C29.2643 58.3724 29.2448 58.3724 29.2059 58.3724H29.1865H28.0587Z" fill="#FDDA72"></path>
    <path d="M13.8643 68.2475L15.1865 62.4122V65.9446C15.1865 69.6331 16.7227 70.4137 18.006 70.4137L18.5504 70.4333C18.5504 70.4333 18.5504 70.4333 18.5699 70.4333C20.3782 70.4333 21.2921 68.9305 21.2921 65.9446V54.4887C21.2921 51.8345 20.456 50.7026 18.4921 50.7026H15.6921C14.5838 50.7026 13.4949 50.9368 13.0865 52.6347L12.1921 56.3817L11.1227 52.6542C10.6754 51.0343 9.78099 50.7026 8.57543 50.7026H5.56155C3.57821 50.7026 2.72266 51.8345 2.72266 54.4887V65.9251C2.72266 66.9204 2.78099 67.701 3.03377 68.306C3.13099 68.5402 3.24766 68.7549 3.36432 68.95C3.6171 69.3989 3.85043 69.7892 3.81155 70.5894C3.7921 71.2724 3.67543 72.0141 3.55877 72.7947C3.4421 73.5753 3.32543 74.395 3.2671 75.2147V75.2342V75.4879V75.5074C3.32543 76.5418 3.90877 77.6542 4.91988 77.6542H4.95877C5.5421 77.6347 6.04766 77.3809 6.39766 76.9516C6.7671 76.5027 6.90321 75.9368 6.80599 75.3318V75.3123C6.78655 75.2342 6.7671 75.1561 6.7671 75.0976C6.7671 75.0781 6.7671 75.0585 6.7671 75.039C6.68932 74.5316 6.55321 73.9266 6.43654 73.3411C6.22266 72.3068 5.98932 71.2334 5.98932 70.6089C5.98932 70.5699 5.98932 70.4723 5.98932 70.4528C5.98932 70.4333 5.98932 70.4333 5.98932 70.4137C6.02821 70.1015 6.26154 69.9454 6.63099 69.6916C7.01988 69.4184 7.50599 69.0867 7.60321 68.4426C7.71988 67.6425 7.75877 66.9009 7.75877 66.1983L7.70043 62.6464L9.02266 68.2865C9.33377 69.477 10.2477 70.16 11.5115 70.16H11.8421C12.9115 70.1405 13.5532 69.5355 13.8643 68.2475Z" fill="#FDDA72"></path>
    <path d="M109.511 94.7306C109.083 94.2427 108.655 93.8329 108.247 93.5011C106.613 92.1155 103.522 91.2177 102.044 90.7884L101.869 90.7298C101.811 90.7103 101.752 90.7103 101.713 90.7103C101.48 90.7103 101.266 90.8469 101.169 91.0811C100.449 92.8181 98.8745 93.7548 96.7161 93.7548H95.8606C94.5384 93.7548 93.43 93.3645 92.6328 92.6034C92.5161 92.5058 92.38 92.4473 92.2245 92.4473C92.1856 92.4473 92.1661 92.4473 92.1273 92.4473C91.9523 92.4668 91.7967 92.5839 91.6995 92.74C91.505 93.0913 91.2523 93.4231 90.9411 93.7353C90.8245 93.8524 90.7467 94.0281 90.7661 94.2037C90.7661 94.2818 90.7856 94.3793 90.7856 94.4769C90.7856 94.5745 90.805 94.6916 90.805 94.8087C90.8439 95.5698 90.6689 96.3309 90.2995 97.0335C90.2023 97.2092 90.2023 97.4043 90.2995 97.58C90.3773 97.7556 90.5523 97.8727 90.7467 97.8922C92.2245 98.0874 93.0606 98.3606 93.3328 98.5362C93.9356 98.9266 94.4606 99.434 94.9273 100.058C95.0634 100.234 95.18 100.41 95.2773 100.605C95.3745 100.8 95.5884 100.917 95.7828 100.917C95.8411 100.917 95.9189 100.898 95.9773 100.878C96.6773 100.644 97.3384 100.332 98.0189 99.9609C99.03 99.4145 99.905 98.868 99.9245 98.8485C99.9245 98.8485 99.9245 98.8485 99.9439 98.8485C100.061 98.7704 100.197 98.7314 100.333 98.7314C100.449 98.7314 100.566 98.7509 100.683 98.8095C101.013 98.9656 102.413 99.6291 103.23 100.019C103.308 100.058 103.405 100.078 103.483 100.078C103.599 100.078 103.697 100.039 103.794 99.9804C104.241 99.6877 104.611 99.434 104.922 99.1803C105.661 98.5948 105.991 98.1459 106.108 97.9508C106.166 97.8532 106.205 97.7361 106.205 97.619C106.186 97.4043 106.283 97.1701 106.438 97.053L106.458 97.0335C107.099 96.448 107.955 96.1553 108.713 95.8821H108.733C108.733 95.8821 108.733 95.8821 108.752 95.8821C108.811 95.8626 108.869 95.843 108.927 95.8235C109.044 95.7845 109.199 95.7259 109.336 95.6674C109.511 95.5893 109.627 95.4332 109.666 95.2576C109.686 95.0624 109.647 94.8672 109.511 94.7306Z" fill="#75D9FC"></path>
    <path d="M84.6804 96.5066C84.6221 96.3505 84.5054 96.2139 84.3693 96.1553C84.2915 96.1163 84.2138 96.1163 84.136 96.0968C84.0582 96.0968 83.9804 96.1163 83.9027 96.1553C83.3388 96.409 82.7165 96.5457 82.1138 96.5457C80.8693 96.5261 79.236 95.765 78.6332 94.1452C78.5554 93.911 78.3221 93.7549 78.0888 93.7549H74.511C74.511 93.7549 74.511 93.7549 74.4915 93.7549C74.4527 93.7549 74.4332 93.7549 74.3943 93.7549C73.5388 93.7549 72.7027 93.5402 71.9249 93.1108C71.8277 93.0523 71.7304 93.0328 71.6332 93.0328C71.5165 93.0328 71.4193 93.0718 71.3221 93.1304C70.6804 93.5402 69.9415 93.7549 69.1638 93.7549C69.1443 93.7549 69.1054 93.7549 69.086 93.7549C69.086 93.7549 69.086 93.7549 69.0665 93.7549H68.6777C68.0165 93.7549 67.3554 93.6183 66.7915 93.345C66.7138 93.306 66.636 93.2865 66.5388 93.2865C66.4804 93.2865 66.4027 93.306 66.3443 93.3255C65.5277 93.6183 64.6915 93.7549 63.836 93.7549C63.7971 93.7549 63.7777 93.7549 63.7388 93.7549C63.661 93.7744 63.5638 93.7744 63.4471 93.7744C63.1943 93.7744 62.9221 93.7549 62.6499 93.7353H62.5915C62.5721 93.7353 62.5721 93.7353 62.5527 93.7353C62.3971 93.7353 62.2221 93.8134 62.1249 93.9305C62.0082 94.0671 61.9499 94.2428 61.9888 94.4184C62.0082 94.5355 62.0277 94.6721 62.0277 94.8087C62.0471 94.9258 62.0471 95.0624 62.0665 95.199C62.3193 97.619 60.9388 98.6924 60.336 99.0437C60.1027 99.1803 59.986 99.4731 60.0832 99.7268C60.161 99.9805 60.3943 100.137 60.6471 100.137C60.6665 100.137 60.686 100.137 60.7054 100.137C63.0193 99.9219 64.9249 99.2193 66.2665 98.0679C66.7721 97.619 67.4721 97.4044 68.4638 97.4044C69.2415 97.4044 70.1554 97.541 71.2638 97.7947C72.7415 98.146 74.1027 98.5948 75.4054 99.1413C75.4443 99.1608 75.5027 99.1803 75.5415 99.1803C75.6388 99.1998 75.8527 99.2193 76.3193 99.2193C77.1554 99.2193 78.3415 99.1218 79.8193 98.9461C81.6471 98.7314 83.4749 98.4387 83.9999 98.3411C84.0388 98.3411 84.0582 98.3411 84.0971 98.3411C84.1943 98.3216 84.2915 98.3216 84.3693 98.3021C84.5054 98.2826 84.6221 98.2631 84.7582 98.2435C84.9527 98.2045 85.1082 98.0679 85.186 97.8727C85.2638 97.6776 85.2249 97.4824 85.1082 97.3068C84.9332 97.0726 84.7777 96.7798 84.6804 96.5066Z" fill="#75D9FC"></path>
    <path d="M56.1354 98.751C54.9493 97.8532 54.4827 96.3895 54.8715 94.8673C54.8715 94.8478 54.8715 94.8282 54.891 94.8087C54.891 94.7502 54.9299 94.6721 54.9493 94.5941L54.9688 94.5355C54.9882 94.477 55.0076 94.4184 55.0076 94.3403C55.0076 94.0086 54.7549 93.7549 54.4243 93.7549H53.5493C52.4021 93.7549 51.4104 93.4426 50.5938 92.8376C50.4965 92.7596 50.3799 92.7205 50.2438 92.7205C50.1854 92.7205 50.1271 92.7205 50.0688 92.74C49.8938 92.7986 49.7577 92.9352 49.6799 93.0913C49.4854 93.6378 49.1354 94.1452 48.6882 94.4965C48.5132 94.6331 48.4354 94.8868 48.4938 95.1015C48.6493 95.726 48.766 96.37 48.8243 97.0336V97.0531C48.8438 97.1897 48.8438 97.3263 48.8438 97.5019C48.8438 97.7556 49.0188 97.9898 49.2521 98.0679C50.3993 98.4192 53.3354 99.2584 55.6493 99.7853C55.6882 99.7853 55.7271 99.8048 55.766 99.8048C55.9799 99.8048 56.1938 99.6682 56.291 99.4731C56.4271 99.2194 56.3493 98.9266 56.1354 98.751Z" fill="#75D9FC"></path>
    <path d="M42.2133 98.3216C42.1744 98.2045 42.1355 98.0874 42.0772 97.9703C42.0578 97.9313 42.0383 97.8922 41.9994 97.8532C41.9216 97.3653 41.9411 96.8579 42.0189 96.3505L42.0383 96.2334C42.0772 96.0187 42.0966 95.8236 42.1161 95.6674C42.155 95.3942 41.98 95.1405 41.7272 95.0429C41.6689 95.0234 41.5911 95.0039 41.5328 95.0039C41.3383 95.0039 41.1439 95.1015 41.0466 95.2771C40.2883 96.4676 38.8883 97.1897 37.2939 97.1897C35.4077 97.1702 33.2689 96.1358 32.88 94.1842C32.8216 93.9305 32.6077 93.7353 32.355 93.7158C30.3716 93.5597 28.6411 92.7595 27.3772 91.4325C27.2605 91.3154 27.1244 91.2568 26.9494 91.2568C26.7939 91.2568 26.6383 91.3154 26.5216 91.4325C26.1522 91.8228 25.7439 92.1936 25.3161 92.5253C25.3161 92.5253 25.3161 92.5253 25.2966 92.5253C24.1494 93.4816 22.7105 93.5987 21.7383 93.6182C21.4272 93.6182 21.1744 93.872 21.155 94.2037C21.1355 96.6237 19.8133 98.1264 17.6161 98.224C17.5966 98.224 17.5577 98.224 17.5189 98.224C17.4411 98.224 17.3633 98.2045 17.2855 98.2045H17.2661C14.3105 98.2045 13.8439 96.1163 13.805 94.0866C13.805 93.8329 13.63 93.5987 13.3772 93.5402C11.1994 92.9547 10.0522 91.0421 10.0522 87.9781V86.4949C10.0522 86.2997 9.95497 86.1046 9.77997 86.007C9.68275 85.9485 9.58553 85.9094 9.46886 85.9094C9.37164 85.9094 9.29386 85.9289 9.21608 85.968C7.83553 86.651 6.41608 87.8025 4.99664 89.4223C4.02442 90.5152 3.16886 91.6666 2.35219 92.9157C2.17719 93.1889 2.25497 93.5402 2.50775 93.7158C2.8383 93.9305 3.30497 94.2428 3.61608 94.4379C4.39386 94.9453 5.15219 95.4137 5.67719 95.9602C6.57164 96.8969 5.87164 98.7509 5.13275 100.722L5.1133 100.781C5.07442 100.898 5.03553 101.015 4.99664 101.132C4.91886 101.347 4.97719 101.581 5.13275 101.737C5.24942 101.854 5.38553 101.913 5.54108 101.913C5.59942 101.913 5.65775 101.893 5.71608 101.874L5.77442 101.854C5.79386 101.854 5.79386 101.854 5.8133 101.834C6.06608 101.737 6.31886 101.62 6.57164 101.522C6.80497 101.425 7.05775 101.308 7.29108 101.21C7.29108 101.21 7.31053 101.21 7.31053 101.19C7.71886 100.995 8.32164 100.585 8.90497 100.195L9.15775 100.019C10.0716 99.3755 10.5383 99.0632 10.9466 98.9851C11.0244 98.9656 11.1022 98.9656 11.18 98.9656C11.9189 98.9656 12.5216 99.6487 13.105 100.293L13.1244 100.312L13.2022 100.39C13.8633 101.132 14.6216 101.952 15.6716 102.205C15.73 102.225 15.8272 102.225 15.905 102.225C16.255 102.225 16.9355 102.108 18.18 101.503C19.4244 100.898 20.7855 100.059 21.8355 99.4145L22.2633 99.1608C23.5466 98.3997 24.655 97.7166 25.4522 97.4629C25.6855 97.3848 25.9189 97.3458 26.1716 97.3458C27.1633 97.3458 28.0772 98.0484 28.8744 98.6534L28.8939 98.6729C29.9439 99.4926 30.3911 99.7463 30.8383 99.7463C31.2855 99.7463 31.5578 99.4535 31.7911 99.2389L31.8105 99.2193C31.9466 99.0632 32.1411 98.9851 32.355 98.9851C32.6855 98.9851 33.0744 99.0437 33.9883 99.2584C35.155 99.5121 37.3327 99.9805 39.1605 99.9805C40.4244 99.9805 41.3189 99.7658 41.8827 99.2974C41.98 99.2388 42.0383 99.1608 42.0772 99.1218L42.0966 99.1022C42.2716 98.9266 42.3105 98.6729 42.2133 98.4582C42.2716 98.4777 42.2522 98.3997 42.2133 98.3216Z" fill="#75D9FC"></path>
    <path d="M100.1 108.275C99.7499 108.041 99.361 107.865 98.9916 107.767C97.5527 107.338 95.6471 107.572 93.9749 107.787C93.1388 107.904 92.361 107.982 91.6221 108.021C88.4332 108.158 85.2832 108.002 82.211 107.845L81.8027 107.826C79.7416 107.728 77.8749 107.631 75.9888 107.592L73.5971 107.533C70.8554 107.455 67.9582 107.397 65.061 107.533C64.1082 107.592 63.136 107.728 62.1054 107.865L61.7554 107.904C59.4221 108.255 57.3027 108.528 55.2221 108.158C53.6277 107.865 52.3443 107.631 51.2749 107.397L51.1193 107.358C47.5221 106.616 44.7027 106.05 43.361 106.889C42.7388 107.279 42.7971 108.509 43.1082 110.656C43.3804 112.607 43.711 114.813 42.4665 116.179C41.786 116.94 40.6777 117.291 39.2193 117.252C37.761 117.194 36.6527 116.745 35.9138 115.886C34.5138 114.247 34.8832 111.632 35.1943 109.524L35.2332 109.251C35.3304 108.509 35.4471 107.65 35.3888 107.182L35.3499 106.948L35.136 106.87C30.7999 105.269 29.1665 105.64 25.5888 106.46C22.2249 107.279 18.7832 107.845 15.361 108.119H15.3221C15.0693 108.138 14.7777 108.158 14.486 108.158C14.3304 108.158 14.1943 108.158 14.0388 108.177C13.1638 108.197 12.2693 108.216 11.5304 108.431C11.2971 108.47 11.1027 108.568 10.9471 108.646C10.8693 108.665 10.7721 108.724 10.6943 108.802C9.70266 109.602 10.3443 111.749 11.1027 113.876L11.1221 113.934C11.336 114.52 11.511 115.027 11.6471 115.515C12.0165 116.92 12.9888 119.809 13.5527 120.531C14.8749 122.229 17.1304 122.17 19.5415 122.112C19.7554 122.112 19.9693 122.112 20.1832 122.112C20.3971 122.112 20.611 122.112 20.8249 122.112C21.2915 122.112 21.9915 122.112 22.6721 122.209C26.9693 122.697 31.1304 122.873 35.486 122.873C38.8888 122.873 42.3888 122.775 46.1804 122.639C53.2971 122.404 60.3943 122.482 67.2777 122.56L73.5777 122.619C77.7582 122.639 82.6971 122.639 87.5971 122.482C88.4332 122.463 89.5027 122.541 90.6499 122.6L90.8054 122.619C92.8666 122.775 94.8693 122.892 96.5027 122.678C97.3388 122.58 97.9804 122.385 98.4277 122.112C98.9527 121.799 99.0888 121.429 99.1277 121.194C99.3804 119.906 99.7499 118.521 100.119 117.233L100.139 117.135C101.15 113.31 102.122 109.719 100.1 108.275Z" fill="#FDDA72"></path>
    <path d="M102.181 102.752C101.987 102.479 102.026 102.108 102.239 101.737L102.57 101.19L101.987 100.917C101.831 100.839 101.656 100.761 101.481 100.683C101.228 100.566 100.956 100.449 100.703 100.312L100.431 100.176L100.159 100.332C99.77 100.566 99.1867 100.878 98.4478 101.269C97.0089 101.991 96.0367 102.342 95.3562 102.342C95.1034 102.342 94.8895 102.303 94.695 102.205C94.3645 102.049 94.1312 101.756 94.0728 101.405L94.0534 101.308L94.0145 101.229C93.6645 100.585 93.1784 100.039 92.5756 99.6682L92.4978 99.6292L92.42 99.6097C91.5062 99.356 90.5534 99.1998 89.5423 99.1608C89.3673 99.1608 89.2117 99.1608 89.0562 99.1608C88.5895 99.1608 88.1034 99.1803 87.6367 99.2193H87.6173H87.5978C87.3062 99.2389 86.995 99.2779 86.7423 99.356H86.7228H86.7034C86.4312 99.434 85.9839 99.4926 85.5173 99.5511C85.1673 99.5902 84.8173 99.6487 84.4673 99.7072H84.4284H84.3895C84.0006 99.7658 81.9589 100.117 79.8395 100.371C78.3423 100.546 77.2145 100.624 76.3784 100.624C75.4256 100.624 75.0367 100.507 74.8034 100.41C73.5006 99.8829 72.2756 99.4731 71.0312 99.1803C70.02 98.9266 69.1645 98.8095 68.5034 98.8095C67.8228 98.8095 67.5117 98.9461 67.395 99.0242L67.3562 99.0437L67.3173 99.0827C65.4506 100.703 62.5923 101.6 59.2867 101.6C59.0145 101.6 58.7423 101.6 58.4895 101.581H58.4701H58.4506C58.3145 101.581 58.1978 101.581 58.1006 101.561H58.0617H58.0228C56.1756 101.425 52.5006 100.429 48.7867 99.356L48.5728 99.2974L48.2423 99.1998L48.0089 99.434C47.3867 100.059 46.5506 100.41 45.6562 100.41C45.5201 100.41 45.3645 100.41 45.2284 100.39C44.7423 100.332 44.3145 100.215 43.945 100.059L43.5756 99.9024L43.3034 100.176C43.245 100.234 43.1478 100.312 43.0312 100.41C42.1562 101.112 40.9312 101.444 39.2589 101.444C37.4117 101.444 35.4089 101.015 33.9506 100.683L33.8145 100.664C33.5034 100.585 33.2312 100.546 33.0367 100.507L32.7839 100.468L32.5895 100.624C32.1617 100.976 31.5978 101.171 31.0339 101.171C30.8006 101.171 30.5478 101.132 30.3145 101.073C29.5367 100.878 28.8173 100.312 28.1756 99.8243H28.1562C27.1839 99.0632 26.7367 98.8095 26.3478 98.8095C26.2701 98.8095 26.1923 98.829 26.1339 98.8485C25.4339 99.0827 24.3256 99.7463 22.8478 100.664C20.0478 102.4 17.7534 103.747 16.1006 103.747C15.8867 103.747 15.7117 103.728 15.5367 103.689C13.9228 103.337 12.8728 102.127 12.1728 101.327C12.0367 101.171 11.8617 100.976 11.7256 100.839L11.3951 100.507L11.0062 100.781C10.8895 100.859 10.7534 100.956 10.6173 101.054C10.4812 101.151 10.3645 101.229 10.2478 101.308C9.76172 101.659 9.17838 102.049 8.67283 102.342L8.51727 102.439L8.4395 102.615C8.16727 103.181 7.93394 103.61 7.70061 103.981L7.13672 104.859L8.18672 104.879C8.73116 104.899 9.17838 105.25 9.64505 105.66C10.1895 106.148 10.7534 106.499 11.3173 106.772L11.4728 106.85L11.6478 106.831C12.5228 106.694 13.3395 106.616 14.1367 106.616H14.1562H14.1756C14.3117 106.616 14.4284 106.596 14.5451 106.596C14.8173 106.596 15.0895 106.577 15.3423 106.557C18.8034 106.245 22.1673 105.699 25.3562 104.918L25.4145 104.899C27.2228 104.489 28.6423 104.176 30.1784 104.176C31.8701 104.176 33.6978 104.586 36.1089 105.484C36.7701 105.738 37.1201 106.362 37.1395 107.338C37.1589 108.021 37.0423 108.88 36.9062 109.738V109.758C36.6534 111.651 36.3423 113.817 37.2756 114.891C37.8589 115.593 38.9089 115.652 39.2978 115.671H39.3562C39.4145 115.671 39.4923 115.671 39.5506 115.671C40.3867 115.671 40.9895 115.476 41.3395 115.105C42.0201 114.383 41.8645 112.92 41.5923 110.948L41.5728 110.87C41.2617 108.743 40.9506 106.557 42.5451 105.582C43.2839 105.133 44.1784 104.918 45.3645 104.918C47.0367 104.918 49.1367 105.347 51.5867 105.835L51.6839 105.855C53.0256 106.128 54.3089 106.382 55.5923 106.616C56.1756 106.713 56.7784 106.772 57.4589 106.772C58.7617 106.772 60.0839 106.577 61.4839 106.382L61.62 106.362L61.9312 106.323C62.9617 106.187 64.0506 106.03 65.0812 105.991C66.1506 105.933 67.2978 105.913 68.62 105.913C70.1173 105.913 71.6339 105.952 73.0923 105.972L73.7339 105.991C74.5117 106.011 75.3089 106.03 76.1062 106.05C78.1478 106.089 80.17 106.187 81.9589 106.284L82.3867 106.304C84.5839 106.421 86.8589 106.518 89.1339 106.518C90.0089 106.518 90.8062 106.499 91.6034 106.46C92.2256 106.421 92.945 106.343 93.82 106.245L94.0145 106.226C95.0256 106.108 96.0756 105.991 97.1062 105.991C98.0589 105.991 98.8562 106.089 99.5367 106.304C100.042 106.44 100.548 106.674 101.014 106.967L101.326 107.162L101.637 106.967C101.714 106.928 101.773 106.889 101.831 106.87H101.851H101.87C102.201 106.733 102.512 106.323 102.687 105.777C102.901 104.723 102.745 103.63 102.181 102.752Z" fill="#E43D4C"></path>
    <path d="M7.75825 34.2314C8.53603 35.012 9.58603 35.4804 10.6749 35.5194C10.9277 35.4999 11.161 35.4999 11.4138 35.4999C11.5499 35.4999 11.6666 35.4804 11.7638 35.4804C15.711 35.4023 19.7944 35.3047 23.0027 35.1096C32.8805 34.5631 41.6305 34.2704 52.2277 34.1143C54.911 34.0752 57.8471 34.2899 60.686 34.4851C64.0694 34.7193 67.5694 34.973 70.6805 34.7973C72.5471 34.6997 74.4721 34.5241 76.3388 34.368C79.9749 34.0362 83.7277 33.6849 87.461 33.8996C88.8221 33.9972 90.1638 34.1728 91.5055 34.4265C93.1971 34.6997 94.9277 34.9925 96.561 34.9925C97.8249 34.9925 99.011 34.8168 100.042 34.3485C103.911 32.6115 104.533 30.5428 104.63 28.9425C105.039 21.9168 97.8638 15.5741 91.7583 11.5147C87.0721 8.39217 79.8777 5.81606 71.536 4.29381C62.2416 2.61544 52.7527 2.30318 43.3805 3.39608C37.586 4.05962 30.0805 6.06977 25.2194 7.74815C25.1805 7.76766 25.1416 7.76766 25.1027 7.78718C22.2249 8.48975 19.4638 9.60217 16.9166 11.1244C14.6999 12.4125 12.736 14.0908 11.0833 16.062C8.04992 19.7115 6.35825 24.2392 6.18325 29.1572C6.10547 31.4015 6.63047 33.0994 7.75825 34.2314ZM27.6888 42.2524C28.7971 43.0331 29.7694 43.6966 31.6749 43.8332H31.6944C32.1805 43.8723 32.6666 43.8527 33.1527 43.8137C35.3499 43.6576 37.586 42.8379 39.9583 41.9597C42.0388 41.1986 44.1971 40.4179 46.336 40.0862C50.9055 39.4031 56.9721 40.3399 59.0333 41.5694C59.111 41.6084 59.1888 41.6474 59.2471 41.706C59.8888 42.1744 60.336 42.8574 60.4916 43.6381C60.511 43.6966 60.511 43.7552 60.5305 43.8137C60.5499 43.8723 60.5499 43.9698 60.5694 44.0479C60.6471 44.7895 60.6083 45.5506 60.4527 46.2727C60.4527 46.2923 60.4527 46.3118 60.4527 46.3118C60.3749 46.6826 60.2971 47.0339 60.1999 47.3461L60.161 47.5022C60.161 47.5218 60.1416 47.5413 60.1416 47.5608C60.0638 47.8145 59.986 48.0877 59.9277 48.3414L59.9083 48.3805C59.9083 48.4195 59.8888 48.4585 59.8888 48.478C59.8499 48.6342 59.8499 48.7903 59.8499 48.9269V48.9659C59.8694 49.1611 59.9083 49.3563 59.9666 49.5319C59.986 49.5905 60.0249 49.649 60.0444 49.7076L60.0638 49.7271C60.0833 49.7466 60.0833 49.7856 60.1027 49.8051C60.2971 50.1759 60.5499 50.4882 60.8805 50.7419C60.8999 50.7614 60.9194 50.7809 60.9583 50.8004H60.9777C61.2305 50.9956 61.5221 51.1127 61.8333 51.1713C61.9499 51.1908 62.0471 51.1908 62.1638 51.1713H62.1833L62.261 51.1517C62.8638 51.1322 63.4666 50.9956 64.011 50.7224C64.186 50.6443 64.3416 50.5467 64.4777 50.4296H64.4971C64.5166 50.4101 64.536 50.4101 64.5555 50.3906C64.6527 50.3125 64.7499 50.215 64.8277 50.1174C64.9249 49.9808 65.0027 49.8246 65.061 49.6685C65.0805 49.5905 65.0805 49.5124 65.0999 49.4343C65.0999 49.4148 65.0999 49.3953 65.0999 49.3758C65.1194 49.2197 65.1194 49.044 65.0805 48.8879V48.8684V48.8488V48.8098C65.0805 48.7708 65.0805 48.7513 65.061 48.7318C65.0027 48.4 64.9055 48.0877 64.7694 47.7755C64.7499 47.6974 64.711 47.6389 64.6916 47.5803V47.5608C64.6721 47.4827 64.6332 47.4047 64.6138 47.3266C64.1083 45.9605 63.5444 44.3992 63.9916 43.0721C64.011 42.994 64.0499 42.916 64.0694 42.8379C65.0221 40.5741 67.9194 40.5155 69.6305 40.4765C69.7666 40.4765 69.8833 40.4765 69.9999 40.457C72.4305 40.3789 74.5499 40.9449 76.1444 42.0963C76.3583 42.2524 76.5721 42.4086 76.7471 42.5452C77.8944 43.4039 78.2638 43.6381 79.1971 43.3648C79.8971 43.1502 80.6555 42.7208 81.4527 42.2524C83.961 40.8278 87.4027 38.8762 91.5833 42.6428C92.361 43.3453 93.8388 42.8574 95.861 42.0963C96.9888 41.667 98.0388 41.2766 99.0305 41.2181C99.7888 41.1595 100.528 41.1595 101.286 41.2181C101.364 39.6373 101.169 37.8418 100.586 37.0612C97.5527 38.1931 94.0721 37.6467 90.9999 37.1392C89.7555 36.9051 88.511 36.7489 87.2666 36.6513C83.7471 36.4562 80.0916 36.788 76.5527 37.1197C74.6666 37.2954 72.7027 37.471 70.7777 37.5686C67.4916 37.7442 63.9138 37.4905 60.4527 37.2563C57.6721 37.0612 54.8138 36.8465 52.2277 36.8855C41.6694 37.0221 32.9583 37.3149 23.1194 37.8613C20.0277 38.037 16.1388 38.1346 12.3471 38.2126C11.5305 39.0128 11.7638 40.2813 12.5027 42.0768C12.6971 42.0573 12.9499 42.0378 13.2805 41.9987L13.4555 41.9792L13.961 41.9207L14.4471 41.8621C14.5249 41.8426 14.6221 41.8426 14.6999 41.8231L15.1277 41.7645L15.2833 41.745L15.7499 41.667L15.9055 41.6474C17.6749 41.3547 19.3277 41.0424 19.6388 40.9449C24.1694 39.7544 26.036 41.0815 27.6888 42.2524ZM111.397 93.7356C111.903 94.4382 112.078 95.0823 111.961 95.7263C111.708 97.0143 110.444 97.4437 109.433 97.795C109.025 97.9316 108.617 98.0877 108.228 98.2829C107.994 99.1026 107.275 100 106.011 100.957C105.603 101.269 105.155 101.562 104.708 101.835C104.514 101.932 104.319 102.03 104.125 102.108C104.805 103.396 104.922 104.879 104.475 106.265C104.164 107.202 103.619 107.943 102.939 108.373C103.367 109.29 103.522 110.383 103.464 111.69C103.367 113.564 102.764 115.691 102.2 117.76C101.85 119.028 101.48 120.336 101.247 121.565C101.033 122.58 100.411 123.459 99.4971 123.946C98.7777 124.376 97.8833 124.649 96.736 124.786C94.8305 125.039 92.5944 124.883 90.5916 124.747C89.4444 124.669 88.3749 124.59 87.5971 124.629C82.6194 124.786 77.661 124.786 73.4999 124.766C71.3805 124.747 69.261 124.727 67.1805 124.708C60.2971 124.629 53.1805 124.551 46.1999 124.786C42.4083 124.922 38.8694 125.02 35.4666 125.02C31.0916 125.059 26.7166 124.825 22.361 124.337C21.4277 124.259 20.4749 124.239 19.5416 124.278C16.8194 124.337 13.7471 124.415 11.7444 121.858C10.6555 120.453 9.46936 116.101 9.46936 116.062C9.37214 115.652 9.1777 115.145 8.98325 114.598C8.57492 113.466 8.1277 112.178 7.99158 110.949C7.83603 109.563 8.08881 108.451 8.74992 107.651C8.51658 107.475 8.32214 107.299 8.14714 107.143C8.06936 107.065 7.9527 106.987 7.87492 106.909C7.09714 107.124 5.8527 107.377 5.11381 106.48C4.70547 105.972 4.64714 105.328 4.95825 104.548L4.88047 104.587C4.60825 104.704 4.31658 104.762 4.02492 104.762C3.59714 104.762 3.20825 104.606 2.89714 104.333C2.11936 103.591 2.43047 102.459 2.54714 102.03C2.7027 101.483 2.93603 100.839 3.18881 100.156C3.44158 99.5124 3.69436 98.8293 3.84992 98.2438C3.94714 97.9511 4.00547 97.6389 4.04436 97.3071C3.5777 96.9168 3.07214 96.585 2.54714 96.2727C1.94436 95.9214 1.39992 95.5311 0.874918 95.1018C0.563806 94.8481 0.330473 94.5163 0.155473 94.1455C-0.0778602 93.6186 -0.0389713 92.994 0.252695 92.4866C1.18603 90.9449 4.53047 85.7926 8.84714 83.9386L9.50825 83.6264V77.8301C8.71103 79.6451 7.0777 80.6014 5.44436 80.6014C5.03603 80.6014 4.6277 80.5428 4.21936 80.4257C2.04158 79.7427 1.01103 77.752 0.991584 74.1611C0.991584 73.3219 1.06936 72.4632 1.20547 71.624L1.22492 71.5264C1.28325 71.1947 1.34158 70.8629 1.38047 70.5311C1.36103 70.5311 1.36103 70.5116 1.36103 70.4921C1.06936 70.1018 0.836029 69.6919 0.641584 69.2626C0.213806 68.2673 0.136029 67.2134 0.136029 65.9253V54.5085C0.136029 51.3469 1.36103 49.2392 3.55825 48.4976L3.5777 48.1463L3.61658 47.2095V47.19C3.77214 44.731 6.12492 42.7989 8.41936 42.2524C8.55547 42.2134 9.72214 41.9792 9.78047 42.1158C9.56658 41.5303 9.43047 40.9449 9.33325 40.3399C9.21659 39.5983 9.27492 38.8567 9.48881 38.1346C8.08881 37.8613 6.78603 37.1588 5.77492 36.1439C3.69436 34.0557 3.34436 31.1283 3.42214 29.0596C3.63603 23.5561 5.54158 18.4624 8.94436 14.3641C10.7721 12.1588 12.9888 10.2657 15.4388 8.78249C18.1999 7.14315 21.1944 5.89412 24.3249 5.133C29.3221 3.39608 37.0221 1.3469 43.011 0.663837C52.6749 -0.448575 62.436 -0.136319 72.0027 1.6006C80.7333 3.22043 88.2777 5.91364 93.2749 9.25088C97.0083 11.7489 100.042 14.325 102.317 16.9011C105.894 20.98 107.586 25.0784 107.353 29.1182C107.178 31.987 105.719 34.2118 102.939 35.9097C103.464 36.8075 103.794 37.9979 103.892 39.5202C103.93 40.2813 103.93 41.0424 103.872 41.8231C103.95 41.8621 104.028 41.9011 104.105 41.9207H104.125C106.244 42.916 107.567 45.1213 107.372 47.3266C107.372 47.3656 107.333 47.834 107.314 48.1853C109.919 48.4195 111.767 50.5663 111.767 53.4546C111.767 56.4601 109.667 58.7435 106.867 58.7435V65.9449C106.867 68.2087 106.614 70.6482 104.942 71.9363C105.058 73.1463 105.35 75.8395 105.467 76.9519V77.0104V77.069C105.467 77.6935 105.408 78.318 105.311 78.9425C105.019 80.7185 104.28 81.8894 102.997 82.631C102.589 82.8848 102.142 83.0409 101.655 83.0604C101.344 83.0604 101.033 83.0019 100.742 82.8848C100.722 82.8848 100.703 82.9043 100.664 82.9238C101.092 83.9972 101.189 85.1096 101.189 86.4171C101.189 86.6904 101.189 86.9831 101.228 87.2563C101.247 87.3344 101.247 87.393 101.267 87.471C101.597 87.8028 101.85 88.2126 101.967 88.6615H102.005L102.258 88.72H102.278C104.689 89.3836 107.703 90.3399 109.569 91.9207C110.289 92.4671 110.872 93.0721 111.397 93.7356ZM109.083 95.1213C108.714 94.6919 108.305 94.3016 107.878 93.9503C106.264 92.5647 103.036 91.667 101.733 91.3157C100.936 93.2477 99.1471 94.3602 96.736 94.3602H95.861C94.3833 94.3602 93.1388 93.9113 92.2249 93.0526C91.9916 93.4819 91.7194 93.8527 91.3694 94.1845C91.3888 94.3797 91.3888 94.5944 91.4083 94.7895C91.4666 95.6873 91.2527 96.5655 90.8249 97.3461C91.9916 97.4827 93.1583 97.756 93.6638 98.0877C94.3444 98.5366 94.9471 99.083 95.4138 99.7466C95.5499 99.9417 95.686 100.156 95.8027 100.352C96.4638 100.117 97.1249 99.8246 97.7471 99.4734C98.7583 98.9269 99.6333 98.3805 99.6333 98.3805C100.022 98.1268 100.528 98.1072 100.936 98.3024C101.286 98.4585 102.667 99.1221 103.483 99.5124C103.853 99.2782 104.222 99.044 104.553 98.7513C105.214 98.2048 105.505 97.8145 105.622 97.6584C105.603 97.2485 105.758 96.8582 106.069 96.6045C106.808 95.9605 107.761 95.6092 108.539 95.336C108.694 95.2579 108.889 95.1993 109.083 95.1213ZM108.83 53.4546C108.83 52.0495 108.053 51.0932 106.886 51.0932H95.686C94.5388 51.0932 93.7416 52.0495 93.7416 53.4546C93.7416 53.6303 93.761 53.7864 93.7805 53.962C93.936 55.0745 94.6749 55.7965 95.686 55.7965H98.6416L98.5638 65.1252C98.5638 66.3157 98.0583 69.3992 99.6333 69.7505C100.508 69.9456 100.625 71.019 100.722 71.7021C100.761 71.9168 100.528 75.5467 100.1 77.3812C100.022 77.674 100.003 77.9667 99.9833 78.2595C99.9833 78.884 100.178 79.3328 100.469 79.6256C101.344 80.4843 103.075 79.9769 103.075 78.5912C103.075 78.4937 103.055 78.3766 103.055 78.279C102.628 75.8785 102.142 72.4437 102.103 71.546C102.064 70.6482 102.064 70.1798 102.569 70.0042C103.075 69.8286 104.222 70.2579 103.93 65.9253V55.8161H106.867C108.053 55.8161 108.83 54.8403 108.83 53.4546ZM104.805 47.1119C105.097 44.1455 101.442 43.599 99.2833 43.7552H99.2638C98.661 43.7942 97.7277 44.1455 96.8138 44.4773C95.7444 44.8871 94.636 45.2969 93.5083 45.4531C92.011 45.6677 90.786 45.3555 89.8721 44.5163C87.0916 42.0182 85.186 43.0916 82.7749 44.4577C81.8805 44.9652 80.9666 45.4921 79.9944 45.7848C78.6916 46.1947 77.2721 45.9995 76.1444 45.2189C75.3083 44.6919 74.5888 43.9894 73.6555 43.5795C72.0805 42.8965 70.2916 42.916 68.5999 43.0331C67.9971 43.0721 66.7721 43.1111 66.4805 43.7942C66.286 44.2626 66.7721 45.6092 67.0638 46.4289C67.4916 47.6193 67.8805 48.9074 67.6083 50.1564C68.5805 48.8684 70.0971 48.1268 71.711 48.1463H72.936C74.4138 48.1463 77.0194 48.7122 78.1471 52.5179C79.4499 50.1564 81.9388 48.1463 85.8666 48.1463H87.8499C89.4833 48.1268 91.1166 48.5171 92.5555 49.2977C93.4305 48.5561 94.5388 48.1463 95.6666 48.1463H104.708C104.747 47.873 104.825 47.1314 104.805 47.1119ZM102.025 105.504C102.278 104.684 102.161 103.786 101.694 103.084C101.383 102.635 101.403 102.03 101.733 101.601C101.344 101.425 100.897 101.191 100.45 100.996C100.003 101.249 99.3805 101.62 98.7194 101.952C97.2221 102.733 96.1721 103.084 95.3555 103.084C95.0444 103.084 94.7333 103.025 94.4416 102.889C93.936 102.654 93.586 102.186 93.4888 101.659C93.1971 101.113 92.7499 100.664 92.2444 100.313C91.3499 100.059 90.436 99.9027 89.5027 99.8832C88.8805 99.8442 88.2388 99.8637 87.636 99.9417H87.6166C87.3638 99.9612 87.0916 100 86.8388 100.059C86.3138 100.215 85.3999 100.293 84.486 100.43H84.4471C83.9999 100.508 81.9777 100.839 79.8777 101.093C76.1638 101.523 75.1333 101.347 74.5499 101.093C73.3444 100.605 72.1194 100.195 70.8555 99.8832C68.2888 99.2587 67.6471 99.649 67.6471 99.649C65.6638 101.366 62.6888 102.303 59.2277 102.303C58.9555 102.303 58.6638 102.303 58.3916 102.284C58.236 102.284 58.0999 102.264 57.9638 102.264H57.9444C55.961 102.147 51.8971 101.015 48.5721 100.039L48.3583 99.9808C47.5027 100.839 46.2971 101.249 45.0916 101.093C44.6055 101.035 44.1194 100.918 43.6527 100.722C43.5555 100.82 43.4583 100.918 43.3416 100.996C42.2527 101.874 40.7749 102.167 39.1999 102.167C37.236 102.167 35.136 101.698 33.6388 101.366C33.386 101.308 33.1138 101.249 32.8805 101.21C32.0833 101.835 31.0527 102.049 30.0805 101.757C29.1666 101.503 28.4083 100.918 27.7277 100.391C27.2999 100.059 26.4638 99.4343 26.2305 99.5124C25.5888 99.7271 24.3055 100.508 23.0805 101.269C20.1249 103.084 17.8305 104.43 16.0221 104.43C15.7888 104.43 15.5555 104.411 15.3221 104.352C13.5721 103.943 12.4638 102.713 11.6471 101.796C11.511 101.64 11.3555 101.464 11.2194 101.327C10.986 101.483 10.6749 101.698 10.461 101.854C9.91658 102.245 9.3527 102.635 8.8277 102.928C8.59436 103.416 8.34159 103.884 8.04992 104.352C8.8277 104.372 9.43047 104.879 9.8777 105.27C10.3249 105.699 10.8499 106.031 11.4138 106.284C12.2694 106.148 13.1444 106.07 13.9999 106.07C14.4277 106.05 14.7971 106.05 15.1471 106.011C18.511 105.718 21.8166 105.192 25.1027 104.391C28.9138 103.513 31.0138 103.025 36.186 104.977C36.8083 105.211 37.5471 105.816 37.6055 107.358C37.6249 108.099 37.5083 108.958 37.3721 109.875C37.1388 111.554 36.8471 113.661 37.6055 114.559C38.0721 115.106 38.986 115.145 39.2777 115.145C39.8221 115.164 40.5221 115.106 40.8138 114.774C41.3582 114.169 41.1055 112.412 40.911 111.007C40.5999 108.802 40.2499 106.323 42.1555 105.133C44.2555 103.806 47.386 104.45 51.7221 105.328C52.9471 105.582 54.2305 105.836 55.611 106.089C57.4388 106.402 59.3833 106.128 61.4638 105.836C62.611 105.679 63.7971 105.504 64.9833 105.445C67.8805 105.309 70.8166 105.367 73.6555 105.445C74.4333 105.465 75.2499 105.484 76.0277 105.504C78.011 105.543 79.9944 105.64 81.8999 105.738C85.0305 105.894 88.2583 106.07 91.486 105.933C92.1471 105.894 92.886 105.816 93.6638 105.718C95.5694 105.484 97.7277 105.231 99.6138 105.797C100.197 105.972 100.742 106.226 101.247 106.558C101.344 106.48 101.442 106.441 101.558 106.402C101.617 106.206 101.869 105.992 102.025 105.504ZM99.711 117.096C100.742 113.388 101.694 109.895 99.8666 108.587C99.5555 108.373 99.186 108.217 98.8166 108.099C97.4749 107.69 95.686 107.904 93.9555 108.119C93.1194 108.217 92.3221 108.314 91.5638 108.353C88.2194 108.49 84.9138 108.334 81.7249 108.158C79.8388 108.06 77.8749 107.963 75.9305 107.924C75.1333 107.904 74.3166 107.885 73.5388 107.865C70.7388 107.807 67.861 107.729 65.0416 107.865C63.9916 107.924 62.9027 108.08 61.7749 108.236C59.5971 108.548 57.3416 108.861 55.1055 108.49C53.686 108.236 52.3444 107.963 51.1583 107.729C47.7166 107.026 44.7221 106.421 43.5166 107.182C43.0305 107.494 43.2833 109.329 43.4388 110.558C43.7305 112.608 44.0416 114.911 42.6999 116.394C41.9221 117.252 40.7166 117.662 39.1416 117.604C37.5666 117.545 36.361 117.057 35.5638 116.12C34.0666 114.364 34.436 111.632 34.7471 109.446C34.8444 108.724 34.9999 107.67 34.9416 107.202C30.7027 105.66 29.186 105.992 25.6277 106.811C22.2444 107.631 18.8027 108.197 15.3221 108.49H15.3027C14.8749 108.529 14.4277 108.548 13.9999 108.548C13.1444 108.568 12.2694 108.607 11.5694 108.782C11.3944 108.841 11.2194 108.9 11.0638 108.978C11.0055 108.997 10.9666 109.036 10.9277 109.056L10.9083 109.075C10.0138 109.739 10.8694 112.139 11.4333 113.72C11.6471 114.325 11.8416 114.871 11.9777 115.379C12.386 116.901 13.3194 119.633 13.8055 120.258C14.9916 121.78 17.0721 121.741 19.4832 121.683C19.911 121.663 20.3388 121.663 20.7666 121.663C21.3888 121.663 22.0305 121.683 22.6527 121.761C30.2749 122.658 37.4694 122.502 46.1027 122.19C53.1416 121.936 60.2971 122.034 67.2194 122.112C69.2805 122.131 71.4194 122.151 73.5194 122.17C77.6805 122.19 82.5999 122.19 87.5194 122.034C88.4138 121.995 89.561 122.073 90.7666 122.17C92.6333 122.288 94.7527 122.444 96.386 122.229C97.1638 122.131 97.7666 121.956 98.1555 121.722C98.5444 121.487 98.6416 121.253 98.6805 121.058C98.9721 119.77 99.3416 118.404 99.711 117.096ZM99.1666 89.4421C98.4471 88.7005 98.2916 87.8223 98.2916 86.3976C98.2916 85.051 98.1749 84.1923 97.6499 83.4117C97.3388 82.9433 96.911 82.5335 96.4055 82.2798C96.8916 82.0651 97.2999 81.7333 97.6305 81.3235C98.2916 80.4843 98.5833 79.3524 98.5833 78.2399C98.5833 76.2688 97.6694 74.688 96.2305 73.8488C95.3749 73.3609 94.4805 73.1853 93.236 73.1853H87.286C85.6916 73.1853 84.9527 73.9659 84.8749 76.0932C84.8749 76.2493 84.8749 76.4054 84.8749 76.5811V88.0175C84.836 88.4273 84.7971 88.8176 84.7971 89.2275C84.7971 90.1837 84.9138 91.4132 85.4971 91.9011C86.4888 92.7403 86.9749 93.2868 86.411 95.2189C86.1971 95.9214 86.3333 96.3898 86.6249 96.663C86.761 96.7997 86.9555 96.8777 87.1499 96.9168C87.9471 97.0534 88.9971 96.3313 88.4721 94.8676C87.8694 93.1307 87.7527 93.1697 88.6083 92.6037C89.4444 92.0378 90.1833 91.6865 90.1833 88.0175V84.3485H91.7388C92.3221 84.3289 92.8666 84.6607 93.1388 85.1876C93.4499 85.7536 93.4694 86.4367 93.4694 88.0175C93.4694 90.3594 94.1888 91.3937 95.8999 91.3937H96.7555C98.0777 91.4132 98.9721 90.8863 99.1666 89.4421ZM93.9555 70.1798V66.4718C93.9555 65.7887 93.8777 63.9152 93.936 63.3492C94.1888 60.4999 92.4194 59.1923 90.6694 58.4898C89.4055 58.0214 88.1027 57.7091 86.761 57.5725C85.8083 57.4749 85.1083 57.2212 85.1083 56.4406C85.1083 55.699 85.7305 55.4062 86.6249 55.4062C88.6666 55.4062 88.9971 56.7528 90.7666 56.8114C90.8055 56.8114 90.8638 56.8114 90.9027 56.8114C92.3027 56.8114 93.0221 55.7965 93.0221 54.6841C93.0221 54.5085 93.0027 54.3133 92.9444 54.1377C92.5944 52.4008 90.5721 51.0932 87.8694 51.0932H85.9055C81.8416 51.0932 79.9555 54.1767 79.9555 57.1041C79.9555 59.8559 81.4527 61.3586 83.1638 62.0612C84.3694 62.5491 85.6527 62.8418 86.9555 62.9394C88.0833 63.037 88.6666 63.3688 88.6666 64.0518C88.6666 64.7934 88.0055 65.0471 86.9555 65.0471C83.7666 65.0471 83.5527 63.076 81.8221 63.076C80.5971 63.076 79.8971 63.9542 79.8971 65.0862C79.8971 65.3594 79.936 65.6521 80.0138 65.9253C80.5194 67.8379 82.7555 69.3406 85.8277 69.3406C85.8277 69.3406 87.7527 69.0869 88.1805 69.0869C88.6277 69.0869 89.4055 68.7942 89.4055 69.8481C89.4055 71.4484 90.5527 72.19 91.7583 72.19C92.9638 72.19 93.9555 71.1947 93.9555 70.1798ZM84.661 97.6779C84.4471 97.3656 84.2721 97.0339 84.136 96.6826C83.4944 96.9753 82.7944 97.1314 82.0944 97.1314C80.4805 97.1119 78.7305 96.1361 78.0694 94.3406H74.4721C73.4805 94.3602 72.4888 94.126 71.6138 93.6186C70.836 94.1065 69.961 94.3406 69.0471 94.3406H68.6388C67.8999 94.3406 67.161 94.1845 66.4999 93.8723C65.6249 94.1845 64.711 94.3406 63.7971 94.3406C63.6805 94.3602 63.5444 94.3602 63.4083 94.3602C63.1166 94.3602 62.8249 94.3406 62.5138 94.3211C62.5527 94.5748 62.5721 94.8481 62.611 95.1213C62.9027 97.8535 61.2888 99.1416 60.5888 99.5514C62.7666 99.3563 64.5749 98.6927 65.8194 97.6193C66.8499 96.7216 68.5999 96.6045 71.3221 97.229C72.7805 97.5803 74.1805 98.0487 75.561 98.6146C75.6971 98.6537 76.5138 98.7708 79.7027 98.3805C81.6666 98.1463 83.5138 97.834 83.9027 97.7755H83.9221H83.961C84.2527 97.7364 84.4666 97.7169 84.661 97.6779ZM83.8638 89.2275V89.0908C83.8638 87.7052 83.086 86.7489 81.9194 86.7489H77.3499V84.3094H79.1971C80.1888 84.3094 80.8499 83.5093 80.8499 82.2993C80.8499 81.1088 80.1888 80.3282 79.1971 80.3282H77.3499V77.8691H81.9194C82.9305 77.8691 83.6694 77.1275 83.8249 76.0151C83.8444 75.8395 83.8638 75.6833 83.8638 75.5077C83.8638 74.1026 83.086 73.1658 81.9194 73.1658H74.4916C72.7805 73.1658 72.061 74.083 72.061 76.5421V87.9979C72.061 90.496 72.7805 91.3742 74.4916 91.3742H78.7305C80.1305 91.3742 80.7721 91.5108 80.7721 92.7013C80.7721 94.7895 83.7277 94.5163 83.8055 92.6232C83.8444 91.1205 83.8638 89.6958 83.8638 89.2275ZM79.3138 67.6232C79.2944 67.1158 79.2166 66.6279 79.0805 66.14C79.0416 65.9644 78.9833 65.7887 78.9249 65.5936L75.3666 53.4546C74.9971 52.2056 74.4138 51.0932 72.9749 51.0932H71.7499C70.2916 51.0932 69.6694 52.2837 69.3388 53.3766L65.6444 65.7887C65.3721 66.706 65.1194 67.4671 64.9444 68.0916V68.1111C64.6527 69.126 64.6333 69.7505 65.236 69.9652C65.7416 70.1408 66.2083 70.1408 66.5194 70.5702C66.8305 70.9995 64.9055 72.5998 66.6555 73.3609C66.1305 73.2438 65.6055 73.1853 65.0805 73.1853H64.5166C62.611 73.1853 60.8027 73.8488 59.3833 75.4882C59.286 75.5858 59.1888 75.7029 59.111 75.82C57.7694 77.5569 57.186 79.7232 57.186 82.2017V82.3969C57.1666 84.368 57.3027 86.3391 57.5749 88.2907C57.6333 88.8176 57.6527 89.3446 57.6527 89.891C57.6527 89.9886 57.6527 90.1057 57.6333 90.2033C57.6333 90.3594 57.6138 90.5155 57.6138 90.7107C57.5555 92.3305 57.361 94.2626 57.2055 95.7458C57.011 97.4827 59.5388 98.0487 60.1027 96.7021C60.2388 96.3508 60.2583 95.98 60.1805 95.6287C59.6749 93.1307 59.2277 92.0768 59.2277 90.7692C59.2277 90.5936 59.2471 90.4179 59.2666 90.2423C59.2666 90.2423 61.3666 91.5499 63.7777 91.4132C64.886 91.4132 66.0527 91.14 66.8499 90.2033C67.1416 90.9449 67.861 91.4328 68.6583 91.4132H69.0666C70.2138 91.4132 70.7583 90.7302 70.7583 88.9737V84.9339C70.7583 82.8067 69.8444 82.1431 68.3083 82.1431H66.3055C64.5749 82.1431 63.9721 82.6701 63.9721 83.8801C63.9721 84.973 64.5166 85.3633 65.5083 85.4413C65.3916 86.5538 64.8471 86.9636 64.1277 86.9636C63.5055 86.9636 62.9805 86.6904 62.6499 85.8707C62.3583 85.1096 62.2221 83.9191 62.2221 82.5725V81.7919C62.2221 80.5819 62.3777 79.489 62.7666 78.8059C63.1944 78.1033 63.8555 77.8496 64.5555 77.8496C65.4499 77.8496 66.0527 78.1619 66.5194 79.1962C66.9277 80.0744 67.336 80.6794 68.561 80.6794C69.7277 80.6794 70.7194 79.7232 70.7194 78.1228C70.7194 76.425 69.6694 74.4148 67.4138 73.5561C67.3944 73.5561 67.3944 73.5561 67.3944 73.5366C67.3944 73.5171 67.4138 73.5171 67.4333 73.4976C68.5805 72.9121 67.8027 71.7802 67.6083 71.0385C67.4138 70.2969 68.3277 70.1213 68.7944 69.8871C69.2221 69.6724 69.261 68.6771 69.5138 67.8574L70.0194 66.1791H73.6749L74.2194 67.9745C74.5888 69.165 75.3471 69.4187 76.261 69.4187L77.6416 69.3406C78.6332 69.3406 79.3138 68.9113 79.3138 67.6232ZM64.6138 53.4351C64.6138 53.3766 64.6138 53.3375 64.6138 53.279C62.436 54.0987 59.986 53.8449 58.4305 51.9324C58.2166 51.6787 58.0221 51.3859 57.8666 51.0737C56.661 51.0932 55.2416 51.0932 55.2416 51.0932C53.5305 51.0932 52.811 52.0104 52.811 54.489V65.9449C52.811 66.706 52.461 68.8527 53.9777 69.0869C55.3388 69.3016 56.8166 69.4577 57.0499 69.9066C57.1471 70.0823 57.186 70.2969 57.186 70.5116C57.186 71.4484 56.3888 72.5022 56.5833 73.4195C56.7583 74.2392 57.3805 74.649 58.0027 74.649C58.7999 74.649 59.5777 73.9269 59.1888 72.4632C59.0138 71.7606 58.7805 71.0385 58.7805 70.4921C58.7805 69.9652 58.9749 69.5748 59.5777 69.4577C60.8221 69.2431 62.6499 69.3797 62.6499 69.3797C63.5249 69.3797 64.186 68.8527 64.4583 67.994C64.5555 67.6818 64.5944 67.3695 64.5944 67.0378C64.5944 65.6326 63.8166 64.6763 62.6499 64.6763H58.0805V62.2368H59.9083C60.8999 62.2368 61.561 61.4172 61.561 60.2267C61.561 59.0362 60.8999 58.2556 59.9083 58.2556H58.0805V55.7965H62.6499C63.836 55.777 64.6138 54.8207 64.6138 53.4351ZM57.9055 45.9605C58.0027 45.5311 58.3138 44.0869 57.7888 43.7942L57.7305 43.7552C57.2055 43.4429 55.6305 42.9355 53.3944 42.6428C51.0221 42.3305 48.6499 42.311 46.7249 42.6037C44.8388 42.8769 42.8944 43.599 40.8527 44.3406C38.4221 45.2384 35.9138 46.1556 33.3471 46.3508C32.7444 46.4093 32.1221 46.4093 31.4999 46.3703C28.8555 46.2142 27.3777 45.1603 26.1916 44.3406C24.7138 43.3063 23.6444 42.5452 20.3388 43.4039C19.8527 43.5405 17.7138 43.9503 15.7888 44.2431C14.3888 44.4577 13.0083 44.6529 11.5694 44.5944C10.5194 44.5553 9.31381 44.5944 8.34159 44.9847C7.36936 45.375 6.24158 46.1752 6.18325 47.3266L6.14436 48.1463H8.51658C9.95547 48.1463 11.161 48.5561 12.036 49.3563C12.7944 48.6927 13.9221 48.1463 15.6527 48.1463H18.4721C19.736 48.1463 20.8055 48.4585 21.661 49.0635C22.5166 48.4585 23.6055 48.1463 24.8305 48.1463H30.7805C32.5888 48.1463 33.9694 48.4585 35.2527 49.2001C35.6027 49.3953 35.9138 49.61 36.2055 49.8637C37.1583 48.7513 38.5388 48.1463 40.2499 48.1463H46.1805C47.9888 48.1463 49.3499 48.4585 50.6527 49.1806C50.9055 49.3367 51.1582 49.4929 51.3916 49.6685C52.3249 48.6732 53.6666 48.1463 55.261 48.1463H57.4194C57.4971 47.4242 57.7499 46.7216 57.9055 45.9605ZM56.7971 89.8715C56.7971 89.7934 56.7971 89.7349 56.7777 89.6568C56.6805 88.4273 55.961 87.8223 55.961 86.4171C55.961 85.0705 55.8638 84.2118 55.3388 83.4312C55.0277 82.9628 54.5999 82.553 54.0944 82.2993C54.5805 82.0846 54.9888 81.7528 55.3194 81.343C55.961 80.5038 56.2721 79.3719 56.2721 78.2595C56.2721 76.2883 55.3582 74.7076 53.9194 73.8684C53.0833 73.3805 52.1694 73.2048 50.9249 73.2048H44.9749C43.2638 73.2048 42.5444 74.1221 42.5444 76.5811L42.5833 87.9199L42.311 90.5741C42.1166 91.7645 42.661 93.0916 43.5166 93.0916C44.2749 93.0916 44.5277 93.3453 44.586 94.3797C44.586 94.5163 44.586 94.6919 44.586 94.8676C44.586 96.3313 44.1194 96.6435 44.2166 97.6974C44.2749 97.873 44.3333 98.0292 44.4499 98.1658C45.0527 98.7513 46.5694 98.6732 46.4527 97.229C46.3166 95.5897 45.8888 94.9066 45.8888 94.3016C45.8888 94.2626 45.8888 94.204 45.9083 94.165C46.0249 93.3063 46.0833 92.8965 46.6666 92.8769C47.5221 92.8574 48.2221 92.4476 47.8138 88.037V84.3875H49.3694C49.9527 84.368 50.4971 84.6997 50.7499 85.2267C51.061 85.7926 51.0999 86.4757 51.0999 88.0565C51.0999 90.3984 51.8194 91.4328 53.511 91.4328H54.386C55.6694 91.4328 56.7777 91.3742 56.7777 89.891L56.7971 89.8715ZM54.4249 94.3406H53.5499C52.2471 94.3406 51.1194 93.9894 50.2444 93.3063C50.011 93.9503 49.6027 94.5358 49.0777 94.9847C49.2721 95.6482 49.3694 96.3313 49.4277 97.0143C49.4471 97.19 49.4471 97.3461 49.4471 97.5218C50.8277 97.9316 53.6277 98.7317 55.8055 99.2196C54.4249 98.1658 53.8805 96.4874 54.3277 94.731C54.3471 94.6139 54.386 94.4968 54.4249 94.3406ZM51.6055 64.3055C51.6055 63.1931 51.3138 62.0417 50.6527 61.222C50.3027 60.7926 49.8749 60.4414 49.3694 60.2267C49.836 59.9925 50.2444 59.6607 50.5555 59.2704C51.2166 58.4312 51.5083 57.2993 51.5083 56.1869C51.5083 54.2157 50.5944 52.6349 49.1555 51.7958C48.3194 51.3079 47.4055 51.1322 46.161 51.1322H40.2499C38.5388 51.1322 37.8194 52.0495 37.8194 54.528L37.8583 56.1478L38.0916 65.9058L37.8194 69.3406C37.6249 70.7458 38.0916 71.8777 39.2194 72.1119C39.3749 72.151 39.511 72.151 39.6666 72.151C41.1444 72.151 41.611 72.1314 41.961 70.98C42.2527 70.0042 41.261 68.9894 42.3888 69.0284C43.1277 69.0479 47.4833 69.6139 49.1944 68.7552C50.7305 67.9355 51.6055 66.2766 51.6055 64.3055ZM41.611 98.9074C41.6694 98.8684 41.7083 98.8293 41.7471 98.7708C41.6694 98.5756 41.611 98.3805 41.5721 98.1853C41.5527 98.1853 41.5138 98.1658 41.4944 98.1658C41.3582 97.5218 41.3583 96.8582 41.4749 96.2142L41.4944 96.0971C41.5138 95.9019 41.5527 95.7458 41.5721 95.5702C40.736 96.9168 39.1805 97.7559 37.3333 97.7559C35.1555 97.7364 32.8027 96.5264 32.3555 94.2821C30.236 94.1065 28.3694 93.2477 27.0083 91.8231C26.6194 92.2524 26.1916 92.6232 25.7444 92.9745C24.5194 93.9894 23.0221 94.1845 21.8166 94.204C21.7971 96.7216 20.3971 98.6927 17.6749 98.7903C17.5777 98.7903 17.4416 98.7708 17.3444 98.7708H17.3055C13.5916 98.7708 13.3194 95.7458 13.261 94.0869C11.5888 93.6381 9.50825 92.2134 9.50825 87.9589V86.4757C8.20547 87.1197 6.86381 88.2321 5.46381 89.7934C4.51103 90.8668 3.65547 92.0182 2.8777 93.2087C3.18881 93.4429 3.65547 93.7161 3.96658 93.9113C4.76381 94.3992 5.58047 94.9066 6.14436 95.5311C7.29158 96.7411 6.51381 98.7903 5.69714 100.976C5.65825 101.074 5.61936 101.191 5.58047 101.308L5.63881 101.288C6.12492 101.074 6.64992 100.859 7.11658 100.664C7.52492 100.488 8.26381 99.9808 8.86658 99.5514C9.8777 98.8488 10.3833 98.5171 10.8888 98.4195C12.0944 98.2048 12.8916 99.1221 13.611 99.9222C14.2333 100.644 14.9527 101.444 15.8666 101.64C15.9444 101.659 16.4694 101.718 18.0055 100.976C19.1333 100.43 20.3971 99.649 21.6027 98.9074C23.0805 97.9901 24.3833 97.19 25.336 96.8972C26.9499 96.3703 28.2721 97.3851 29.3221 98.2048C30.8777 99.3953 30.9944 99.2782 31.4416 98.8098C31.6944 98.5366 32.0444 98.3805 32.4138 98.3805C32.7833 98.3805 33.2499 98.478 34.1833 98.6732C35.9721 99.1416 40.1916 100.078 41.611 98.9074ZM41.0277 84.973V76.5616C41.0277 75.6833 40.9888 74.8832 40.7555 74.3367C40.4444 73.5756 39.8221 73.1853 39.1416 73.1853H38.7916C38.111 73.1853 37.4888 73.5951 37.1777 74.3367C36.9444 74.9027 36.9055 75.6833 36.9055 76.5616V83.3336C36.9055 84.2118 36.8666 84.9925 36.6333 85.5584C36.3221 86.3196 35.6805 86.7294 34.9999 86.7294H34.6694C33.9888 86.7294 33.3666 86.3196 33.036 85.5584C32.8027 84.9925 32.7638 84.2118 32.7638 83.3336V76.5616C32.7638 74.0635 32.0444 73.1853 30.3333 73.1853H29.886C28.1749 73.1853 27.4555 74.1025 27.4555 76.5616V84.9339C27.4555 85.1876 27.4749 85.4414 27.4944 85.6951C27.7666 89.3836 29.9833 91.4132 33.1916 91.4132C34.6694 91.4913 35.5249 91.7255 35.486 93.3648C35.4277 95.4921 39.1416 95.6092 39.2777 93.3063C39.4138 91.0034 39.1416 91.14 39.7638 90.3204C40.386 89.5007 41.0277 88.9152 41.0277 84.973ZM35.1749 59.2314C35.8166 58.3922 36.1277 57.2602 36.1277 56.1478C36.1277 54.1767 35.2138 52.5959 33.7749 51.7567C32.9388 51.2688 32.0249 51.0932 30.7805 51.0932H24.8305C23.1194 51.0932 22.3999 52.0104 22.3999 54.489L22.4388 65.0471C22.4388 65.3399 22.361 66.14 22.3221 66.4328C22.011 68.8723 23.1388 69.4773 24.7527 69.4773L25.4527 69.4382C27.086 69.4382 28.0971 69.1455 27.7666 66.3157C27.7471 66.0815 27.5721 65.3594 27.5721 65.1252L27.6888 62.2759H29.2444C29.8277 62.2563 30.3721 62.5881 30.6249 63.115C30.936 63.681 30.9749 64.3641 30.9749 65.9449C30.9749 67.5257 30.7416 67.916 30.7416 69.4382C30.7416 70.2969 31.0138 71.019 31.4805 71.4874C31.8499 71.8777 32.3555 72.0924 32.8805 72.0924C34.1638 72.0924 35.9527 72.19 35.9527 69.731C35.9527 67.2719 35.8166 64.325 35.8166 64.325C35.8166 62.9784 35.7194 62.1197 35.1944 61.3391C34.8833 60.8707 34.4555 60.4804 33.9499 60.2072C34.436 59.973 34.8444 59.6412 35.1749 59.2314ZM26.2694 86.3781C26.2694 86.183 26.2499 85.9878 26.2305 85.7926C26.1721 84.8754 25.861 83.9972 25.2971 83.2751C24.9471 82.8457 24.5194 82.4944 24.0138 82.2602C24.4805 82.026 24.8888 81.6943 25.1999 81.304C25.861 80.4648 26.1527 79.3328 26.1527 78.2204C26.1527 76.2493 25.2388 74.6685 23.7999 73.8293C22.9638 73.3414 22.0499 73.1658 20.8055 73.1658H14.9138C13.2027 73.1658 12.4832 74.083 12.4832 76.5421V87.9979C12.4832 90.3204 13.1055 91.2571 14.5638 91.3742C14.9138 91.4328 15.2638 91.5303 15.5944 91.6865C16.1777 91.9207 16.5277 92.6428 16.1583 93.8332C15.6527 95.4921 16.586 96.4093 17.461 96.4093C18.2777 96.4093 19.0749 95.6482 18.6471 94.0089C18.0055 91.4328 18.5694 91.745 19.5221 91.3937C20.4749 91.0424 22.6527 91.6865 23.8582 90.7107C25.1805 89.6958 26.2694 88.3492 26.2694 86.3781ZM20.8833 65.9449V54.5085C20.8833 52.03 20.1638 51.1127 18.4527 51.1127H15.6527C14.4277 51.1127 13.7277 51.464 13.4166 52.752L12.1721 57.9238L10.6944 52.7716C10.286 51.4054 9.64436 51.0932 8.51658 51.0932H5.54158C3.81103 51.0932 3.09158 52.0104 3.09158 54.489V65.9449C3.09158 66.8426 3.13047 67.6232 3.36381 68.1697C3.67492 68.9308 4.21936 69.3211 4.16103 70.6092C4.1027 72.0143 3.71381 73.6342 3.61658 75.254C3.61658 75.3321 3.61658 75.4101 3.61658 75.5077C3.65547 76.2688 4.08325 77.3032 4.89992 77.2837C5.8527 77.2446 6.53325 76.4054 6.3777 75.4101C6.35825 75.3125 6.33881 75.215 6.33881 75.1174C6.08603 73.7122 5.54158 71.663 5.54158 70.6287C5.54158 70.5506 5.54158 70.4531 5.56103 70.375C5.69714 69.3992 6.99992 69.3602 7.17492 68.3844C7.29158 67.6623 7.33047 66.9207 7.33047 66.1986L7.21381 58.9777L9.37214 68.1892C9.68325 69.3797 10.6166 69.77 11.4916 69.77H11.8221C12.6388 69.77 13.1833 69.3602 13.4944 68.1697L15.5749 58.9386V65.9644C15.5749 68.4624 16.2944 70.0432 18.0055 70.0432L18.5499 70.0627C20.261 70.0432 20.8833 68.4234 20.8833 65.9449Z" fill="black"></path>
    <path d="M106.983 85.5972V88.2514H106.633V86.0071L105.855 88.2514H105.505L104.727 86.0071V86.0851C104.727 86.1437 104.727 86.2412 104.727 86.3779V88.2319H104.377V85.5777H104.902L105.68 87.822L106.458 85.5777L106.983 85.5972Z" fill="black"></path>
    <path d="M104.027 85.5972V85.9095H103.113V88.2514H102.744V85.9095H101.83V85.5972H104.027Z" fill="black"></path>
    <path d="M96.3073 111.358C97.4351 113.076 97.3379 116.218 95.3934 118.15C94.8879 118.657 94.0712 118.657 93.5657 118.15C93.0601 117.662 93.0601 116.862 93.5462 116.354L93.5657 116.335C94.1879 115.71 94.7323 114.208 94.3435 113.115C93.8768 113.056 92.8657 112.998 90.6684 112.978C88.5101 112.959 85.7879 112.978 83.1629 113.017C78.9046 113.056 74.899 113.095 73.0129 112.959C72.3129 112.9 71.7879 112.295 71.8462 111.593C71.9046 110.89 72.5073 110.363 73.2073 110.422C74.9962 110.558 79.1379 110.519 83.1434 110.48C86.0407 110.461 89.0351 110.422 91.3101 110.461C92.5546 110.48 93.4879 110.519 94.1684 110.558C95.1407 110.617 95.899 110.714 96.3073 111.358Z" fill="black"></path>
    <path d="M96.0556 24.8049C96.075 25.566 95.4723 26.21 94.7139 26.2295C94.6945 26.2295 94.675 26.2295 94.6362 26.2295C93.8584 26.2491 93.2167 25.6441 93.1973 24.8829C93.1973 24.8634 93.1973 24.8439 93.1973 24.8244C93.2167 24.0438 93.8778 23.3997 94.675 23.4388C95.4139 23.4388 96.0362 24.0438 96.0556 24.8049Z" fill="black"></path>
    <path d="M92.7695 78.1031C93.1584 78.3958 93.3918 78.8642 93.3723 79.3521C93.3918 79.84 93.1779 80.3084 92.7695 80.5816C92.439 80.7768 92.0501 80.8548 91.6612 80.8353H90.1445V77.8689H91.6612C92.0501 77.8299 92.439 77.9274 92.7695 78.1031Z" fill="black"></path>
    <path d="M89.4837 17.662C90.2615 17.662 90.9226 18.2865 90.9226 19.0867C90.9226 19.8673 90.2809 20.5113 89.4837 20.5113C89.4837 20.5113 89.4837 20.5113 89.4643 20.5113C88.6865 20.5113 88.0448 19.9063 88.0254 19.1257C88.0254 18.306 88.6671 17.662 89.4837 17.662Z" fill="black"></path>
    <path d="M87.9662 27.7322C88.7635 27.7127 89.4246 28.3568 89.4246 29.1569C89.4246 29.9376 88.7829 30.5816 87.9857 30.5816C87.9857 30.5816 87.9857 30.5816 87.9662 30.5816C87.1885 30.5816 86.5468 29.9766 86.5273 29.1959C86.5468 28.3958 87.1885 27.7518 87.9662 27.7322Z" fill="black"></path>
    <path d="M84.0966 21.897C84.8744 21.897 85.5355 22.5215 85.5355 23.3216C85.5355 24.1023 84.9133 24.7658 84.116 24.7658C83.416 24.7463 82.6577 24.1999 82.6966 23.3216C82.6383 22.541 83.3772 21.897 84.0966 21.897Z" fill="black"></path>
    <path d="M83.9017 14.6565C83.9212 15.4176 83.3184 16.0617 82.5795 16.0812C82.5406 16.0812 82.5017 16.0812 82.4823 16.0812C81.6851 16.1397 81.0239 15.4372 81.0434 14.676C81.1017 13.8759 81.8017 13.2709 82.5989 13.3489C83.2795 13.4075 83.8434 13.9539 83.9017 14.6565Z" fill="black"></path>
    <path d="M76.4547 13.0562C76.4547 13.8369 75.8324 14.4809 75.0547 14.4809C75.0352 14.4809 75.0352 14.4809 75.0158 14.4809C74.238 14.4614 73.6158 13.8174 73.6352 13.0367C73.6547 12.2561 74.2963 11.6316 75.0741 11.6511C75.8519 11.6511 76.4547 12.2756 76.4547 13.0562Z" fill="black"></path>
    <path d="M72.0616 58.7822L73.1311 62.9391H70.9922L72.0616 58.7822Z" fill="black"></path>
    <path d="M65.1191 48.8681V48.8876C65.1191 48.829 65.0996 48.79 65.0996 48.7314C65.0996 48.7705 65.1191 48.79 65.1191 48.8095V48.8681Z" fill="black"></path>
    <path d="M65.1378 49.3755C65.1378 49.395 65.1378 49.4146 65.1378 49.4341C65.1378 49.5121 65.1184 49.5902 65.099 49.6683C65.0601 49.8244 64.9823 49.9805 64.8656 50.1171C64.7879 50.2147 64.6906 50.3123 64.5934 50.3904C64.574 50.4099 64.5545 50.4294 64.5351 50.4294H64.5156C64.7101 50.2733 64.8851 50.0781 64.9823 49.8439C65.1184 49.5316 65.1573 49.1999 65.1184 48.8681C65.1573 49.0437 65.1573 49.2194 65.1378 49.3755Z" fill="black"></path>
    <path d="M64.0309 43.0523C63.6031 44.3794 64.1476 45.9407 64.6531 47.3068C64.692 47.3849 64.7115 47.4629 64.7309 47.541C64.2059 46.1749 63.5448 44.516 64.0309 43.0523Z" fill="black"></path>
    <path d="M61.4452 51.0539C61.7174 51.1515 61.9896 51.1905 62.2813 51.171L62.2035 51.1905H62.1841C62.0674 51.21 61.9702 51.21 61.8535 51.1905C61.5424 51.132 61.2507 51.0149 60.998 50.8197H60.9785C61.1341 50.9173 61.2896 50.9953 61.4452 51.0539Z" fill="black"></path>
    <path d="M60.4714 46.3115C60.4714 46.2919 60.4714 46.2724 60.4714 46.2724C60.6269 45.5308 60.6658 44.7892 60.588 44.0476C60.7436 45.1991 60.5102 46.409 60.1797 47.5215L60.2186 47.3653C60.2964 47.014 60.3936 46.6823 60.4714 46.3115Z" fill="black"></path>
    <path d="M59.8885 48.9461C59.869 48.79 59.8885 48.6339 59.9274 48.4973C59.9468 48.4582 59.9468 48.4192 59.9468 48.3997L59.9663 48.3607C59.9079 48.5948 59.8885 48.8095 59.9079 49.0437C59.9274 49.2974 59.9857 49.5316 60.1024 49.7463C60.0829 49.6877 60.044 49.6292 60.0246 49.5706C59.9468 49.395 59.9274 49.1998 59.9079 49.0047L59.8885 48.9461Z" fill="black"></path>
    <path d="M50.4589 78.1031C50.8478 78.3958 51.0811 78.8642 51.0617 79.3521C51.0811 79.84 50.8672 80.3084 50.4589 80.5816C50.1089 80.7768 49.72 80.8548 49.3311 80.8353H47.8145V77.8689H49.3311C49.7395 77.8299 50.1089 77.9274 50.4589 78.1031Z" fill="black"></path>
    <path d="M45.9463 61.9243C46.3352 62.178 46.5296 62.6269 46.5296 63.1733C46.5296 63.7198 46.3158 64.1686 45.9463 64.4028C45.5963 64.598 45.2074 64.676 44.8185 64.6565H43.1074V61.6706H44.8185C45.2074 61.6511 45.5963 61.7291 45.9463 61.9243Z" fill="black"></path>
    <path d="M45.713 56.0305C46.3935 56.5964 46.4908 57.6113 45.9269 58.2943C45.8491 58.3724 45.7908 58.4504 45.713 58.509C45.363 58.6846 44.9741 58.7822 44.5852 58.7627H43.1074V55.7768H44.5852C44.9741 55.7572 45.363 55.8548 45.713 56.0305Z" fill="black"></path>
    <path d="M30.3339 56.0305C31.0145 56.5769 31.1311 57.5917 30.5672 58.2748C30.4895 58.3529 30.4117 58.4504 30.3339 58.509C29.9839 58.6846 29.595 58.7822 29.2061 58.7627H27.6895V55.7768H29.2061C29.595 55.7572 29.9839 55.8548 30.3339 56.0305Z" fill="black"></path>
    <path d="M28.5836 13.0953C28.8169 13.7588 28.4669 14.4809 27.8058 14.7151H27.7863C22.303 16.6081 18.0252 19.6917 16.2947 22.9313C15.9641 23.5558 15.1864 23.79 14.5447 23.4778C13.9225 23.1655 13.6697 22.4044 13.9808 21.7799C13.9808 21.7799 13.9808 21.7604 14.0002 21.7604C14.9919 19.8868 16.6836 18.0328 18.9002 16.413C21.1558 14.7541 23.8586 13.3685 26.9308 12.3146C27.6114 12.0804 28.3308 12.4317 28.5836 13.0953Z" fill="black"></path>
    <path d="M25.6667 117.057C25.7445 117.76 25.2389 118.404 24.5389 118.482L24.4417 118.501C22.7112 118.696 21.6417 118.813 20.7084 118.813C19.6584 118.813 18.7834 118.657 17.4223 118.267C16.4306 117.994 15.6139 117.155 15.0695 115.847C14.6806 114.891 14.4667 113.876 14.4473 112.842C14.4473 112.119 15.0306 111.534 15.75 111.534C16.4695 111.534 17.0528 112.119 17.0528 112.842C17.0723 113.544 17.2084 114.227 17.4806 114.871C17.7723 115.574 18.0639 115.788 18.1612 115.808C20.2612 116.413 20.6306 116.374 24.1695 115.945L24.2667 115.925C24.9473 115.847 25.5889 116.335 25.6667 117.057Z" fill="black"></path>
    <path d="M20.5908 83.9969C20.9797 84.2506 21.1742 84.6995 21.1742 85.2264C21.1742 85.7534 20.9603 86.2217 20.5908 86.4754C20.2408 86.6706 19.852 86.7487 19.4631 86.7291H17.752V83.7432H19.4631C19.8714 83.7237 20.2603 83.8017 20.5908 83.9969Z" fill="black"></path>
    <path d="M20.377 78.1031C20.7659 78.3568 20.9604 78.8057 20.9604 79.3521C20.9604 79.8986 20.7465 80.3474 20.377 80.5816C20.027 80.7768 19.6382 80.8548 19.2493 80.8353H17.7715V77.8689H19.2493C19.6382 77.8299 20.027 77.9274 20.377 78.1031Z" fill="black"></path>
  </g>
  <defs>
    <clipPath id="clip0_602_9187">
      <rect width="112" height="125" fill="white"></rect>
    </clipPath>
  </defs>
</svg>
